<?xml version="1.0" encoding="UTF-8"?>
<svg version="1.1" xmlns="http://www.w3.org/2000/svg" width="1024" height="1024">
<path d="M0 0 C337.92 0 675.84 0 1024 0 C1024 337.92 1024 675.84 1024 1024 C686.08 1024 348.16 1024 0 1024 C0 686.08 0 348.16 0 0 Z " fill="#FDFDFD" transform="translate(0,0)"/>
<path d="M0 0 C1.42475814 0.72209282 2.84974188 1.44374062 4.27490234 2.16503906 C5.45412262 2.76378845 5.45412262 2.76378845 6.65716553 3.37463379 C11.59586414 5.87171941 16.55380355 8.33034869 21.5078125 10.796875 C23.73905058 11.90991916 25.97016843 13.02320436 28.20117188 14.13671875 C31.62257973 15.84436719 35.04426551 17.55144197 38.46704102 19.25634766 C51.12986317 25.56456009 63.74238791 31.94281477 76.2409668 38.57080078 C81.1966871 41.19543871 86.20771722 43.70208019 91.23828125 46.1796875 C97.8694105 49.46979229 104.45644584 52.82182373 110.98828125 56.3046875 C119.9882911 61.09731138 129.11077233 65.63659297 138.23828125 70.1796875 C147.95366545 75.01543161 157.64358302 79.87560004 167.21582031 84.99072266 C175.60269457 89.45016848 184.12322556 93.64801412 192.63623047 97.86010742 C193.77850098 98.42705322 194.92077148 98.99399902 196.09765625 99.578125 C197.11311523 100.08005371 198.12857422 100.58198242 199.17480469 101.09912109 C202.58358893 102.85784513 205.90792416 104.77662631 209.23828125 106.6796875 C209.23828125 217.5596875 209.23828125 328.4396875 209.23828125 442.6796875 C193.16793903 451.8627402 193.16793903 451.8627402 186.8828125 455.046875 C186.1771666 455.40801392 185.47152069 455.76915283 184.74449158 456.14123535 C183.26727102 456.89689725 181.78932901 457.65115049 180.31066895 458.4039917 C176.44063388 460.37454674 172.576218 462.35607747 168.7109375 464.3359375 C167.5862355 464.91146866 167.5862355 464.91146866 166.43881226 465.49862671 C160.93676709 468.31578719 155.45224347 471.16425574 149.98828125 474.0546875 C149.27422119 474.43238281 148.56016113 474.81007813 147.82446289 475.19921875 C146.39207205 475.95699761 144.959699 476.71481011 143.52734375 477.47265625 C139.02213958 479.84826732 134.50459182 482.20028051 129.98828125 484.5546875 C129.0230957 485.05790527 128.05791016 485.56112305 127.06347656 486.07958984 C125.10161081 487.10230622 123.13969647 488.1249294 121.17773438 489.14746094 C116.36383381 491.65676658 111.55110945 494.16832587 106.73828125 496.6796875 C104.82162039 497.67969863 102.90495372 498.67969862 100.98828125 499.6796875 C100.03953125 500.1746875 99.09078125 500.6696875 98.11328125 501.1796875 C89.48828126 505.6796875 89.48828126 505.6796875 86.61230469 507.18017578 C84.69887 508.17850366 82.78545848 509.17687594 80.87207031 510.17529297 C76.03114489 512.70124401 71.18979834 515.22638194 66.34765625 517.75 C65.36603516 518.26175781 64.38441406 518.77351562 63.37304688 519.30078125 C61.55419327 520.24899877 59.73520188 521.19695208 57.91601562 522.14453125 C52.84267525 524.7898342 47.77658985 527.44856888 42.71516418 530.11657715 C32.6156491 535.43915328 22.50526612 540.7400875 12.36206055 545.97900391 C10.6260483 546.87754041 8.89172072 547.7793379 7.15893555 548.68408203 C4.60727038 550.0158587 2.05041636 551.33713534 -0.5078125 552.65625 C-1.66705482 553.26540756 -1.66705482 553.26540756 -2.84971619 553.88687134 C-3.56889725 554.25500946 -4.28807831 554.62314758 -5.02905273 555.00244141 C-5.65569321 555.32757721 -6.28233368 555.65271301 -6.92796326 555.98770142 C-9.99610455 557.1454954 -12.28812494 556.88605877 -15.23754883 555.60083008 C-16.15947021 555.09704834 -17.0813916 554.5932666 -18.03125 554.07421875 C-19.07289307 553.50960937 -20.11453613 552.945 -21.18774414 552.36328125 C-22.86404907 551.43708984 -22.86404907 551.43708984 -24.57421875 550.4921875 C-25.74767752 549.85103515 -26.92142845 549.21041727 -28.09545898 548.5703125 C-37.4436193 543.45991787 -46.72496241 538.2300884 -55.984375 532.9609375 C-62.06014269 529.50390983 -68.15961906 526.08996169 -74.26171875 522.6796875 C-86.11640862 516.05051812 -97.94160355 509.37031874 -109.76171875 502.6796875 C-109.76171875 493.4396875 -109.76171875 484.1996875 -109.76171875 474.6796875 C-118.28825811 477.54810703 -118.28825811 477.54810703 -126.8125 480.42333984 C-146.56732961 487.03884192 -146.56732961 487.03884192 -157.07421875 481.8671875 C-165.89621321 477.45074534 -175.75166664 471.68973961 -182.76171875 464.6796875 C-182.91754178 463.33953529 -183.01216017 461.99209847 -183.078125 460.64453125 C-183.12001953 459.83564453 -183.16191406 459.02675781 -183.20507812 458.19335938 C-183.24439453 457.34322266 -183.28371094 456.49308594 -183.32421875 455.6171875 C-183.36740234 454.76318359 -183.41058594 453.90917969 -183.45507812 453.02929688 C-183.56148577 450.91296713 -183.66213606 448.79634937 -183.76171875 446.6796875 C-184.33092041 446.86144531 -184.90012207 447.04320312 -185.48657227 447.23046875 C-188.09596293 448.05724836 -190.70992713 448.86854461 -193.32421875 449.6796875 C-194.21947266 449.96585938 -195.11472656 450.25203125 -196.03710938 450.546875 C-204.4145034 453.1245347 -210.39462367 453.30522354 -218.44921875 449.8671875 C-219.09955078 449.60615234 -219.74988281 449.34511719 -220.41992188 449.07617188 C-223.89839943 447.64010316 -227.04231164 446.2989014 -229.76171875 443.6796875 C-230.25851274 441.15906221 -230.25851274 441.15906221 -230.25391006 438.07872486 C-230.26187426 436.9058142 -230.26983845 435.73290353 -230.27804399 434.52445012 C-230.26056694 432.58235639 -230.26056694 432.58235639 -230.24273682 430.60102844 C-230.24448022 429.21662795 -230.24798088 427.83222873 -230.25309348 426.44783658 C-230.26206287 422.63491939 -230.24600336 418.82244927 -230.22598124 415.00958908 C-230.20874861 410.90121884 -230.21454996 406.79287495 -230.21759033 402.68447876 C-230.21969036 395.56354586 -230.20711308 388.44275927 -230.18463898 381.32186317 C-230.15216617 371.02619764 -230.1417168 360.73060304 -230.13668701 350.43489184 C-230.12792694 333.73186367 -230.10129206 317.02891353 -230.06347656 300.32592773 C-230.02677489 284.09806713 -229.99845411 267.8702277 -229.98144531 251.64233398 C-229.98039442 250.64247864 -229.97934352 249.64262329 -229.97826079 248.61246929 C-229.97304073 243.59661746 -229.96798588 238.58076548 -229.96301317 233.56491339 C-229.92152896 191.93645048 -229.85106116 150.30807345 -229.76171875 108.6796875 C-226.91801627 107.01526794 -224.06019306 105.3767114 -221.19921875 103.7421875 C-220.39935547 103.27361328 -219.59949219 102.80503906 -218.77539062 102.32226562 C-212.09983416 98.5349091 -206.95531775 96.81023449 -199.265625 98.67578125 C-197.8105957 99.01899414 -197.8105957 99.01899414 -196.32617188 99.36914062 C-195.33552734 99.61599609 -194.34488281 99.86285156 -193.32421875 100.1171875 C-192.30650391 100.36017578 -191.28878906 100.60316406 -190.24023438 100.85351562 C-187.74446965 101.45109309 -185.25207944 102.06004422 -182.76171875 102.6796875 C-182.78492188 101.88304687 -182.808125 101.08640625 -182.83203125 100.265625 C-182.85007813 99.20601563 -182.868125 98.14640625 -182.88671875 97.0546875 C-182.90992188 96.01054687 -182.933125 94.96640625 -182.95703125 93.890625 C-182.74006139 90.32364043 -182.33688524 87.90002789 -180.76171875 84.6796875 C-178.53232469 82.94040152 -176.58537173 81.64141575 -174.13671875 80.3046875 C-173.47663818 79.92965088 -172.81655762 79.55461426 -172.13647461 79.16821289 C-170.02355187 77.98204119 -167.89473569 76.82927238 -165.76171875 75.6796875 C-165.05450684 75.28861816 -164.34729492 74.89754883 -163.61865234 74.49462891 C-161.53182183 73.34603356 -159.43215813 72.22649749 -157.32421875 71.1171875 C-156.68726074 70.77059082 -156.05030273 70.42399414 -155.39404297 70.06689453 C-154.77416504 69.75220215 -154.15428711 69.43750977 -153.515625 69.11328125 C-152.98267822 68.83540771 -152.44973145 68.55753418 -151.90063477 68.27124023 C-145.77919403 66.57825417 -139.916567 67.87425169 -133.98046875 69.6484375 C-132.93203796 69.94808411 -132.93203796 69.94808411 -131.86242676 70.25378418 C-129.65920538 70.88590344 -127.46055205 71.5324892 -125.26171875 72.1796875 C-123.7567899 72.61425029 -122.25158347 73.047853 -120.74609375 73.48046875 C-117.08069289 74.53406966 -113.42184256 75.60718611 -109.76171875 76.6796875 C-109.76171875 66.7796875 -109.76171875 56.8796875 -109.76171875 46.6796875 C-106.67957031 45.04773438 -106.67957031 45.04773438 -103.53515625 43.3828125 C-100.73529722 41.8991534 -97.93593185 40.41456489 -95.13671875 38.9296875 C-94.40687775 38.54253571 -93.67703674 38.15538391 -92.92507935 37.75650024 C-83.98701711 33.01288531 -75.06840079 28.23876982 -66.19921875 23.3671875 C-57.94849337 18.83591253 -49.63309564 14.44332219 -41.26171875 10.13891602 C-36.46948272 7.6635026 -31.74169877 5.12123638 -27.078125 2.41015625 C-26.1720752 1.88881104 -25.26602539 1.36746582 -24.33251953 0.83032227 C-22.6215127 -0.16097031 -20.91993469 -1.16878497 -19.22998047 -2.19555664 C-18.46572754 -2.63633545 -17.70147461 -3.07711426 -16.9140625 -3.53125 C-16.25398193 -3.92618652 -15.59390137 -4.32112305 -14.91381836 -4.72802734 C-9.80958537 -6.13277711 -4.47283918 -2.29837164 0 0 Z " fill="#FE822F" transform="translate(291.76171875,200.3203125)"/>
<path d="M0 0 C0 185.13 0 370.26 0 561 C-9.82427557 556.08786222 -19.50416003 551.18187414 -29.0625 545.8125 C-30.21226318 545.17030518 -31.36202637 544.52811035 -32.54663086 543.86645508 C-41.01736907 539.13258203 -49.46602172 534.35928582 -57.90820312 529.57470703 C-64.50140825 525.83909801 -71.11794994 522.14786706 -77.74780273 518.4777832 C-84.53545251 514.71519155 -91.27061517 510.86581682 -98 507 C-98 497.76 -98 488.52 -98 479 C-106.52653936 481.86841953 -106.52653936 481.86841953 -115.05078125 484.74365234 C-134.80561086 491.35915442 -134.80561086 491.35915442 -145.3125 486.1875 C-154.13449446 481.77105784 -163.98994789 476.01005211 -171 469 C-171.15582303 467.65984779 -171.25044142 466.31241097 -171.31640625 464.96484375 C-171.35830078 464.15595703 -171.40019531 463.34707031 -171.44335938 462.51367188 C-171.48267578 461.66353516 -171.52199219 460.81339844 -171.5625 459.9375 C-171.60568359 459.08349609 -171.64886719 458.22949219 -171.69335938 457.34960938 C-171.79976702 455.23327963 -171.90041731 453.11666187 -172 451 C-172.56920166 451.18175781 -173.13840332 451.36351562 -173.72485352 451.55078125 C-176.33424418 452.37756086 -178.94820838 453.18885711 -181.5625 454 C-182.45775391 454.28617188 -183.35300781 454.57234375 -184.27539062 454.8671875 C-192.65278465 457.4448472 -198.63290492 457.62553604 -206.6875 454.1875 C-207.33783203 453.92646484 -207.98816406 453.66542969 -208.65820312 453.39648438 C-212.13668068 451.96041566 -215.28059289 450.6192139 -218 448 C-218.49679399 445.47937471 -218.49679399 445.47937471 -218.49219131 442.39903736 C-218.50015551 441.2261267 -218.5081197 440.05321603 -218.51632524 438.84476262 C-218.49884819 436.90266889 -218.49884819 436.90266889 -218.48101807 434.92134094 C-218.48276147 433.53694045 -218.48626213 432.15254123 -218.49137473 430.76814908 C-218.50034412 426.95523189 -218.48428461 423.14276177 -218.46426249 419.32990158 C-218.44702986 415.22153134 -218.45283121 411.11318745 -218.45587158 407.00479126 C-218.45797161 399.88385836 -218.44539433 392.76307177 -218.42292023 385.64217567 C-218.39044742 375.34651014 -218.37999805 365.05091554 -218.37496826 354.75520434 C-218.36620819 338.05217617 -218.33957331 321.34922603 -218.30175781 304.64624023 C-218.26505614 288.41837963 -218.23673536 272.1905402 -218.21972656 255.96264648 C-218.21867567 254.96279114 -218.21762477 253.96293579 -218.21654204 252.93278179 C-218.21132198 247.91692996 -218.20626713 242.90107798 -218.20129442 237.88522589 C-218.15981021 196.25676298 -218.08934241 154.62838595 -218 113 C-215.15629752 111.33558044 -212.29847431 109.6970239 -209.4375 108.0625 C-208.63763672 107.59392578 -207.83777344 107.12535156 -207.01367188 106.64257812 C-200.33811541 102.8552216 -195.193599 101.13054699 -187.50390625 102.99609375 C-186.04887695 103.33930664 -186.04887695 103.33930664 -184.56445312 103.68945312 C-183.57380859 103.93630859 -182.58316406 104.18316406 -181.5625 104.4375 C-180.54478516 104.68048828 -179.52707031 104.92347656 -178.47851562 105.17382812 C-175.9827509 105.77140559 -173.49036069 106.38035672 -171 107 C-171.02320313 106.20335937 -171.04640625 105.40671875 -171.0703125 104.5859375 C-171.08835938 103.52632813 -171.10640625 102.46671875 -171.125 101.375 C-171.14820313 100.33085937 -171.17140625 99.28671875 -171.1953125 98.2109375 C-170.97834264 94.64395293 -170.57516649 92.22034039 -169 89 C-166.77060594 87.26071402 -164.82365298 85.96172825 -162.375 84.625 C-161.71491943 84.24996338 -161.05483887 83.87492676 -160.37475586 83.48852539 C-158.26183312 82.30235369 -156.13301694 81.14958488 -154 80 C-153.29278809 79.60893066 -152.58557617 79.21786133 -151.85693359 78.81494141 C-149.77010308 77.66634606 -147.67043938 76.54680999 -145.5625 75.4375 C-144.92554199 75.09090332 -144.28858398 74.74430664 -143.63232422 74.38720703 C-143.01244629 74.07251465 -142.39256836 73.75782227 -141.75390625 73.43359375 C-141.22095947 73.15572021 -140.6880127 72.87784668 -140.13891602 72.59155273 C-134.01747528 70.89856667 -128.15484825 72.19456419 -122.21875 73.96875 C-121.17031921 74.26839661 -121.17031921 74.26839661 -120.10070801 74.57409668 C-117.89748663 75.20621594 -115.6988333 75.8528017 -113.5 76.5 C-111.99507115 76.93456279 -110.48986472 77.3681655 -108.984375 77.80078125 C-105.31897414 78.85438216 -101.66012381 79.92749861 -98 81 C-98 71.1 -98 61.2 -98 51 C-94.91785156 49.36804688 -94.91785156 49.36804688 -91.7734375 47.703125 C-88.97357847 46.2194659 -86.1742131 44.73487739 -83.375 43.25 C-82.645159 42.86284821 -81.91531799 42.47569641 -81.1633606 42.07681274 C-72.22529943 37.33319838 -63.30664692 32.55914475 -54.4375 27.6875 C-46.14202496 23.13096172 -37.77388661 18.72976405 -29.3659668 14.38452148 C-22.31756303 10.72828723 -15.36696005 6.92008529 -8.49316406 2.94482422 C-3.3205163 0 -3.3205163 0 0 0 Z " fill="#B04A1B" transform="translate(280,196)"/>
<path d="M0 0 C0 113.19 0 226.38 0 343 C-4.76535224 345.04229382 -9.07879549 346.75397949 -14 348.1875 C-15.7325 348.70376953 -15.7325 348.70376953 -17.5 349.23046875 C-24.43208397 350.75459882 -29.33480057 349.89909622 -35.6875 347.1875 C-36.33783203 346.92646484 -36.98816406 346.66542969 -37.65820312 346.39648438 C-41.13668068 344.96041566 -44.28059289 343.6192139 -47 341 C-47.49679399 338.47937471 -47.49679399 338.47937471 -47.49219131 335.39903736 C-47.50015551 334.2261267 -47.5081197 333.05321603 -47.51632524 331.84476262 C-47.49884819 329.90266889 -47.49884819 329.90266889 -47.48101807 327.92134094 C-47.48276147 326.53694045 -47.48626213 325.15254123 -47.49137473 323.76814908 C-47.50034412 319.95523189 -47.48428461 316.14276177 -47.46426249 312.32990158 C-47.44702986 308.22153134 -47.45283121 304.11318745 -47.45587158 300.00479126 C-47.45797161 292.88385836 -47.44539433 285.76307177 -47.42292023 278.64217567 C-47.39044742 268.34651014 -47.37999805 258.05091554 -47.37496826 247.75520434 C-47.36620819 231.05217617 -47.33957331 214.34922603 -47.30175781 197.64624023 C-47.26505614 181.41837963 -47.23673536 165.1905402 -47.21972656 148.96264648 C-47.21867567 147.96279114 -47.21762477 146.96293579 -47.21654204 145.93278179 C-47.21132198 140.91692996 -47.20626713 135.90107798 -47.20129442 130.88522589 C-47.15981021 89.25676298 -47.08934241 47.62838595 -47 6 C-44.06482399 4.34999614 -41.12647526 2.70572568 -38.1875 1.0625 C-37.35412109 0.59392578 -36.52074219 0.12535156 -35.66210938 -0.35742188 C-34.45844727 -1.0293457 -34.45844727 -1.0293457 -33.23046875 -1.71484375 C-32.49207764 -2.12855225 -31.75368652 -2.54226074 -30.99291992 -2.96850586 C-21.89268454 -7.67859951 -8.67757004 -1.9283489 0 0 Z " fill="#FD812F" transform="translate(109,303)"/>
<path d="M0 0 C0 137.94 0 275.88 0 418 C-13.29021816 415.78496364 -28.43695953 406.56304047 -38 397 C-38.09959264 395.01964417 -38.12740109 393.03567357 -38.12863445 391.05281544 C-38.1318589 389.75173464 -38.13508335 388.45065384 -38.1384055 387.11014634 C-38.13693403 385.64730877 -38.13536629 384.18447129 -38.13371277 382.72163391 C-38.13557887 381.18237111 -38.13787876 379.64310878 -38.14057809 378.10384721 C-38.14672765 373.85349626 -38.14655881 369.60316489 -38.14538372 365.3528105 C-38.14518049 360.776662 -38.150691 356.20051993 -38.15544128 351.62437439 C-38.16376624 342.65016561 -38.16649698 333.6759634 -38.16705366 324.70175109 C-38.16752806 317.40872755 -38.16957899 310.11570619 -38.17275429 302.82268333 C-38.18156679 282.16274874 -38.18617287 261.50281934 -38.18542381 240.84288285 C-38.18538386 239.72788825 -38.1853439 238.61289365 -38.18530273 237.46411133 C-38.18524141 235.78958549 -38.18524141 235.78958549 -38.18517885 234.08123084 C-38.18477247 215.99199784 -38.19433853 197.90278566 -38.2084411 179.81355868 C-38.22279467 161.25643292 -38.22971181 142.69931732 -38.22884732 124.14218587 C-38.22851495 113.71714505 -38.23127973 103.29212605 -38.24202538 92.86709023 C-38.2511171 83.98938151 -38.25331667 75.1117045 -38.24651595 66.23399315 C-38.24324369 61.70269946 -38.24321938 57.17146663 -38.2518692 52.64017868 C-38.25970431 48.49306949 -38.25833349 44.34606973 -38.24958507 40.19896331 C-38.24804343 38.69755 -38.24989109 37.19612866 -38.25544515 35.69472484 C-38.26249058 33.65529098 -38.25602602 31.61582381 -38.24888897 29.57639027 C-38.24910634 28.44308743 -38.24932371 27.3097846 -38.24954766 26.14213926 C-37.98103652 22.76122445 -37.331459 20.11707935 -36 17 C-33.77071392 15.26079826 -31.82331974 13.96205427 -29.375 12.625 C-28.71709473 12.24996338 -28.05918945 11.87492676 -27.38134766 11.48852539 C-25.267715 10.29901464 -23.13791289 9.14524194 -21 8 C-20.27683594 7.60893066 -19.55367187 7.21786133 -18.80859375 6.81494141 C-16.67325309 5.67039499 -14.52803126 4.54836985 -12.375 3.4375 C-11.38185791 2.91760498 -11.38185791 2.91760498 -10.36865234 2.38720703 C-6.45769006 0.43222639 -4.5383578 0 0 0 Z " fill="#AF4A1B" transform="translate(147,268)"/>
<path d="M0 0 C0.33 0 0.66 0 1 0 C1 150.48 1 300.96 1 456 C0.67 456 0.34 456 0 456 C0 446.76 0 437.52 0 428 C-8.52830114 430.90838502 -8.52830114 430.90838502 -17.05078125 433.83374023 C-18.12714844 434.19669189 -19.20351562 434.55964355 -20.3125 434.93359375 C-21.94638672 435.4913147 -21.94638672 435.4913147 -23.61328125 436.06030273 C-27 437 -27 437 -35 438 C-35 300.39 -35 162.78 -35 21 C-23.75 23.25 -23.75 23.25 -18.5546875 24.7265625 C-17.56452637 25.00580566 -16.57436523 25.28504883 -15.55419922 25.57275391 C-14.34006348 25.91999512 -13.12592773 26.26723633 -11.875 26.625 C-5.996875 28.295625 -5.996875 28.295625 0 30 C0 20.1 0 10.2 0 0 Z " fill="#FD812F" transform="translate(182,247)"/>
<path d="M0 0 C0.81210937 -0.01224609 1.62421875 -0.02449219 2.4609375 -0.03710938 C3.25242187 -0.03904297 4.04390625 -0.04097656 4.859375 -0.04296875 C5.58092773 -0.04707764 6.30248047 -0.05118652 7.04589844 -0.05541992 C9.8919154 0.25824721 11.7609291 0.7296083 14.25 2.1875 C15.57275391 4.94897461 15.57275391 4.94897461 16.6015625 8.65234375 C16.89977402 9.69321388 16.89977402 9.69321388 17.20401001 10.75511169 C17.90615125 13.22734203 18.57703055 15.707177 19.25 18.1875 C19.81048106 20.18943972 20.37275343 22.19087853 20.93652344 24.19189453 C23.18524142 32.20592005 25.38587871 40.233051 27.58789062 48.26000977 C31.90516582 63.98047491 36.42963123 79.6139544 41.25 95.1875 C41.53148392 94.02683014 41.81296783 92.86616028 42.10298157 91.6703186 C44.75334636 80.74853295 47.41607936 69.82982855 50.09104633 58.91404152 C51.46597328 53.30161952 52.836474 47.68819233 54.19702148 42.07226562 C55.50944486 36.65568195 56.83328187 31.24200722 58.16518211 25.83018112 C58.67206107 23.76186564 59.17477334 21.69252457 59.6733036 19.62218094 C60.37066368 16.72920577 61.08256445 13.84018599 61.7980957 10.95166016 C62.00237686 10.08923203 62.20665802 9.22680389 62.41712952 8.33824158 C63.90784352 2.41560432 63.90784352 2.41560432 67.25 0.1875 C69.36303711 -0.07128906 69.36303711 -0.07128906 71.77734375 -0.078125 C72.65197266 -0.08070313 73.52660156 -0.08328125 74.42773438 -0.0859375 C75.79381836 -0.07433594 75.79381836 -0.07433594 77.1875 -0.0625 C78.5477832 -0.07410156 78.5477832 -0.07410156 79.93554688 -0.0859375 C80.81146484 -0.08335937 81.68738281 -0.08078125 82.58984375 -0.078125 C83.38769287 -0.07586914 84.18554199 -0.07361328 85.00756836 -0.07128906 C87.67443033 0.23648162 89.03439153 0.64441949 91.25 2.1875 C92.38072205 4.97540283 92.38072205 4.97540283 93.27709961 8.58300781 C93.52927498 9.5691935 93.52927498 9.5691935 93.7865448 10.57530212 C94.34095038 12.76010407 94.87167075 14.9499482 95.40234375 17.140625 C95.78684948 18.67724209 96.17274261 20.2135126 96.55995178 21.74945068 C97.58045851 25.81454601 98.58074901 29.88436711 99.57733154 33.9553833 C100.57437249 38.01126648 101.59219151 42.06192124 102.60742188 46.11328125 C106.68450538 62.42713812 110.63394547 78.7643484 114.25 95.1875 C116.74472084 88.84080971 118.69993505 82.43004923 120.54296875 75.8671875 C120.85042526 74.78183212 121.15788177 73.69647675 121.47465515 72.57823181 C122.46592817 69.07400913 123.45191705 65.56832689 124.4375 62.0625 C125.11533346 59.66103346 125.79323076 57.25958494 126.47119141 54.8581543 C130.45596754 40.71605272 134.37215448 26.55903328 138.07885742 12.34130859 C138.35963135 11.26574707 138.64040527 10.19018555 138.9296875 9.08203125 C139.16413574 8.17300049 139.39858398 7.26396973 139.64013672 6.32739258 C140.25 4.1875 140.25 4.1875 141.25 2.1875 C146.32342737 0.34789847 150.68949762 -0.05919854 156.125 0 C157.44242188 0.00644531 158.75984375 0.01289063 160.1171875 0.01953125 C163.25 0.1875 163.25 0.1875 164.25 1.1875 C164.64437074 7.94493881 163.67989561 13.22489778 161.5390625 19.6015625 C161.25556946 20.48101028 160.97207642 21.36045807 160.67999268 22.26655579 C159.75723983 25.11935147 158.81629251 27.96577383 157.875 30.8125 C157.22679217 32.80501852 156.5798309 34.79794297 155.93408203 36.79125977 C154.64445748 40.7659168 153.34801152 44.73823349 152.04492188 48.70849609 C150.10433219 54.62356764 148.19749316 60.54904101 146.296875 66.47705078 C145.12781022 70.11625202 143.94736167 73.75161512 142.765625 77.38671875 C141.12301974 82.45186056 139.5123999 87.5257138 137.9234314 92.60792542 C136.84684507 96.04523247 135.75949186 99.47908814 134.67095947 102.91262817 C134.14463318 104.58219363 133.62318416 106.25330527 133.10687256 107.92599487 C132.38845416 110.2516949 131.65316924 112.5714311 130.9140625 114.890625 C130.70400574 115.58593826 130.49394897 116.28125153 130.27752686 116.99763489 C129.00739091 120.91497339 127.89393562 123.15466369 124.25 125.1875 C120.69894476 126.50864528 117.06799683 126.35496 113.3125 126.375 C111.50458984 126.39626953 111.50458984 126.39626953 109.66015625 126.41796875 C106.22785927 126.18600366 104.23944545 125.84917837 101.25 124.1875 C100.09106445 121.75805664 100.09106445 121.75805664 99.30078125 118.53515625 C98.97932129 117.26945801 98.65786133 116.00375977 98.32666016 114.69970703 C98.15620178 113.98486145 97.98574341 113.27001587 97.81011963 112.5335083 C97.20243159 109.9882642 96.56653414 107.45106041 95.92724609 104.91357422 C94.40113837 98.82450144 92.91832728 92.72521416 91.4375 86.625 C90.90408598 84.43582463 90.37047468 82.24669732 89.83666992 80.05761719 C88.53813013 74.7290213 87.24301664 69.39960107 85.94958496 64.06976318 C85.30980283 61.43388538 84.66925533 58.79819532 84.02832031 56.16259766 C83.03764223 52.08806482 82.04935969 48.01295945 81.0625 43.9375 C80.6442395 42.21164673 80.6442395 42.21164673 80.2175293 40.45092773 C79.96656494 39.41009033 79.71560059 38.36925293 79.45703125 37.296875 C79.2453833 36.41999023 79.03373535 35.54310547 78.81567383 34.63964844 C78.24453105 32.16379257 77.74347348 29.67984008 77.25 27.1875 C77.08718536 28.04856857 76.92437073 28.90963715 76.75662231 29.79679871 C74.70260562 40.38415901 72.214863 50.83519629 69.6171875 61.30078125 C69.17524486 63.09053686 68.73352748 64.88034811 68.29202271 66.67021179 C67.37467634 70.38605099 66.45506426 74.10131932 65.53369141 77.81616211 C64.35173414 82.58218506 63.17494544 87.34946647 61.99972343 92.11715412 C61.09219955 95.79691314 60.18233039 99.47608898 59.27170181 103.1550808 C58.83645758 104.91444011 58.40187115 106.67396229 57.96795273 108.43364906 C57.36492785 110.87733307 56.75883165 113.32023435 56.15185547 115.76293945 C55.97314911 116.48959305 55.79444275 117.21624664 55.61032104 117.96492004 C54.36436145 122.9587771 54.36436145 122.9587771 53.25 125.1875 C49.60956737 126.40097754 46.22944814 126.4099972 42.4375 126.4375 C41.73818359 126.458125 41.03886719 126.47875 40.31835938 126.5 C35.48926022 126.53613919 32.1062106 126.15804739 28.25 123.1875 C24.55896992 115.98714458 22.42634338 107.84408081 19.9765625 100.16015625 C19.36225076 98.24939629 18.74793843 96.33863651 18.13360023 94.42788506 C17.26642953 91.72758126 16.40259014 89.0262164 15.53874207 86.32484818 C13.75191082 80.73923933 11.95945041 75.15543181 10.167099 69.57159233 C9.71675188 68.16843208 9.26656702 66.76521974 8.81654358 65.36195564 C5.86274145 56.15321195 2.86859802 46.95925853 -0.1796875 37.78125 C-0.83810837 35.79160348 -1.49647624 33.80193942 -2.15478516 31.81225586 C-3.06665609 29.0574931 -3.98177923 26.30407282 -4.90838623 23.55422974 C-5.74481327 21.07160104 -6.56888259 18.58517643 -7.390625 16.09765625 C-7.63336151 15.3900415 -7.87609802 14.68242676 -8.12619019 13.95336914 C-9.55552455 9.57886263 -10.06437265 5.78136178 -9.75 1.1875 C-7.61439512 -0.94810488 -2.95203348 0.00229909 0 0 Z " fill="#1B2C40" transform="translate(676.75,282.8125)"/>
<path d="M0 0 C1.55473022 -0.02078613 1.55473022 -0.02078613 3.14086914 -0.04199219 C12.89469436 0.01665887 22.10778533 1.76093629 30.8125 6.3125 C32.23369141 7.03759766 32.23369141 7.03759766 33.68359375 7.77734375 C43.68818409 13.71620797 47.55624399 21.63577466 50.55664062 32.58868408 C51.82337491 38.44950308 51.90165506 44.11053676 51.84375 50.0859375 C51.85079956 51.33774811 51.85784912 52.58955872 51.8651123 53.87930298 C51.89425227 59.16281424 51.87804014 64.44594167 51.86572266 69.72949219 C51.40993095 92.82113071 51.40993095 92.82113071 58.0144043 114.6484375 C59.375 117.375 59.375 117.375 59.30078125 119.5234375 C58.09606181 121.93287637 56.62001484 123.2669541 54.5625 125 C53.87542969 125.59039062 53.18835938 126.18078125 52.48046875 126.7890625 C48.43888556 129.83337192 45.49694983 131.00217753 40.375 130.375 C36.04232521 127.56279804 34.38195679 124.90757214 32.5625 120.125 C32.14355469 119.04734375 31.72460938 117.9696875 31.29296875 116.859375 C30.99003906 116.03953125 30.68710937 115.2196875 30.375 114.375 C29.488125 115.179375 28.60125 115.98375 27.6875 116.8125 C14.43332439 128.0852433 1.20303907 135.37716788 -16.625 134.375 C-27.72087886 133.16892621 -37.97048214 128.36996215 -45.05859375 119.6015625 C-51.93280398 109.60642003 -53.12816285 97.34387165 -51.15625 85.578125 C-48.17543453 74.1516657 -41.14494753 66.91907338 -31.24609375 60.9375 C-16.14907511 52.7952877 -0.36815111 53.07801967 15.97265625 56.328125 C19.90655353 57.53855493 22.87945113 59.21978261 26.375 61.375 C26.49228126 57.70860752 26.56260891 54.0427048 26.625 50.375 C26.65851563 49.34503906 26.69203125 48.31507813 26.7265625 47.25390625 C26.80957306 40.73757754 26.21667836 35.77209361 22.375 30.375 C16.36612377 24.36612377 9.76514741 21.82636869 1.375 21.375 C-0.24921875 21.27832031 -0.24921875 21.27832031 -1.90625 21.1796875 C-14.11397423 20.79499031 -26.03112662 22.8328064 -36.828125 28.8359375 C-38.625 29.375 -38.625 29.375 -40.796875 28.6015625 C-42.625 27.375 -42.625 27.375 -43.625 25.375 C-43.69616382 23.00097499 -43.70909085 20.62499323 -43.6875 18.25 C-43.67847656 16.96867187 -43.66945313 15.68734375 -43.66015625 14.3671875 C-43.64855469 13.37976563 -43.63695312 12.39234375 -43.625 11.375 C-29.84900421 2.98961126 -15.97999356 0.12741523 0 0 Z " fill="#1B2B3F" transform="translate(602.625,278.625)"/>
<path d="M0 0 C4.6592623 1.35924344 8.34066841 3.28902307 12.4375 5.875 C22.64488156 12.16559561 33.30426855 17.59539554 44 23 C44.76070801 23.38575195 45.52141602 23.77150391 46.30517578 24.16894531 C74.64683573 38.40880508 105.82795794 48.00332977 137.01171875 53.47363281 C139.99166651 53.99853211 142.96419364 54.55602 145.9375 55.1171875 C182.13217663 61.77316537 221.57931093 62.80435233 258.13623047 58.34619141 C261.32847153 57.96029219 264.52478559 57.62890032 267.72265625 57.29296875 C295.63408525 54.16109284 322.94657593 47.72350886 349.5625 38.8125 C350.6647995 38.44378784 350.6647995 38.44378784 351.78936768 38.06762695 C360.40749591 35.15915767 368.77635166 31.92224486 377.05761719 28.15698242 C381.0729119 26.57811737 383.75302827 26.35894766 388 27 C388.99 27.66 389.98 28.32 391 29 C391.52943949 32.40353958 391.41041954 34.30889124 389.640625 37.2890625 C385.7335874 41.30013365 381.15354639 43.79948258 376.3125 46.5625 C375.2488623 47.17383789 374.18522461 47.78517578 373.08935547 48.41503906 C297.36388679 91.32798991 209.41865688 102.07325809 125.48291016 79.00048828 C85.26956443 67.4489468 28.36560769 45.92915972 0 13 C-0.94738023 10.15785932 -1.13460559 8.32391609 -1.125 5.375 C-1.12757813 4.57835937 -1.13015625 3.78171875 -1.1328125 2.9609375 C-1 1 -1 1 0 0 Z " fill="#FD9B2A" transform="translate(535,439)"/>
<path d="M0 0 C35.31 0 70.62 0 107 0 C107 7.59 107 15.18 107 23 C80.93 23 54.86 23 28 23 C28 35.54 28 48.08 28 61 C52.09 61 76.18 61 101 61 C101 68.26 101 75.52 101 83 C76.91 83 52.82 83 28 83 C28 95.87 28 108.74 28 122 C54.4 122 80.8 122 108 122 C108 129.92 108 137.84 108 146 C98.79114897 146.02297353 89.58231824 146.04115173 80.37344456 146.05181217 C76.09327152 146.05693931 71.81311977 146.06384095 67.53295898 146.07543945 C63.37017052 146.08664385 59.20740195 146.0923523 55.04459953 146.09487724 C53.48932521 146.09666643 51.93405143 146.10014951 50.37878609 146.10573006 C33.56332471 146.16343058 16.82547087 145.50986275 0 145 C0 97.15 0 49.3 0 0 Z " fill="#1A2B3F" transform="translate(563,574)"/>
<path d="M0 0 C0.64839844 0.43699219 1.29679688 0.87398437 1.96484375 1.32421875 C11.31800896 8.38681289 18.1798835 20.84543206 21 32 C21.33 35.63 21.66 39.26 22 43 C12.76 43 3.52 43 -6 43 C-7.051875 39.7825 -7.051875 39.7825 -8.125 36.5 C-11.36913166 27.14138776 -16.3162797 19.52078531 -25.26171875 14.80859375 C-34.80216799 10.71575529 -45.95496833 10.38842511 -55.875 13.4375 C-65.92686546 17.79934552 -72.27846602 25.34108399 -76.59375 35.26953125 C-83.53881507 53.69324553 -83.36239533 77.62556631 -75.22265625 95.79296875 C-70.04734331 105.13498731 -63.63243911 111.11862178 -53.49707031 114.37597656 C-49.35067023 115.41217119 -45.31878129 115.48820409 -41.0625 115.4375 C-40.18585693 115.43137695 -39.30921387 115.42525391 -38.40600586 115.41894531 C-31.95881429 115.26302774 -26.58970725 114.40864877 -21 111 C-20.0925 110.46375 -19.185 109.9275 -18.25 109.375 C-11.64758058 102.40577951 -8.33898448 94.37289139 -7 85 C2.57 85 12.14 85 22 85 C20.14656991 101.6808708 13.63059645 115.15548115 0.58203125 126.01171875 C-16.37709214 138.44121936 -35.41423549 140.72627345 -55.828125 138.6015625 C-72.170679 135.72855643 -88.1076239 126.3649885 -98 113 C-103.06251607 105.45438936 -106.71834652 97.80220822 -109 89 C-109.17660156 88.3198584 -109.35320313 87.6397168 -109.53515625 86.93896484 C-111.30544793 79.29667889 -111.40030016 71.68911797 -111.375 63.875 C-111.3737915 63.18646942 -111.37258301 62.49793884 -111.37133789 61.7885437 C-111.27570529 41.73164602 -106.68754216 22.81126946 -92.19921875 8.1015625 C-91.47347656 7.40804687 -90.74773438 6.71453125 -90 6 C-89.08154297 5.05253906 -89.08154297 5.05253906 -88.14453125 4.0859375 C-65.51568664 -17.81917008 -24.80153474 -17.63576226 0 0 Z " fill="#1B2C40" transform="translate(797,583)"/>
<path d="M0 0 C0.8146875 0.350625 1.629375 0.70125 2.46875 1.0625 C12.23493743 5.87870202 19.15088082 13.89026529 23 24 C26.92792183 35.700488 26.3217232 48.85420804 21 60 C12.56996585 75.83565908 -1.32557009 84.6195253 -15.61157227 94.64257812 C-25.96629498 101.9109847 -35.50985433 109.56431496 -45 118 C-21.24 118.33 2.52 118.66 27 119 C27 126.92 27 134.84 27 143 C-7.98 143 -42.96 143 -79 143 C-79 125.1651192 -73.47060719 111.54248868 -60.9140625 98.8203125 C-52.06417635 90.15784948 -42.25927263 83.37100495 -32.0222168 76.47314453 C-13.50878534 64.28106445 -13.50878534 64.28106445 -4 45 C-3.10748542 38.0141451 -3.9934146 31.90505464 -8 26 C-13.75620421 20.51852372 -19.25835274 19.64465456 -26.91796875 19.71875 C-32.48633212 20.22688962 -36.18384536 22.33519158 -40.25 26.0625 C-44.69414228 33.52231025 -46.03706718 40.3336046 -47 49 C-55.91 49 -64.82 49 -74 49 C-74 32.67956741 -70.84593112 20.24477604 -59.44140625 8.2578125 C-43.91564414 -6.1004123 -19.01693281 -8.30624651 0 0 Z " fill="#1C2D41" transform="translate(912,577)"/>
<path d="M0 0 C0 116.82 0 233.64 0 354 C-10.14684983 351.74514448 -10.14684983 351.74514448 -15.5 348.9375 C-17.03140625 348.14666016 -17.03140625 348.14666016 -18.59375 347.33984375 C-21 346 -21 346 -22 345 C-22.09744479 343.2172343 -22.12371428 341.43055974 -22.12304783 339.64513302 C-22.12503888 338.47620445 -22.12702993 337.30727589 -22.12908131 336.10292524 C-22.12616847 334.8023704 -22.12325563 333.50181557 -22.12025452 332.16184998 C-22.1206901 330.7791786 -22.12156476 329.3965073 -22.12284368 328.01383644 C-22.12509124 324.19655812 -22.12106382 320.37930759 -22.11606562 316.56203282 C-22.11176502 312.4522642 -22.11320727 308.34249728 -22.1139679 304.23272705 C-22.11449338 297.10635949 -22.11134404 289.98000105 -22.10573006 282.85363579 C-22.09761835 272.54998615 -22.09500018 262.24634095 -22.09374207 251.94268847 C-22.09155103 235.22749619 -22.08488954 218.51230878 -22.07543945 201.79711914 C-22.06626668 185.55558293 -22.05918519 169.31404804 -22.05493164 153.07250977 C-22.05466892 152.07212897 -22.05440619 151.07174818 -22.05413551 150.04105281 C-22.05283051 145.02265958 -22.0515668 140.00426635 -22.05032361 134.9858731 C-22.03994938 93.32391201 -22.02232965 51.66195629 -22 10 C-19.09114752 8.31940914 -16.17175106 6.65804891 -13.25 5 C-12.425 4.52304687 -11.6 4.04609375 -10.75 3.5546875 C-9.95078125 3.10351562 -9.1515625 2.65234375 -8.328125 2.1875 C-7.5949707 1.76855469 -6.86181641 1.34960938 -6.10644531 0.91796875 C-4 0 -4 0 0 0 Z " fill="#AE4819" transform="translate(84,299)"/>
<path d="M0 0 C3.16324791 2.2713019 4.22006777 3.73977975 5.08300781 7.54760742 C5.10621094 8.78897461 5.12941406 10.0303418 5.15332031 11.30932617 C5.19199219 12.56358398 5.23066406 13.8178418 5.27050781 15.11010742 C5.274375 16.5390332 5.274375 16.5390332 5.27832031 17.99682617 C1.11270236 20.7739048 -2.01613645 19.88104783 -6.72167969 18.99682617 C-8.72192767 18.49928211 -10.72199609 18.00088821 -12.71875 17.48950195 C-24.97770555 14.382406 -37.11592299 12.64226573 -48.72167969 18.99682617 C-52.21667115 22.49181763 -53.62426628 24.82786523 -54.03417969 29.74682617 C-53.93673863 34.23723502 -52.80282782 36.61507822 -49.72167969 39.99682617 C-41.74235586 45.5039212 -32.29567254 48.10339449 -23.20214844 51.15893555 C-8.99493909 56.05664344 2.30213295 61.20811566 9.27832031 74.99682617 C12.95996901 84.26958882 12.36265434 94.39794382 8.54003906 103.53198242 C2.83384493 114.67937714 -6.28311458 121.71957455 -18.01318359 125.79248047 C-25.57944432 128.12103976 -32.71660534 128.48148657 -40.59667969 128.43432617 C-41.77359375 128.45430664 -42.95050781 128.47428711 -44.16308594 128.49487305 C-54.87197146 128.48898257 -64.75546391 126.19033943 -74.03417969 120.74682617 C-74.9378125 120.22604492 -75.84144531 119.70526367 -76.77246094 119.16870117 C-77.41570313 118.78198242 -78.05894531 118.39526367 -78.72167969 117.99682617 C-78.80328717 116.10171918 -78.86114428 114.20558113 -78.90917969 112.30932617 C-78.94398438 111.25358398 -78.97878906 110.1978418 -79.01464844 109.11010742 C-78.68834584 105.64259849 -77.71198094 103.8125017 -75.72167969 100.99682617 C-75.13902344 101.17858398 -74.55636719 101.3603418 -73.95605469 101.54760742 C-57.05696144 106.72893318 -39.99764493 111.31920502 -22.72167969 104.99682617 C-21.37142578 104.01979385 -20.03400581 103.02423939 -18.72167969 101.99682617 C-18.06167969 101.99682617 -17.40167969 101.99682617 -16.72167969 101.99682617 C-16.41230469 101.21307617 -16.10292969 100.42932617 -15.78417969 99.62182617 C-14.72167969 96.99682617 -14.72167969 96.99682617 -13.72167969 94.99682617 C-13.34347847 90.45841158 -13.27421726 87.94768383 -15.22167969 83.80932617 C-22.43840968 75.69050493 -33.02659671 73.24359442 -43.01660156 69.92260742 C-55.83089128 65.53272024 -69.48333455 60.42842996 -76.09667969 47.80932617 C-80.36914499 38.68854155 -80.13471107 26.59130303 -76.74511719 17.19995117 C-71.96112121 6.90157815 -63.25722696 1.52753756 -52.84667969 -2.37817383 C-37.86890371 -7.51979842 -14.10091684 -8.21620353 0 0 Z " fill="#1B2B3F" transform="translate(934.7216796875,284.003173828125)"/>
<path d="M0 0 C1.89238455 3.13466421 1.63369649 6.47303014 1.5859375 10.02734375 C1.57691406 10.8270459 1.56789063 11.62674805 1.55859375 12.45068359 C0.99773761 32.25591591 -6.57907949 49.31155014 -19.8515625 63.90234375 C-20.69976563 64.85753906 -21.54796875 65.81273437 -22.421875 66.796875 C-24.54901724 69.18074131 -26.69155069 71.54828833 -28.8515625 73.90234375 C-32.7265625 73.02734375 -32.7265625 73.02734375 -33.8515625 71.90234375 C-33.49872611 65.72092164 -31.9122916 61.29468325 -29.1015625 55.83984375 C-22.56409324 42.46628371 -19.06716421 29.72542729 -17.8515625 14.90234375 C-24.52916487 13.65154661 -31.07522606 13.66923182 -37.8515625 13.65234375 C-38.51142151 13.65000732 -39.17128052 13.6476709 -39.85113525 13.64526367 C-52.03440286 13.62903849 -63.84947114 14.80634443 -75.8515625 16.90234375 C-76.5390625 14.58984375 -76.5390625 14.58984375 -76.8515625 11.90234375 C-74.66333758 8.33667048 -70.24951038 7.05497321 -66.5390625 5.46484375 C-65.82991699 5.15844971 -65.12077148 4.85205566 -64.39013672 4.53637695 C-57.68258951 1.71029761 -50.92269262 -0.35180651 -43.8515625 -2.09765625 C-43.03945313 -2.32324219 -42.22734375 -2.54882812 -41.390625 -2.78125 C-29.51802064 -5.71901046 -10.80017312 -6.40263428 0 0 Z " fill="#FD9A29" transform="translate(959.8515625,440.09765625)"/>
<path d="M0 0 C0.99 0.66 1.98 1.32 3 2 C4.09894748 8.88251082 4.83004671 16.69099468 1.37109375 22.9453125 C-0.94035225 25.31878299 -3.25516061 27.14634223 -6 29 C-6.92425781 29.66515625 -7.84851563 30.3303125 -8.80078125 31.015625 C-17.91003864 37.21445575 -26.0103658 39.08673762 -37 38 C-42.97348977 36.31786528 -46.49229754 32.99581865 -50 28 C-51.86976392 22.39070825 -52.05472398 15.44744068 -50.31640625 9.765625 C-46.85374505 3.27133926 -40.9738775 -0.77008323 -34.23046875 -3.26953125 C-22.91683062 -5.82775414 -10.50103043 -4.99528184 0 0 Z " fill="#FBFBFC" transform="translate(627,355)"/>
<path d="M0 0 C23.76 0 47.52 0 72 0 C72 7.92 72 15.84 72 24 C37.68 23.67 3.36 23.34 -32 23 C-32 22.67 -32 22.34 -32 22 C1.66 22 35.32 22 70 22 C70 15.4 70 8.8 70 2 C46.57 2 23.14 2 -1 2 C-0.67 1.34 -0.34 0.68 0 0 Z " fill="#071025" transform="translate(867,696)"/>
<path d="M0 0 C1.50755241 4.52265724 -0.4542159 7.79944116 -1.9921875 12.1875 C-3.41096552 17.12521703 -3.41096552 17.12521703 -4 27 C3.92 27 11.84 27 20 27 C20.33 27.66 20.66 28.32 21 29 C12.09 29 3.18 29 -6 29 C-6 18.3497167 -5.40494858 9.26562613 0 0 Z " fill="#091223" transform="translate(844,597)"/>
<path d="M0 0 C3.37673368 2.60929421 4.22038327 5.96910342 5 10 C5.21902779 12.98652821 5.19166765 15.94514826 5.125 18.9375 C5.11597656 19.71673828 5.10695313 20.49597656 5.09765625 21.29882812 C5.07433691 23.19935447 5.03847586 25.09972008 5 27 C4.01 27.33 3.02 27.66 2 28 C2.01047363 27.43603516 2.02094727 26.87207031 2.03173828 26.29101562 C2.07374478 23.69405719 2.09946602 21.09717061 2.125 18.5 C2.14175781 17.613125 2.15851562 16.72625 2.17578125 15.8125 C2.2172205 10.17676212 1.60441286 5.40699768 0 0 Z " fill="#182434" transform="translate(932,598)"/>
<path d="M0 0 C0.33 0.66 0.66 1.32 1 2 C-0.41289858 5.28919155 -2.03691888 8.44657309 -3.65234375 11.640625 C-5.03771134 15.09400507 -5.34525717 17.324339 -5 21 C-4.67 21.66 -4.34 22.32 -4 23 C-5.32 22.34 -6.64 21.68 -8 21 C-7.84044882 12.86289005 -4.01166953 6.87116243 0 0 Z " fill="#FC8A14" transform="translate(934,491)"/>
<path d="M0 0 C0.33 0 0.66 0 1 0 C1.33 3.63 1.66 7.26 2 11 C-2.6889493 10.44380331 -6.19924267 9.11817327 -10.375 6.9375 C-11.43460938 6.38964844 -12.49421875 5.84179688 -13.5859375 5.27734375 C-14.38257813 4.85582031 -15.17921875 4.43429687 -16 4 C-15.34 3.67 -14.68 3.34 -14 3 C-11.56442428 3.90823027 -9.23804483 4.86828071 -6.875 5.9375 C-6.21628906 6.22818359 -5.55757812 6.51886719 -4.87890625 6.81835938 C-3.24950495 7.53860198 -1.62433868 8.26841143 0 9 C0 6.03 0 3.06 0 0 Z " fill="#A23512" transform="translate(145,675)"/>
<path d="M0 0 C1.45350668 3.87601781 1.12977046 8.07001276 0 12 C-1.546875 13.74609375 -1.546875 13.74609375 -3 15 C-2.22095672 4.44191344 -2.22095672 4.44191344 0 0 Z " fill="#121928" transform="translate(729,336)"/>
<path d="M0 0 C1.45742463 -0.08096803 2.91612807 -0.13917774 4.375 -0.1875 C5.18710937 -0.22230469 5.99921875 -0.25710938 6.8359375 -0.29296875 C7.55007813 -0.19628906 8.26421875 -0.09960938 9 0 C11.1519437 3.22791555 11.20086443 4.28400809 11 8 C9 5 9 5 9 3 C8.01 3 7.02 3 6 3 C6 2.34 6 1.68 6 1 C4.02 1 2.04 1 0 1 C0 0.67 0 0.34 0 0 Z " fill="#0F1625" transform="translate(681,284)"/>
<path d="M0 0 C0.66 0.33 1.32 0.66 2 1 C2.1875 4.375 2.1875 4.375 2 8 C1.01 8.66 0.02 9.32 -1 10 C-1.02689216 8.52093108 -1.04634621 7.04172517 -1.0625 5.5625 C-1.07410156 4.73878906 -1.08570313 3.91507812 -1.09765625 3.06640625 C-1 1 -1 1 0 0 Z " fill="#EDEEEF" transform="translate(557,289)"/>
</svg>
