<?xml version="1.0" encoding="UTF-8"?>
<svg version="1.1" xmlns="http://www.w3.org/2000/svg" width="200" height="200">
<path d="M0 0 C66 0 132 0 200 0 C200 66 200 132 200 200 C134 200 68 200 0 200 C0 134 0 68 0 0 Z " fill="#D72B6C" transform="translate(0,0)"/>
<path d="M0 0 C3.96238477 3.5095408 5.84208173 7.82181311 6.6875 13 C6.20456404 15.83724876 5.58683174 17.16346602 4.125 19.5625 C1.94246945 22.56185068 1.94246945 22.56185068 2.44921875 24.76171875 C2.69285156 25.47972656 2.93648437 26.19773437 3.1875 26.9375 C3.41179687 27.92105469 3.63609375 28.90460937 3.8671875 29.91796875 C5.32367207 33.82572636 6.54814425 36.79269899 10.1875 38.9375 C15.94714205 40.0614268 21.74239482 39.94526405 27.58740234 39.75268555 C28.75867676 39.71957275 29.92995117 39.68645996 31.13671875 39.65234375 C32.20237061 39.59167725 33.26802246 39.53101074 34.3659668 39.46850586 C37.1875 39.9375 37.1875 39.9375 39.375 42.14868164 C39.973125 43.0689917 40.57125 43.98930176 41.1875 44.9375 C41.70610596 45.73478516 42.22471191 46.53207031 42.7590332 47.35351562 C44.35460577 50.03957607 45.9329633 52.73468699 47.5 55.4375 C48.06267578 56.37464844 48.62535156 57.31179687 49.20507812 58.27734375 C49.73166016 59.18613281 50.25824219 60.09492187 50.80078125 61.03125 C51.52454956 62.26391602 51.52454956 62.26391602 52.26293945 63.52148438 C53.40673837 66.51040281 53.15976176 67.91611565 52.1875 70.9375 C51.15600586 73.09399414 51.15600586 73.09399414 49.90234375 75.22265625 C49.23041992 76.38958008 49.23041992 76.38958008 48.54492188 77.58007812 C47.59560157 79.19797065 46.64507339 80.81515502 45.69335938 82.43164062 C45.24669922 83.20830078 44.80003906 83.98496094 44.33984375 84.78515625 C43.92726318 85.48648682 43.51468262 86.18781738 43.08959961 86.91040039 C41.91644838 89.17678345 41.91644838 89.17678345 42.1875 92.9375 C43.4559956 95.3895473 44.7534132 97.7127294 46.1875 100.0625 C50.1875 106.69763514 50.1875 106.69763514 50.1875 108.9375 C50.91195312 108.89109375 51.63640625 108.8446875 52.3828125 108.796875 C58.52621035 108.56752148 62.46165257 108.55744629 67.1875 112.9375 C70.44983998 116.71494629 71.92001172 119.75815157 71.63671875 124.84765625 C70.51031197 130.08789648 67.68547734 133.87227167 63.375 136.9375 C57.9426865 138.64175522 54.06230875 138.91095839 48.9375 136.25 C42.4351139 130.78208441 42.4351139 130.78208441 41.83984375 126.34765625 C41.67030327 120.85601885 42.06604546 117.55182411 45.1875 112.9375 C44.50799702 106.68499832 41.74239293 101.23754864 37.1875 96.9375 C32.11106044 95.51764154 27.15796155 95.70468565 21.9375 95.9375 C19.22369906 96.00151072 16.5114755 96.03316738 13.796875 96.0625 C12.60030273 96.10632813 11.40373047 96.15015625 10.17089844 96.1953125 C7.1875 95.9375 7.1875 95.9375 5.47265625 94.74926758 C2.49510612 90.5516233 -0.00349822 86.08536762 -2.5625 81.625 C-3.17738281 80.59181641 -3.79226562 79.55863281 -4.42578125 78.49414062 C-5.00199219 77.48931641 -5.57820313 76.48449219 -6.171875 75.44921875 C-6.70264648 74.53615967 -7.23341797 73.62310059 -7.78027344 72.68237305 C-9.0715602 69.24861309 -8.8054141 67.44518055 -7.8125 63.9375 C-6.56567383 61.42382812 -6.56567383 61.42382812 -5.01953125 58.96875 C-4.47232422 58.06769531 -3.92511719 57.16664062 -3.36132812 56.23828125 C-2.20051071 54.36582661 -1.03116858 52.49863093 0.14648438 50.63671875 C3.46851337 45.45781806 3.46851337 45.45781806 3.71484375 39.546875 C3.21082031 38.68578125 2.70679687 37.8246875 2.1875 36.9375 C1.76210937 36.18984375 1.33671875 35.4421875 0.8984375 34.671875 C0.45757812 34.01703125 0.01671875 33.3621875 -0.4375 32.6875 C-2.8125 29.14559249 -2.8125 29.14559249 -2.8125 26.9375 C-3.60914062 26.99550781 -4.40578125 27.05351563 -5.2265625 27.11328125 C-14.96306278 27.52785243 -14.96306278 27.52785243 -18.4375 24.6875 C-22.57160377 19.900643 -23.2034647 16.56229739 -23.06640625 10.33984375 C-22.53796657 5.33999143 -19.53491914 2.09591624 -15.8125 -1.0625 C-10.56621964 -2.83339632 -5.08824439 -1.92222566 0 0 Z " fill="#F8EBF3" transform="translate(77.8125,32.0625)"/>
<path d="M0 0 C1.16724609 -0.04382813 2.33449219 -0.08765625 3.53710938 -0.1328125 C11.85491744 -0.11385453 11.85491744 -0.11385453 15.09448242 2.87426758 C16.64852086 5.18393273 17.87777889 7.48368934 19.0625 10 C19.70058594 11.01449219 20.33867188 12.02898437 20.99609375 13.07421875 C21.49238281 13.93660156 21.98867187 14.79898438 22.5 15.6875 C23.01433594 16.55761719 23.52867188 17.42773438 24.05859375 18.32421875 C26.11604138 23.80807723 23.58140719 29.14307019 21.38525391 34.29125977 C18.65611428 39.88647182 16.1354844 44.68000755 10.20361328 47.22802734 C2.43311878 49.13122339 -5.53603035 49.27293904 -12.9375 46 C-19.1220144 40.63249123 -24.21570978 32.04489019 -25.9375 24 C-25.12915039 21.33422852 -25.12915039 21.33422852 -23.9375 19 C-23.49792969 18.12601563 -23.05835937 17.25203125 -22.60546875 16.3515625 C-21.87263672 15.00191406 -21.87263672 15.00191406 -21.125 13.625 C-20.64417969 12.73039062 -20.16335937 11.83578125 -19.66796875 10.9140625 C-19.09691406 9.95242187 -18.52585937 8.99078125 -17.9375 8 C-17.65398682 7.38092773 -17.37047363 6.76185547 -17.07836914 6.12402344 C-13.30536696 -0.8736677 -7.25293121 -0.11176779 0 0 Z " fill="#D82E6D" transform="translate(99.9375,77)"/>
<path d="M0 0 C1.65 0.33 3.3 0.66 5 1 C4.34795298 4.40502574 3.02096361 6.86843654 1.20703125 9.80859375 C0.3862207 11.17661133 0.3862207 11.17661133 -0.45117188 12.57226562 C-1.61015702 14.48478668 -2.77948736 16.39107612 -3.95898438 18.29101562 C-4.50232422 19.20431641 -5.04566406 20.11761719 -5.60546875 21.05859375 C-6.11231201 21.88673584 -6.61915527 22.71487793 -7.14135742 23.56811523 C-8.27314032 26.02225322 -8.27314032 26.02225322 -7.23022461 28.65966797 C-5.56692017 31.82387443 -3.82025591 34.92181426 -2.0234375 38.01171875 C-1 40 -1 40 -1 42 C-0.01 41.505 -0.01 41.505 1 41 C6.0111158 40.45021931 9.89696493 40.43845487 14.4375 42.75 C19.02238238 46.77575038 20.61161924 49.52389173 21.14453125 55.6171875 C20.93924589 59.00162177 19.70798003 61.38434164 18.0078125 64.2734375 C16.83967442 66.13907928 16.83967442 66.13907928 16 69 C17.65 72.3 19.3 75.6 21 79 C35.85 79.495 35.85 79.495 51 80 C51 81.65 51 83.3 51 85 C40.11 85 29.22 85 18 85 C15.36 80.38 12.72 75.76 10 71 C5.28315714 69.16166274 5.28315714 69.16166274 2.296875 69.140625 C-1.63166358 68.90010223 -3.58040505 67.44290579 -6.25 64.625 C-9.15008514 60.02368381 -8.64722941 54.21546487 -8 49 C-7.34 48.01 -6.68 47.02 -6 46 C-6.40502366 41.16048655 -9.97420195 37.05065207 -12.50390625 33.0703125 C-14.19736236 29.59496914 -14.32719992 27.82010362 -14 24 C-12.82250977 21.33105469 -12.82250977 21.33105469 -11.19140625 18.671875 C-10.60939453 17.70765625 -10.02738281 16.7434375 -9.42773438 15.75 C-8.81220703 14.76 -8.19667969 13.77 -7.5625 12.75 C-6.35537371 10.76568281 -5.14833785 8.78131061 -3.94140625 6.796875 C-3.40201416 5.92385742 -2.86262207 5.05083984 -2.30688477 4.15136719 C-0.99413431 2.05672831 -0.99413431 2.05672831 0 0 Z " fill="#F8EEF4" transform="translate(47,73)"/>
<path d="M0 0 C10.89 0 21.78 0 33 0 C35.64 4.62 38.28 9.24 41 14 C43.475 13.814375 43.475 13.814375 46 13.625 C51.44551501 13.61797353 54.40659748 14.78783179 58.46875 18.3671875 C61.1306551 21.20564753 61.982717 23.1714585 62.01953125 27.06640625 C61.75528023 31.28728063 61.1182192 33.86847307 58.7109375 37.34765625 C57.57529348 39.10667259 57.57529348 39.10667259 57 41 C58.10019934 43.86115059 59.02103397 45.63818894 60.75 48.0625 C63.70120539 52.3893479 65.82533144 55.5753215 65 61 C63.8984375 63.1328125 63.8984375 63.1328125 62.375 65.125 C58.56891011 70.42633949 55.80440791 76.12267703 53 82 C51.35 81.67 49.7 81.34 48 81 C48.54109269 74.93976183 52.42452472 70.18975676 55.66992188 65.23828125 C58.46527761 61.05661108 58.46527761 61.05661108 58.46484375 56.26171875 C57.98144531 55.51535156 57.49804688 54.76898438 57 54 C56.57460937 53.21238281 56.14921875 52.42476562 55.7109375 51.61328125 C54.81560671 50.07132267 53.91976803 48.5296589 53.0234375 46.98828125 C52 45 52 45 52 43 C48.37 43 44.74 43 41 43 C41 42.34 41 41.68 41 41 C39.88625 40.7215625 39.88625 40.7215625 38.75 40.4375 C35.69721086 38.84172386 34.24179723 37.19363998 32.66015625 34.1328125 C31.40560479 30.07964623 31.91269735 26.04971405 33 22 C33.54664307 21.24323975 34.09328613 20.48647949 34.65649414 19.70678711 C36.29774591 17.06484214 36.29774591 17.06484214 35.52099609 14.1472168 C33.96199352 10.86976191 32.60534719 8.5487552 30 6 C24.86766191 4.48173994 19.91040437 4.63779109 14.625 4.8125 C13.20704701 4.81946504 11.78906044 4.8214668 10.37109375 4.81835938 C6.91181118 4.82153445 3.45779021 4.8923608 0 5 C0 3.35 0 1.7 0 0 Z " fill="#F9EEF4" transform="translate(102,42)"/>
<path d="M0 0 C0.66 0 1.32 0 2 0 C3.7265625 2.5546875 3.7265625 2.5546875 5.625 5.875 C6.25664063 6.96554688 6.88828125 8.05609375 7.5390625 9.1796875 C9 12 9 12 9 14 C9.72445312 13.95359375 10.44890625 13.9071875 11.1953125 13.859375 C17.33871035 13.63002148 21.27415257 13.61994629 26 18 C29.26233998 21.77744629 30.73251172 24.82065157 30.44921875 29.91015625 C29.32281197 35.15039648 26.49797734 38.93477167 22.1875 42 C16.7551865 43.70425522 12.87480875 43.97345839 7.75 41.3125 C1.2476139 35.84458441 1.2476139 35.84458441 0.65234375 31.41015625 C0.48280327 25.91851885 0.87854546 22.61432411 4 18 C3.90928476 14.55282101 2.66516753 12.40057048 0.875 9.5625 C-0.86459648 6.70906117 -1.0083653 6.11502288 -0.75 2.5625 C-0.5025 1.716875 -0.255 0.87125 0 0 Z " fill="#F8F0F6" transform="translate(119,127)"/>
<path d="M0 0 C3.96238477 3.5095408 5.84208173 7.82181311 6.6875 13 C6.20456404 15.83724876 5.58683174 17.16346602 4.125 19.5625 C2.02154416 22.57798478 2.02154416 22.57798478 2.1875 24.9375 C3.13301147 26.90555083 3.13301147 26.90555083 4.1953125 28.55859375 C7.22592635 33.48599039 7.22592635 33.48599039 6.9375 36.875 C6.69 37.555625 6.4425 38.23625 6.1875 38.9375 C5.1975 38.9375 4.2075 38.9375 3.1875 38.9375 C1.58203125 36.8203125 1.58203125 36.8203125 0 34.0625 C-0.52980469 33.15757813 -1.05960938 32.25265625 -1.60546875 31.3203125 C-2.8125 28.9375 -2.8125 28.9375 -2.8125 26.9375 C-3.60914062 26.99550781 -4.40578125 27.05351563 -5.2265625 27.11328125 C-14.96306278 27.52785243 -14.96306278 27.52785243 -18.4375 24.6875 C-22.57160377 19.900643 -23.2034647 16.56229739 -23.06640625 10.33984375 C-22.53796657 5.33999143 -19.53491914 2.09591624 -15.8125 -1.0625 C-10.56621964 -2.83339632 -5.08824439 -1.92222566 0 0 Z " fill="#FAEEF5" transform="translate(77.8125,32.0625)"/>
<path d="M0 0 C10.89 0 21.78 0 33 0 C35.64 4.62 38.28 9.24 41 14 C43.475 13.814375 43.475 13.814375 46 13.625 C51.37773993 13.63195697 54.52129064 14.71394252 58.60546875 18.19921875 C60 20 60 20 60.5 23.875 C60.335 24.90625 60.17 25.9375 60 27 C59.01 27.33 58.02 27.66 57 28 C56.566875 27.05125 56.13375 26.1025 55.6875 25.125 C54.20697799 21.79958063 54.20697799 21.79958063 51 20 C47.91189269 19.4085393 45.08434897 19.37201543 42 20 C39.16052203 22.42586422 39.16052203 22.42586422 38 26 C38.15444233 30.40160648 39.18420267 34.00524587 41 38 C40.01 38 39.02 38 38 38 C37.67 37.34 37.34 36.68 37 36 C36.01 36 35.02 36 34 36 C32.09309527 32.8120087 31.79661881 30.73904912 32.1875 27.0625 C32.26355469 26.22847656 32.33960938 25.39445312 32.41796875 24.53515625 C33 22 33 22 34.65209961 19.70019531 C36.29861917 17.06468291 36.29861917 17.06468291 35.52099609 14.1472168 C33.96199352 10.86976191 32.60534719 8.5487552 30 6 C24.86766191 4.48173994 19.91040437 4.63779109 14.625 4.8125 C13.20704701 4.81946504 11.78906044 4.8214668 10.37109375 4.81835938 C6.91181118 4.82153445 3.45779021 4.8923608 0 5 C0 3.35 0 1.7 0 0 Z " fill="#F8F0F6" transform="translate(102,42)"/>
<path d="M0 0 C0.33 1.32 0.66 2.64 1 4 C1.66 4 2.32 4 3 4 C3 2.68 3 1.36 3 0 C3.99 0 4.98 0 6 0 C6.75697404 2.46016562 6.98574939 4.21375911 6.8125 6.8125 C7.05840211 10.99283587 8.51672287 13.6777779 11 17 C13.08555036 18.90332221 13.08555036 18.90332221 15 20 C11 24 11 24 8 25 C8.01047363 25.62567871 8.02094727 26.25135742 8.03173828 26.89599609 C8.07323191 29.7222901 8.09930473 32.54852011 8.125 35.375 C8.15013672 36.85226563 8.15013672 36.85226563 8.17578125 38.359375 C8.18222656 39.30039063 8.18867188 40.24140625 8.1953125 41.2109375 C8.20578613 42.08024902 8.21625977 42.94956055 8.22705078 43.84521484 C8 46 8 46 6 48 C4.68 48 3.36 48 2 48 C-1.0745356 48.7763932 -1.0745356 48.7763932 -3 51 C-2.63393786 47.24786309 -1.89666994 44.63010277 0.125 41.5 C2.19218949 38.24751158 2.19218949 38.24751158 2.125 35.1875 C0.71391905 31.18943731 -1.42899124 27.95264641 -3.8203125 24.46484375 C-5.24422127 21.4897231 -4.95975029 20.09436733 -4 17 C-3.01 16.67 -2.02 16.34 -1 16 C0.3498008 14.21734114 0.3498008 14.21734114 1 12 C0.71202981 10.65613912 0.36784131 9.3242287 0 8 C-0.0976715 5.3268853 -0.04460312 2.67618736 0 0 Z " fill="#E03775" transform="translate(128,64)"/>
<path d="M0 0 C1.32 0.33 2.64 0.66 4 1 C3.27156064 6.22205881 0.82851061 9.8670439 -1.91796875 14.28125 C-3.24949679 16.88832782 -3.24949679 16.88832782 -2.49609375 19.30078125 C0.07664245 23.94245413 2.79109559 28.48821133 5.54296875 33.02539062 C5.98511719 33.76337891 6.42726563 34.50136719 6.8828125 35.26171875 C7.28902832 35.93162842 7.69524414 36.60153809 8.11376953 37.29174805 C9 39 9 39 9 41 C17.58 41 26.16 41 35 41 C35.33 41.99 35.66 42.98 36 44 C35 45 35 45 32.13256836 45.11352539 C30.88096924 45.10828857 29.62937012 45.10305176 28.33984375 45.09765625 C27.34314415 45.09553383 27.34314415 45.09553383 26.3263092 45.09336853 C24.19666101 45.08775518 22.06711661 45.07520054 19.9375 45.0625 C18.49674631 45.05748671 17.05599097 45.05292351 15.61523438 45.04882812 C12.07678898 45.03778145 8.53840461 45.02050792 5 45 C4.64695801 44.34926514 4.29391602 43.69853027 3.93017578 43.02807617 C2.32992013 40.08041684 0.72748599 37.13394736 -0.875 34.1875 C-1.43058594 33.16333984 -1.98617187 32.13917969 -2.55859375 31.08398438 C-3.09355469 30.10107422 -3.62851563 29.11816406 -4.1796875 28.10546875 C-4.67194824 27.19949951 -5.16420898 26.29353027 -5.67138672 25.36010742 C-6.70311696 23.52737382 -7.83336384 21.74995424 -9 20 C-8.76649517 14.74237512 -6.58699782 11.00879778 -3.9375 6.625 C-3.37192383 5.66400391 -3.37192383 5.66400391 -2.79492188 4.68359375 C-1.87160383 3.11745934 -0.93694607 1.55801966 0 0 Z " fill="#F8F1F6" transform="translate(78,82)"/>
<path d="M0 0 C0.33 0.66 0.66 1.32 1 2 C1.66 2 2.32 2 3 2 C3 3.65 3 5.3 3 7 C3.66 7.33 4.32 7.66 5 8 C5.81640625 9.99609375 5.81640625 9.99609375 6.5625 12.4375 C7.59917007 15.79152852 7.59917007 15.79152852 9 19 C8.01 19.33 7.02 19.66 6 20 C4.65021823 23.30602228 4.8857188 26.77238596 4.90234375 30.296875 C4.90556641 31.50214844 4.90878906 32.70742187 4.91210938 33.94921875 C4.92048828 35.20347656 4.92886719 36.45773438 4.9375 37.75 C4.94201172 39.01972656 4.94652344 40.28945312 4.95117188 41.59765625 C4.96295444 44.73181836 4.97940584 47.86588541 5 51 C3.35 51 1.7 51 0 51 C-0.89690912 49.44997249 -1.7668197 47.88430082 -2.625 46.3125 C-3.11226562 45.44238281 -3.59953125 44.57226562 -4.1015625 43.67578125 C-5 41 -5 41 -4.25390625 38.33984375 C-3.32832669 36.61267193 -2.33737427 34.92016548 -1.3125 33.25 C0.46565576 28.84694764 0.41424324 25.52405769 -1 21 C-2.74673583 18.09038203 -4.74474965 15.53112195 -7 13 C-6.35289063 12.5771875 -5.70578125 12.154375 -5.0390625 11.71875 C-2.06935935 9.21555194 -2.4019551 6.75158095 -2 3 C-1.34 2.01 -0.68 1.02 0 0 Z " fill="#CC2263" transform="translate(67,101)"/>
<path d="M0 0 C3.57703045 0.06275492 4.66800666 0.32312666 7.8125 2.3125 C10.39425257 6.39333471 10.72792124 9.6615958 9.75 14.375 C7.87379387 16.87660818 6.51108697 17.99445652 3.75 19.375 C-0.56147425 19.86309142 -2.54946463 19.87755798 -6.125 17.3125 C-8.69314951 13.76241097 -9.32681675 11.75355493 -9.25 7.375 C-5.27902375 0.22724274 -5.27902375 0.22724274 0 0 Z " fill="#E63D7B" transform="translate(148.25,60.625)"/>
<path d="M0 0 C3.47924392 0.8645394 4.91967516 2.61216046 6.93359375 5.48046875 C8.0596849 9.42178777 8.34807047 11.49881337 6.74609375 15.29296875 C4.02292227 18.57955502 2.22259845 19.34334059 -2.00390625 19.79296875 C-5.47186658 19.43909525 -7.2867602 18.54534867 -10.06640625 16.48046875 C-11.81106073 12.99115979 -11.63091177 9.28759898 -11.06640625 5.48046875 C-8.09658426 0.93292883 -5.26146035 -0.36800384 0 0 Z " fill="#C82261" transform="translate(55.06640625,118.51953125)"/>
<path d="M0 0 C3.60521591 2.97822184 5.79128467 5.12156206 6.3125 9.8125 C5.92835642 13.7307645 4.70743683 15.21293267 2 18 C-1.48071228 19.74035614 -5.20212738 19.57339107 -9 19 C-11.84618734 16.84800469 -12.73027585 15.31997747 -13.44140625 11.83984375 C-13.79871967 7.28599823 -13.44550322 5.53243067 -10.4375 1.9375 C-6.44270148 -0.31411371 -4.50616365 -0.81930248 0 0 Z " fill="#DB3070" transform="translate(73,35)"/>
<path d="M0 0 C3.03978021 0.68164768 4.80055419 2.23591662 6.93359375 4.43359375 C8.34360039 7.25360702 8.17907826 9.3036663 7.93359375 12.43359375 C6.65670529 15.24274836 5.62259558 16.93466139 3.12109375 18.74609375 C0.11119383 19.6920623 -1.91838661 19.8743165 -5.06640625 19.43359375 C-9.345167 16.97726813 -9.345167 16.97726813 -11.06640625 14.43359375 C-11.87562503 11.25984919 -11.82000327 8.61480864 -11.06640625 5.43359375 C-8.06278312 0.83429584 -5.28483659 -0.3296779 0 0 Z " fill="#D32B6A" transform="translate(136.06640625,145.56640625)"/>
<path d="M0 0 C2.60444348 -0.05394705 5.20776998 -0.09364469 7.8125 -0.125 C8.55048828 -0.14175781 9.28847656 -0.15851562 10.04882812 -0.17578125 C13.91246426 -0.21074628 15.70903668 -0.19397555 19 2 C20.32 1.34 21.64 0.68 23 0 C22.9071875 1.670625 22.9071875 1.670625 22.8125 3.375 C22.874375 4.57125 22.93625 5.7675 23 7 C23.99 7.66 24.98 8.32 26 9 C26.99 8.67 27.98 8.34 29 8 C30.67451765 11.66134614 31.27236525 14.5423471 31.25 18.5625 C31.25773437 19.95662109 31.25773437 19.95662109 31.265625 21.37890625 C30.99438101 24.0554462 30.36116595 25.70438282 29 28 C28.67 27.67 28.34 27.34 28 27 C27.67 27.66 27.34 28.32 27 29 C27.66 29.33 28.32 29.66 29 30 C28.67 30.66 28.34 31.32 28 32 C29.485 32.495 29.485 32.495 31 33 C30.34 33.66 29.68 34.32 29 35 C28.34 35 27.68 35 27 35 C26.01 35.66 25.02 36.32 24 37 C22 34 22 34 22.1875 32.1875 C23 30 23 30 24.625 27.3125 C26.83177854 21.99616987 25.9374997 17.39583257 23.875 12.125 C21.31122805 9.21939179 18.74850184 7.76358371 15 7 C10.88821322 7.01231074 6.71851245 7.14074377 3 9 C2.01 8.67 1.02 8.34 0 8 C-0.33 6.02 -0.66 4.04 -1 2 C-0.01 2.33 0.98 2.66 2 3 C2 2.34 2 1.68 2 1 C1.34 0.67 0.68 0.34 0 0 Z " fill="#DF3976" transform="translate(57,24)"/>
<path d="M0 0 C3.35892213 9.86683375 2 20.63356653 2 31 C1.34 31 0.68 31 0 31 C0 30.34 0 29.68 0 29 C-0.66 29 -1.32 29 -2 29 C-1.67 30.32 -1.34 31.64 -1 33 C-0.01 33 0.98 33 2 33 C2 35.64 2 38.28 2 41 C-1 40 -1 40 -2.82421875 36.83984375 C-3.45553148 35.54399131 -4.07625399 34.24293771 -4.6875 32.9375 C-5.00783203 32.27427734 -5.32816406 31.61105469 -5.65820312 30.92773438 C-6.4478598 29.28949142 -7.22512362 27.64528546 -8 26 C-7.35933594 25.1028125 -6.71867188 24.205625 -6.05859375 23.28125 C-3.43798756 19.10419269 -2.77210071 15.88230411 -3 11 C-4.53197693 6.72659066 -6.63690557 4.01518811 -10 1 C-6.52674819 -0.1577506 -3.63932552 -0.06866652 0 0 Z " fill="#E93F7D" transform="translate(166,56)"/>
<path d="M0 0 C4 1 4 1 5.703125 3.1796875 C6.21359375 4.06914063 6.7240625 4.95859375 7.25 5.875 C8.03117187 7.20144531 8.03117187 7.20144531 8.828125 8.5546875 C10 11 10 11 10 14 C8.68 14 7.36 14 6 14 C6 17.63 6 21.26 6 25 C5.34 25 4.68 25 4 25 C3.67 26.98 3.34 28.96 3 31 C2.01 30.67 1.02 30.34 0 30 C-0.05392397 27.22890693 -0.09363455 24.45886182 -0.125 21.6875 C-0.14175781 20.90181641 -0.15851562 20.11613281 -0.17578125 19.30664062 C-0.18544922 18.1706543 -0.18544922 18.1706543 -0.1953125 17.01171875 C-0.20578613 16.31522217 -0.21625977 15.61872559 -0.22705078 14.90112305 C0 13 0 13 2 10 C1.34 10 0.68 10 0 10 C0 6.7 0 3.4 0 0 Z " fill="#C5195C" transform="translate(32,105)"/>
<path d="M0 0 C3.37116564 1.12372188 3.55882121 1.47162599 5.125 4.4375 C5.45757812 5.05496094 5.79015625 5.67242187 6.1328125 6.30859375 C6.76192316 7.53564293 7.38332668 8.76665336 8 10 C24.335 10.495 24.335 10.495 41 11 C41 9.02 41 7.04 41 5 C43.4375 5.75 43.4375 5.75 46 7 C46.8125 9.125 46.8125 9.125 47 11 C46.34 11 45.68 11 45 11 C44.67 11.66 44.34 12.32 44 13 C29.66666667 13 15.33333333 13 1 13 C1 12.01 1 11.02 1 10 C0.34 10 -0.32 10 -1 10 C-1.02689216 8.52093108 -1.04634621 7.04172517 -1.0625 5.5625 C-1.07410156 4.73878906 -1.08570313 3.91507813 -1.09765625 3.06640625 C-1 1 -1 1 0 0 Z " fill="#C71E5F" transform="translate(57,147)"/>
<path d="M0 0 C3 1 3 1 4 3 C17.365 3.495 17.365 3.495 31 4 C31 4.33 31 4.66 31 5 C21.43 5 11.86 5 2 5 C2.33 6.32 2.66 7.64 3 9 C11.58 9 20.16 9 29 9 C29 9.33 29 9.66 29 10 C28.23333008 9.99887207 27.46666016 9.99774414 26.67675781 9.99658203 C23.20027685 10.00869337 19.7259939 10.06633344 16.25 10.125 C15.0434375 10.12242188 13.836875 10.11984375 12.59375 10.1171875 C6.54693642 9.98184205 6.54693642 9.98184205 1.27929688 12.39355469 C0.00182957 14.18510516 0.00182957 14.18510516 -1 17 C-1.33 16.34 -1.66 15.68 -2 15 C-2.99 14.67 -3.98 14.34 -5 14 C-4.690625 13.29875 -4.38125 12.5975 -4.0625 11.875 C-2.96697322 8.91063343 -2.43577008 6.12301892 -2 3 C-1.34 3 -0.68 3 0 3 C0 2.01 0 1.02 0 0 Z " fill="#F2CADA" transform="translate(84,68)"/>
<path d="M0 0 C4.62 0 9.24 0 14 0 C14 0.66 14 1.32 14 2 C14.66 2 15.32 2 16 2 C15.67 3.32 15.34 4.64 15 6 C16.32 6.99 17.64 7.98 19 9 C18.01 10.32 17.02 11.64 16 13 C17.98 13 19.96 13 22 13 C22 13.66 22 14.32 22 15 C22.66 15.33 23.32 15.66 24 16 C21.03 16.33 18.06 16.66 15 17 C14.50371094 16.00097656 14.00742188 15.00195312 13.49609375 13.97265625 C12.81121711 12.66857607 12.12494534 11.36522792 11.4375 10.0625 C11.11458984 9.40314453 10.79167969 8.74378906 10.45898438 8.06445312 C9.33836317 5.86044622 9.33836317 5.86044622 7 3 C3.35010985 1.94047928 3.35010985 1.94047928 0 2 C0 1.34 0 0.68 0 0 Z " fill="#E8407E" transform="translate(128,40)"/>
<path d="M0 0 C9.24 0 18.48 0 28 0 C28.66 1.65 29.32 3.3 30 5 C20.43 4.67 10.86 4.34 1 4 C0.67 2.68 0.34 1.36 0 0 Z " fill="#FBFCFE" transform="translate(86,73)"/>
<path d="M0 0 C0.99 0.33 1.98 0.66 3 1 C2.8864371 2.64666203 2.75882619 4.29236082 2.625 5.9375 C2.55539063 6.85402344 2.48578125 7.77054687 2.4140625 8.71484375 C2.27742187 9.46894531 2.14078125 10.22304687 2 11 C1.01 11.495 1.01 11.495 0 12 C0 12.99 0 13.98 0 15 C-0.78375 15.2475 -1.5675 15.495 -2.375 15.75 C-5.08037582 16.76650347 -5.08037582 16.76650347 -6.3125 18.9375 C-7.15811388 21.11199733 -7.15811388 21.11199733 -7 24 C-8.65 23.01 -10.3 22.02 -12 21 C-11.34 20.67 -10.68 20.34 -10 20 C-9.65602801 18.66937152 -9.32524328 17.33532981 -9 16 C-8.08638056 14.16455495 -7.12343368 12.3532231 -6.125 10.5625 C-5.61195313 9.63566406 -5.09890625 8.70882812 -4.5703125 7.75390625 C-3.08320335 5.14591632 -1.55619383 2.5672539 0 0 Z " fill="#E03A77" transform="translate(165,104)"/>
<path d="M0 0 C1.74506836 0.00966797 1.74506836 0.00966797 3.52539062 0.01953125 C4.74033203 0.03628906 5.95527344 0.05304688 7.20703125 0.0703125 C8.43357422 0.07933594 9.66011719 0.08835937 10.92382812 0.09765625 C13.9559242 0.12125233 16.98763063 0.15417409 20.01953125 0.1953125 C20.34953125 1.1853125 20.67953125 2.1753125 21.01953125 3.1953125 C20.01953125 4.1953125 20.01953125 4.1953125 17.24389648 4.30883789 C16.03419189 4.30360107 14.8244873 4.29836426 13.578125 4.29296875 C12.27294922 4.28974609 10.96777344 4.28652344 9.62304688 4.28320312 C8.23437435 4.27484651 6.84570248 4.26638155 5.45703125 4.2578125 C4.06445469 4.25279916 2.67187644 4.24823597 1.27929688 4.24414062 C-2.14066745 4.23230684 -5.56054719 4.2158213 -8.98046875 4.1953125 C-8.98046875 3.5353125 -8.98046875 2.8753125 -8.98046875 2.1953125 C-5.48710057 -0.13359962 -4.1203901 -0.04019893 0 0 Z " fill="#FDFBFD" transform="translate(92.98046875,122.8046875)"/>
<path d="M0 0 C2.48662146 3.72993219 1.79466113 4.76180733 1 9 C1.495 10.485 1.495 10.485 2 12 C1.0625 14.6875 1.0625 14.6875 0 17 C-0.35360596 16.5155542 -0.70721191 16.0311084 -1.0715332 15.53198242 C-3.91863934 13.27022891 -6.25669937 13.56420465 -9.85546875 13.48828125 C-10.51710526 13.47033005 -11.17874176 13.45237885 -11.86042786 13.43388367 C-13.96938747 13.37979102 -16.07812099 13.34589069 -18.1875 13.3125 C-19.61917208 13.27932573 -21.05081433 13.24483595 -22.48242188 13.20898438 C-25.9880639 13.12406743 -29.49378473 13.05725079 -33 13 C-33 12.67 -33 12.34 -33 12 C-23.76 11.67 -14.52 11.34 -5 11 C-5.33 10.34 -5.66 9.68 -6 9 C-5.29296875 7.08984375 -5.29296875 7.08984375 -4.1875 4.9375 C-3.83042969 4.22464844 -3.47335938 3.51179688 -3.10546875 2.77734375 C-2 1 -2 1 0 0 Z " fill="#F1D8E3" transform="translate(118,115)"/>
<path d="M0 0 C-1.34841519 4.46788317 -3.11498054 8.32932094 -5.4375 12.375 C-6.03433594 13.43460938 -6.63117188 14.49421875 -7.24609375 15.5859375 C-7.82488281 16.38257812 -8.40367187 17.17921875 -9 18 C-9.99 18 -10.98 18 -12 18 C-12 17.01 -12 16.02 -12 15 C-12.99 15 -13.98 15 -15 15 C-15 13.35 -15 11.7 -15 10 C-14.01 10.495 -14.01 10.495 -13 11 C-12.34 10.01 -11.68 9.02 -11 8 C-10.34 8 -9.68 8 -9 8 C-8.67 8.33 -8.34 8.66 -8 9 C-6.74335022 6.09399739 -6 4.20395416 -6 1 C-3 0 -3 0 0 0 Z " fill="#E03976" transform="translate(159,104)"/>
<path d="M0 0 C2.50298979 3.75448468 2.12834335 5.39835025 1.55859375 9.703125 C0.72621565 13.12577059 -0.82071491 15.25831876 -3 18 C-5.475 17.01 -5.475 17.01 -8 16 C-8.33 16.66 -8.66 17.32 -9 18 C-10.98 17.67 -12.96 17.34 -15 17 C-15 16.67 -15 16.34 -15 16 C-14.37351563 15.88785156 -13.74703125 15.77570313 -13.1015625 15.66015625 C-10.45397093 15.02122642 -8.34947367 14.39164437 -6 13 C-4.60645631 10.05633467 -4.21008884 7.23265726 -4 4 C-2.68 4.33 -1.36 4.66 0 5 C0 3.35 0 1.7 0 0 Z " fill="#F8EBF2" transform="translate(162,64)"/>
<path d="M0 0 C1.70703125 1.53125 1.70703125 1.53125 3 3 C2.31292969 3.09796875 1.62585938 3.1959375 0.91796875 3.296875 C0.01691406 3.44640625 -0.88414063 3.5959375 -1.8125 3.75 C-2.70582031 3.88921875 -3.59914063 4.0284375 -4.51953125 4.171875 C-7.50572658 5.168841 -8.38380344 6.3582435 -10 9 C-10 8.34 -10 7.68 -10 7 C-10.66 7 -11.32 7 -12 7 C-12 8.98 -12 10.96 -12 13 C-11.01 13.33 -10.02 13.66 -9 14 C-9 14.66 -9 15.32 -9 16 C-8.34 16.33 -7.68 16.66 -7 17 C-7 17.66 -7 18.32 -7 19 C-10.16115776 17.63016497 -10.9927092 17.0109362 -13 14 C-13.60182519 10.90985913 -13.61143646 8.08964797 -13 5 C-9.10764033 0.34815552 -5.99887141 -0.90549002 0 0 Z " fill="#DD3E78" transform="translate(73,35)"/>
<path d="M0 0 C0.33 0 0.66 0 1 0 C1.78287497 6.10642479 -0.89174849 10.00459579 -4 15 C-5.984375 13.73046875 -5.984375 13.73046875 -8 12 C-8.25 8.3125 -8.25 8.3125 -8 5 C-7.01 5.33 -6.02 5.66 -5 6 C-5.33 4.35 -5.66 2.7 -6 1 C-3.03 1.495 -3.03 1.495 0 2 C0 1.34 0 0.68 0 0 Z " fill="#CD2666" transform="translate(40,79)"/>
<path d="M0 0 C4.05645682 -0.14863004 8.11185486 -0.25733927 12.17041016 -0.32958984 C13.54992281 -0.35971304 14.92924467 -0.40062275 16.30810547 -0.45263672 C18.29310092 -0.52562502 20.27950932 -0.55629398 22.265625 -0.5859375 C23.45961914 -0.6173584 24.65361328 -0.6487793 25.88378906 -0.68115234 C29 0 29 0 31.48339844 2.84912109 C33 6 33 6 32 9 C29.69 9 27.38 9 25 9 C25 6.69 25 4.38 25 2 C16.75 1.67 8.5 1.34 0 1 C0 0.67 0 0.34 0 0 Z " fill="#E95287" transform="translate(103,47)"/>
<path d="M0 0 C4 1 4 1 5.73828125 3.1796875 C6.25777344 4.06914063 6.77726562 4.95859375 7.3125 5.875 C7.84488281 6.75929688 8.37726562 7.64359375 8.92578125 8.5546875 C10 11 10 11 9 14 C7.68 13.34 6.36 12.68 5 12 C5 13.65 5 15.3 5 17 C3.79371992 14.66785852 2.8345262 12.50357861 2 10 C1.34 10 0.68 10 0 10 C0 6.7 0 3.4 0 0 Z " fill="#C72362" transform="translate(32,105)"/>
<path d="M0 0 C0.99 0 1.98 0 3 0 C3 0.66 3 1.32 3 2 C2.34 2 1.68 2 1 2 C1.33 6.95 1.66 11.9 2 17 C0.68 17 -0.64 17 -2 17 C-3.84231639 13.31536722 -3.36066861 9.03062994 -3 5 C-1.6875 1.875 -1.6875 1.875 0 0 Z " fill="#F8F7FA" transform="translate(58,35)"/>
<path d="M0 0 C-1.17651239 3.52953718 -1.88377544 3.78736494 -5 5.5625 C-8.08502827 7.21374548 -8.08502827 7.21374548 -10 10 C-10.66 10 -11.32 10 -12 10 C-12.91058531 6.92677456 -13.08886184 4.19902639 -13 1 C-11.02 1.99 -11.02 1.99 -9 3 C-8.443125 2.505 -7.88625 2.01 -7.3125 1.5 C-4.61837017 -0.24754367 -3.14624993 -0.26218749 0 0 Z " fill="#F7F8FA" transform="translate(55,114)"/>
<path d="M0 0 C1.1446875 0.12375 1.1446875 0.12375 2.3125 0.25 C1.6525 1.1575 0.9925 2.065 0.3125 3 C-2.67250994 8.09764022 -2.02558145 13.53078883 -1.6875 19.25 C-2.3475 19.25 -3.0075 19.25 -3.6875 19.25 C-3.81125 18.115625 -3.935 16.98125 -4.0625 15.8125 C-4.26875 14.636875 -4.475 13.46125 -4.6875 12.25 C-5.3475 11.92 -6.0075 11.59 -6.6875 11.25 C-5.65636282 0.52617329 -5.65636282 0.52617329 0 0 Z " fill="#DD487F" transform="translate(57.6875,32.75)"/>
<path d="M0 0 C0.33 0.66 0.66 1.32 1 2 C3.52733235 2.65555119 3.52733235 2.65555119 6 3 C5.34 3.61875 4.68 4.2375 4 4.875 C1.20485938 9.24240721 1.64711756 12.95182061 2 18 C1.34 18 0.68 18 0 18 C-0.33 15.03 -0.66 12.06 -1 9 C-1.99 9 -2.98 9 -4 9 C-2.94124926 5.59687262 -1.99097846 2.98646769 0 0 Z " fill="#F5E7EF" transform="translate(124,143)"/>
<path d="M0 0 C1.98 0 3.96 0 6 0 C5.67 0.99 5.34 1.98 5 3 C5.2397871 6.10615338 5.2397871 6.10615338 6 9 C6.66 9.33 7.32 9.66 8 10 C6.68 10.33 5.36 10.66 4 11 C0 4.5 0 4.5 0 0 Z " fill="#C72662" transform="translate(42,104)"/>
<path d="M0 0 C4.27047833 -0.14486019 8.54032833 -0.23392616 12.8125 -0.3125 C14.63491211 -0.3753418 14.63491211 -0.3753418 16.49414062 -0.43945312 C17.65751953 -0.45556641 18.82089844 -0.47167969 20.01953125 -0.48828125 C21.62985229 -0.52755737 21.62985229 -0.52755737 23.27270508 -0.56762695 C26 0 26 0 27.8737793 2.53051758 C28.24543213 3.34544678 28.61708496 4.16037598 29 5 C28.01 5 27.02 5 26 5 C25.67 3.68 25.34 2.36 25 1 C17.41 1.33 9.82 1.66 2 2 C1.67 2.66 1.34 3.32 1 4 C0.34 4 -0.32 4 -1 4 C-0.67 2.68 -0.34 1.36 0 0 Z " fill="#DF3372" transform="translate(87,78)"/>
<path d="M0 0 C1.65 0.33 3.3 0.66 5 1 C4.42647107 4.87132028 2.51295648 7.08172796 0 10 C0 9.01 0 8.02 0 7 C-1.98 7.99 -1.98 7.99 -4 9 C-2.80100302 5.9168649 -1.52299523 2.93720508 0 0 Z " fill="#F9E6F0" transform="translate(47,73)"/>
<path d="M0 0 C0.99 0 1.98 0 3 0 C2.67 0.99 2.34 1.98 2 3 C1.93029948 5.39490986 1.91551997 7.79167691 1.9375 10.1875 C1.94652344 11.45980469 1.95554687 12.73210937 1.96484375 14.04296875 C1.97644531 15.01878906 1.98804688 15.99460938 2 17 C0.35 17 -1.3 17 -3 17 C-3 14.36 -3 11.72 -3 9 C-2.67 9.66 -2.34 10.32 -2 11 C-1.34 11 -0.68 11 0 11 C0 7.37 0 3.74 0 0 Z " fill="#C11F5C" transform="translate(38,119)"/>
<path d="M0 0 C2.74792483 3.40219265 6 7.48464588 6 12 C5.401875 11.67 4.80375 11.34 4.1875 11 C1.94613529 9.79212012 1.94613529 9.79212012 -1 10 C-1.66 8.02 -2.32 6.04 -3 4 C-2.01 4 -1.02 4 0 4 C0 2.68 0 1.36 0 0 Z " fill="#F6E1EC" transform="translate(61,140)"/>
<path d="M0 0 C0.99 0.66 1.98 1.32 3 2 C3.29296875 4.3828125 3.29296875 4.3828125 3.1875 7.125 C3.16042969 8.03507812 3.13335937 8.94515625 3.10546875 9.8828125 C3.07066406 10.58148438 3.03585938 11.28015625 3 12 C2.01 12 1.02 12 0 12 C-1.8125 9.8125 -1.8125 9.8125 -3 7 C-2.25 4.3125 -2.25 4.3125 -1 2 C-0.67 1.34 -0.34 0.68 0 0 Z " fill="#D7326E" transform="translate(121,117)"/>
<path d="M0 0 C0.66 0.33 1.32 0.66 2 1 C2 2.65 2 4.3 2 6 C1.01 6.33 0.02 6.66 -1 7 C-1 7.66 -1 8.32 -1 9 C-0.34 9.33 0.32 9.66 1 10 C-1.97 9.505 -1.97 9.505 -5 9 C-4.5206753 4.68607774 -3.2542015 2.83430453 0 0 Z " fill="#D42767" transform="translate(84,86)"/>
<path d="M0 0 C1 2 1 2 1 3 C1.66 2.67 2.32 2.34 3 2 C2.54648272 6.08165555 2.2407215 8.38249417 -1 11 C-2.00611604 11.99384633 -3.00695869 12.9930894 -4 14 C-3.91231752 12.4156683 -3.80412671 10.83246433 -3.6875 9.25 C-3.60048828 7.92742187 -3.60048828 7.92742187 -3.51171875 6.578125 C-2.9358819 3.67696226 -1.92403852 2.20774393 0 0 Z " fill="#FBE4EF" transform="translate(138,60)"/>
<path d="M0 0 C0.33 0 0.66 0 1 0 C1 5.28 1 10.56 1 16 C-4 9.75 -4 9.75 -4 7 C-2.84247651 4.51267046 -1.47701397 2.32741595 0 0 Z " fill="#D43C75" transform="translate(78,92)"/>
<path d="M0 0 C2.25245881 2.68841859 3.88213958 4.64641875 5 8 C3.68 8.33 2.36 8.66 1 9 C1 8.34 1 7.68 1 7 C-1.51083114 8.25541557 -1.87125446 9.50063488 -3 12 C-3.94721072 9.39517051 -4.30222393 7.69325299 -3.17578125 5.109375 C-2.17063275 3.37417127 -1.0893855 1.68359577 0 0 Z " fill="#DC3874" transform="translate(116,84)"/>
<path d="M0 0 C0.99 0.33 1.98 0.66 3 1 C2.67 1.66 2.34 2.32 2 3 C2.27942455 4.67654729 2.60828247 6.34608154 3 8 C0.33333333 9.33333333 -2.33333333 10.66666667 -5 12 C-5 10.35 -5 8.7 -5 7 C-4.01 7 -3.02 7 -2 7 C-1.34 4.69 -0.68 2.38 0 0 Z " fill="#D12567" transform="translate(53,77)"/>
<path d="M0 0 C2.23551759 3.35327639 2.17283528 3.90743657 1.625 7.6875 C1.51414063 8.49574219 1.40328125 9.30398437 1.2890625 10.13671875 C1.19367188 10.75160156 1.09828125 11.36648437 1 12 C0.01 11.67 -0.98 11.34 -2 11 C-2.99 11 -3.98 11 -5 11 C-4.67 8.69 -4.34 6.38 -4 4 C-2.02 4.495 -2.02 4.495 0 5 C0 3.35 0 1.7 0 0 Z " fill="#F8D8E5" transform="translate(162,64)"/>
<path d="M0 0 C1.8125 0.125 1.8125 0.125 4 1 C7 6.03571429 7 6.03571429 7 9 C4.03 8.505 4.03 8.505 1 8 C0.17361624 5.10765685 0 3.11257569 0 0 Z " fill="#E53F79" transform="translate(152,87)"/>
<path d="M0 0 C0.99 0.33 1.98 0.66 3 1 C2.67 3.31 2.34 5.62 2 8 C-0.31 8.66 -2.62 9.32 -5 10 C-3.66511872 6.40608886 -2.03977277 3.24509304 0 0 Z " fill="#E3437D" transform="translate(165,104)"/>
<path d="M0 0 C2.4375 0.625 2.4375 0.625 5 2 C5.8125 5.125 5.8125 5.125 6 8 C3.69 8 1.38 8 -1 8 C-1.04241723 5.66705225 -1.04092937 3.33297433 -1 1 C-0.67 0.67 -0.34 0.34 0 0 Z " fill="#E03977" transform="translate(97,40)"/>
<path d="M0 0 C0.85659135 3.08084955 1.26941369 6.06792001 1.5625 9.25 C1.64628906 10.14203125 1.73007812 11.0340625 1.81640625 11.953125 C1.87699219 12.62859375 1.93757813 13.3040625 2 14 C1.67 13.01 1.34 12.02 1 11 C-0.32 11 -1.64 11 -3 11 C-3.39253254 6.55129785 -2.15305957 3.85756507 0 0 Z " fill="#F6DEE9" transform="translate(42,116)"/>
<path d="M0 0 C2.97 0 5.94 0 9 0 C9 1.32 9 2.64 9 4 C6.03 3.67 3.06 3.34 0 3 C0 2.01 0 1.02 0 0 Z " fill="#F9FDFE" transform="translate(64,55)"/>
<path d="M0 0 C0.66 0.33 1.32 0.66 2 1 C2.5625 2.8125 2.5625 2.8125 3 5 C3.185625 5.7425 3.37125 6.485 3.5625 7.25 C3.706875 7.8275 3.85125 8.405 4 9 C2.68 8.67 1.36 8.34 0 8 C-0.33 8.66 -0.66 9.32 -1 10 C-1.66 8.35 -2.32 6.7 -3 5 C-2.01 5 -1.02 5 0 5 C0 3.35 0 1.7 0 0 Z " fill="#FCE8F2" transform="translate(78,54)"/>
<path d="M0 0 C3.3 0.33 6.6 0.66 10 1 C8.68 1.33 7.36 1.66 6 2 C6 2.66 6 3.32 6 4 C7.65 4 9.3 4 11 4 C11 4.33 11 4.66 11 5 C8.03 5 5.06 5 2 5 C1.34 3.35 0.68 1.7 0 0 Z " fill="#DC4179" transform="translate(126,136)"/>
<path d="M0 0 C0.66 0.66 1.32 1.32 2 2 C1.484375 2.70125 0.96875 3.4025 0.4375 4.125 C-1.30443767 7.60887535 -0.94693195 9.2983569 0 13 C-0.99 13 -1.98 13 -3 13 C-3.85637238 10.07406105 -4.38673104 7.91825712 -3.17578125 5.04296875 C-2.17852152 3.32488268 -1.09427085 1.65798613 0 0 Z " fill="#FAEBF4" transform="translate(73,91)"/>
<path d="M0 0 C0.66 0.33 1.32 0.66 2 1 C1.34 3.97 0.68 6.94 0 10 C-1.65 10.33 -3.3 10.66 -5 11 C-3.55049545 7.2089881 -1.84827434 3.6125362 0 0 Z " fill="#CB2F69" transform="translate(67,131)"/>
<path d="M0 0 C2.64 0.33 5.28 0.66 8 1 C8 1.66 8 2.32 8 3 C7.34 3 6.68 3 6 3 C6 3.66 6 4.32 6 5 C1.25 4.125 1.25 4.125 -1 3 C-0.67 2.01 -0.34 1.02 0 0 Z " fill="#F8FDFE" transform="translate(145,80)"/>
<path d="M0 0 C0 0.66 0 1.32 0 2 C-0.66 2 -1.32 2 -2 2 C-2 2.66 -2 3.32 -2 4 C-3.95799514 4.33531415 -5.91640774 4.66819143 -7.875 5 C-8.96554688 5.185625 -10.05609375 5.37125 -11.1796875 5.5625 C-14 6 -14 6 -16 6 C-15.67 5.01 -15.34 4.02 -15 3 C-12.03 3 -9.06 3 -6 3 C-6 2.34 -6 1.68 -6 1 C-3.92446352 0.4465236 -2.15634036 0 0 0 Z " fill="#D12065" transform="translate(144,169)"/>
<path d="M0 0 C5.75 1.625 5.75 1.625 8 5 C5.36 5 2.72 5 0 5 C-0.5625 3.0625 -0.5625 3.0625 -1 1 C-0.67 0.67 -0.34 0.34 0 0 Z " fill="#C1205E" transform="translate(41,139)"/>
<path d="M0 0 C1.5625 1.5625 1.5625 1.5625 3 4 C2.6875 7.75 2.6875 7.75 2 11 C1.01 11 0.02 11 -1 11 C-1 10.34 -1 9.68 -1 9 C-0.34 9 0.32 9 1 9 C0.649375 8.443125 0.29875 7.88625 -0.0625 7.3125 C-1.21845993 4.46113217 -0.80967438 2.91482778 0 0 Z " fill="#D1346D" transform="translate(60,122)"/>
<path d="M0 0 C2.475 0.99 2.475 0.99 5 2 C5.33 1.34 5.66 0.68 6 0 C6.66 1.65 7.32 3.3 8 5 C6.35 5.66 4.7 6.32 3 7 C0 2.25 0 2.25 0 0 Z " fill="#F7E6EE" transform="translate(33,101)"/>
<path d="M0 0 C2.61724095 2.36797991 4.32861729 4.89600354 6 8 C6 8.66 6 9.32 6 10 C5.34 10 4.68 10 4 10 C3.67 10.99 3.34 11.98 3 13 C2.814375 11.88625 2.814375 11.88625 2.625 10.75 C2.12955263 8.04077127 2.12955263 8.04077127 0.9375 5.9375 C0 4 0 4 0 0 Z " fill="#D23571" transform="translate(70,104)"/>
<path d="M0 0 C0.103125 0.639375 0.20625 1.27875 0.3125 1.9375 C0.539375 2.618125 0.76625 3.29875 1 4 C1.99 4.33 2.98 4.66 4 5 C1.525 6.485 1.525 6.485 -1 8 C-1 7.01 -1 6.02 -1 5 C-2.32 4.67 -3.64 4.34 -5 4 C-4.0409375 3.8453125 -4.0409375 3.8453125 -3.0625 3.6875 C-2.381875 3.460625 -1.70125 3.23375 -1 3 C-0.67 2.01 -0.34 1.02 0 0 Z " fill="#F7DFEA" transform="translate(142,160)"/>
<path d="M0 0 C2.01136276 2.55991624 3.62845496 5.04590299 5 8 C4.01 8 3.02 8 2 8 C1.67 6.68 1.34 5.36 1 4 C0.34 4 -0.32 4 -1 4 C-1.33 4.99 -1.66 5.98 -2 7 C-2.33 5.68 -2.66 4.36 -3 3 C-2.01 2.67 -1.02 2.34 0 2 C0 1.34 0 0.68 0 0 Z " fill="#FBE4EF" transform="translate(135,43)"/>
<path d="M0 0 C0.99 0.66 1.98 1.32 3 2 C2.195625 2.495 1.39125 2.99 0.5625 3.5 C-2.98088338 6.95695939 -2.7573941 9.14788209 -3 14 C-3.33 14 -3.66 14 -4 14 C-4.10815225 12.23050905 -4.18566083 10.45912513 -4.25 8.6875 C-4.29640625 7.70136719 -4.3428125 6.71523438 -4.390625 5.69921875 C-4 3 -4 3 -1.984375 1.14453125 C-1.00210938 0.57798828 -1.00210938 0.57798828 0 0 Z " fill="#F4D7E5" transform="translate(63,34)"/>
<path d="M0 0 C0.99 0.33 1.98 0.66 3 1 C2.67 3.31 2.34 5.62 2 8 C1.34 7.01 0.68 6.02 0 5 C-0.99 5 -1.98 5 -3 5 C-3 4.34 -3 3.68 -3 3 C-2.34 3 -1.68 3 -1 3 C-0.67 2.01 -0.34 1.02 0 0 Z " fill="#D02265" transform="translate(115,152)"/>
<path d="M0 0 C2.475 0.495 2.475 0.495 5 1 C4.34 2.98 3.68 4.96 3 7 C2.34 7 1.68 7 1 7 C0.67 4.69 0.34 2.38 0 0 Z " fill="#CD2363" transform="translate(40,72)"/>
<path d="M0 0 C0.66 0 1.32 0 2 0 C2.36923077 5.53846154 2.36923077 5.53846154 0.5 7.875 C-0.2425 8.431875 -0.2425 8.431875 -1 9 C-1.80967438 6.08517222 -2.21845993 4.53886783 -1.0625 1.6875 C-0.711875 1.130625 -0.36125 0.57375 0 0 Z " fill="#E74880" transform="translate(156,69)"/>
<path d="M0 0 C0.3403125 0.8971875 0.3403125 0.8971875 0.6875 1.8125 C2.33536369 4.55893949 4.23454483 5.47172214 7 7 C7 7.33 7 7.66 7 8 C5.02 8.33 3.04 8.66 1 9 C-1.125 3.375 -1.125 3.375 0 0 Z " fill="#FAEFF7" transform="translate(62,146)"/>
<path d="M0 0 C0.66 0.66 1.32 1.32 2 2 C1.19185349 3.33597652 0.37836819 4.668725 -0.4375 6 C-0.88996094 6.7425 -1.34242187 7.485 -1.80859375 8.25 C-2.20175781 8.8275 -2.59492187 9.405 -3 10 C-3.33 10 -3.66 10 -4 10 C-3.51171875 3.9453125 -3.51171875 3.9453125 -3 2 C-2.01 1.34 -1.02 0.68 0 0 Z " fill="#D63572" transform="translate(74,86)"/>
<path d="M0 0 C2.97 0 5.94 0 9 0 C8.01 0.495 8.01 0.495 7 1 C7 1.66 7 2.32 7 3 C4.69 3 2.38 3 0 3 C0 2.01 0 1.02 0 0 Z " fill="#D74A7D" transform="translate(66,59)"/>
<path d="M0 0 C2.64 0 5.28 0 8 0 C8.33 0.99 8.66 1.98 9 3 C3.46153846 3.36923077 3.46153846 3.36923077 1.125 1.5 C0.75375 1.005 0.3825 0.51 0 0 Z " fill="#D33A73" transform="translate(128,162)"/>
<path d="M0 0 C0.99 0.33 1.98 0.66 3 1 C3.33 2.65 3.66 4.3 4 6 C3.01 6.495 3.01 6.495 2 7 C1.34 6.67 0.68 6.34 0 6 C-0.6875 3.5 -0.6875 3.5 -1 1 C-0.67 0.67 -0.34 0.34 0 0 Z " fill="#C92868" transform="translate(60,151)"/>
<path d="M0 0 C-0.165 0.598125 -0.33 1.19625 -0.5 1.8125 C-1.1114124 4.11344336 -1.1114124 4.11344336 -1 7 C-2.65 6.01 -4.3 5.02 -6 4 C-2.25 0 -2.25 0 0 0 Z " fill="#E13374" transform="translate(159,121)"/>
<path d="M0 0 C0.99 0 1.98 0 3 0 C2.814375 0.763125 2.62875 1.52625 2.4375 2.3125 C1.77180827 5.08967375 1.77180827 5.08967375 3 8 C2.34 8 1.68 8 1 8 C0.01 6.02 -0.98 4.04 -2 2 C-1.34 1.34 -0.68 0.68 0 0 Z " fill="#DD3D78" transform="translate(160,80)"/>
<path d="M0 0 C2 2 2 2 2 6 C0.35 5.67 -1.3 5.34 -3 5 C-3 4.01 -3 3.02 -3 2 C-2.01 1.34 -1.02 0.68 0 0 Z " fill="#F6DCEA" transform="translate(153,118)"/>
<path d="M0 0 C0 1.98 0 3.96 0 6 C-2.475 5.01 -2.475 5.01 -5 4 C-4.67 3.01 -4.34 2.02 -4 1 C-1 0 -1 0 0 0 Z " fill="#F8FCFC" transform="translate(38,97)"/>
<path d="M0 0 C3.96 0 7.92 0 12 0 C7.20734907 2.39632547 5.12703728 3.24711718 0 2 C0 1.34 0 0.68 0 0 Z " fill="#E6417D" transform="translate(142,85)"/>
<path d="M0 0 C2.32590854 3.63423209 2.16265833 6.77088331 2 11 C0.4375 9.4375 0.4375 9.4375 -1 7 C-0.6875 3.25 -0.6875 3.25 0 0 Z " fill="#E5568A" transform="translate(140,66)"/>
<path d="M0 0 C0.66 0.33 1.32 0.66 2 1 C2 2.65 2 4.3 2 6 C1.01 6.33 0.02 6.66 -1 7 C-1.625 4.625 -1.625 4.625 -2 2 C-1.34 1.34 -0.68 0.68 0 0 Z " fill="#F8FAFC" transform="translate(160,63)"/>
<path d="M0 0 C1.5 1.125 1.5 1.125 3 3 C3.1875 6.1875 3.1875 6.1875 3 9 C2.67 7.68 2.34 6.36 2 5 C1.01 5.33 0.02 5.66 -1 6 C-1.042721 4.33388095 -1.04063832 2.66617115 -1 1 C-0.67 0.67 -0.34 0.34 0 0 Z " fill="#E05286" transform="translate(76,39)"/>
<path d="M0 0 C0.66 0.33 1.32 0.66 2 1 C1.34 3.97 0.68 6.94 0 10 C-0.33 10 -0.66 10 -1 10 C-1.125 2.25 -1.125 2.25 0 0 Z " fill="#F9FDFE" transform="translate(145,148)"/>
<path d="M0 0 C0.66 0 1.32 0 2 0 C2.6875 2.3125 2.6875 2.3125 3 5 C1.5625 6.8125 1.5625 6.8125 0 8 C-1.125 2.25 -1.125 2.25 0 0 Z " fill="#D43570" transform="translate(121,140)"/>
<path d="M0 0 C0.99 0 1.98 0 3 0 C3 1.98 3 3.96 3 6 C2.01 6 1.02 6 0 6 C0 4.02 0 2.04 0 0 Z " fill="#E1407C" transform="translate(141,152)"/>
<path d="M0 0 C0.33 0 0.66 0 1 0 C1 2.31 1 4.62 1 7 C-0.32 7 -1.64 7 -3 7 C-2.25 2.25 -2.25 2.25 0 0 Z " fill="#C41B5C" transform="translate(71,145)"/>
<path d="M0 0 C2.0625 0.4375 2.0625 0.4375 4 1 C2.89131683 3.21736634 1.50559539 5.03617993 0 7 C-0.38133299 5.0085944 -0.71325582 3.00720923 -1 1 C-0.67 0.67 -0.34 0.34 0 0 Z " fill="#CC2A69" transform="translate(67,145)"/>
<path d="M0 0 C0.99 0.33 1.98 0.66 3 1 C2.67 2.32 2.34 3.64 2 5 C1.34 5 0.68 5 0 5 C-0.33 5.66 -0.66 6.32 -1 7 C-2 4 -2 4 -1.0625 1.8125 C-0.5365625 0.9153125 -0.5365625 0.9153125 0 0 Z " fill="#F4E7EE" transform="translate(84,120)"/>
<path d="M0 0 C0.99 0 1.98 0 3 0 C2.34 4.29 1.68 8.58 1 13 C0.67 13 0.34 13 0 13 C0 8.71 0 4.42 0 0 Z " fill="#CE4B7C" transform="translate(38,119)"/>
<path d="M0 0 C0.66 0 1.32 0 2 0 C2 1.65 2 3.3 2 5 C1.01 5.495 1.01 5.495 0 6 C-0.66 5.67 -1.32 5.34 -2 5 C-1.125 1.125 -1.125 1.125 0 0 Z " fill="#F8F8FB" transform="translate(45,80)"/>
<path d="M0 0 C0.99 0.66 1.98 1.32 3 2 C3 2.66 3 3.32 3 4 C2.01 4.33 1.02 4.66 0 5 C-0.33 5.66 -0.66 6.32 -1 7 C-1.66 7 -2.32 7 -3 7 C-1.125 2.25 -1.125 2.25 0 0 Z " fill="#DC467B" transform="translate(121,117)"/>
<path d="M0 0 C1.65 0 3.3 0 5 0 C5.33 1.32 5.66 2.64 6 4 C4.125 3.6875 4.125 3.6875 2 3 C1.34 2.01 0.68 1.02 0 0 Z " fill="#CC2C69" transform="translate(62,116)"/>
<path d="M0 0 C0.99 0.33 1.98 0.66 3 1 C3.33 1.99 3.66 2.98 4 4 C2.02 4.99 2.02 4.99 0 6 C0 4.02 0 2.04 0 0 Z " fill="#FAF5F8" transform="translate(125,92)"/>
<path d="M0 0 C0.99 0 1.98 0 3 0 C3 3.3 3 6.6 3 10 C2.67 10 2.34 10 2 10 C1.7834375 8.63875 1.7834375 8.63875 1.5625 7.25 C1.13590527 4.78523044 0.64925779 2.41152893 0 0 Z " fill="#EFFDFC" transform="translate(79,39)"/>
</svg>
