<?xml version="1.0" encoding="UTF-8"?>
<svg version="1.1" xmlns="http://www.w3.org/2000/svg" width="96" height="96">
<path d="M0 0 C23.76 0 47.52 0 72 0 C72 23.76 72 47.52 72 72 C48.24 72 24.48 72 0 72 C0 48.24 0 24.48 0 0 Z " fill="#F78E05" transform="translate(12,12)"/>
<path d="M0 0 C5.94 0 11.88 0 18 0 C19.89840391 3.76955801 21.79377564 7.54059182 23.6875 11.3125 C24.48317383 12.8912793 24.48317383 12.8912793 25.29492188 14.50195312 C25.82021484 15.54931641 26.34550781 16.59667969 26.88671875 17.67578125 C27.41571777 18.7220166 27.9447168 19.76825195 28.48974609 20.84619141 C30 24 30 24 31.26416016 27.21240234 C31.85463135 28.70634521 31.85463135 28.70634521 32.45703125 30.23046875 C32.78292236 31.12531982 33.10881348 32.0201709 33.44458008 32.94213867 C35.28501207 35.87936491 35.28501207 35.87936491 42 36 C42 40.95 42 45.9 42 51 C36.06 51 30.12 51 24 51 C22.47438785 48.14830244 20.95429284 45.29388644 19.4375 42.4375 C18.75240356 41.15576904 18.75240356 41.15576904 18.0534668 39.84814453 C15.89217037 35.76405004 13.8139005 31.69512161 12.0234375 27.43359375 C11.73025635 26.74531494 11.4370752 26.05703613 11.13500977 25.34790039 C10.35546423 23.47805548 9.60838058 21.59477354 8.86328125 19.7109375 C8.24839844 18.81632812 7.63351563 17.92171875 7 17 C4.69 16.67 2.38 16.34 0 16 C0 10.72 0 5.44 0 0 Z " fill="#FEFBF6" transform="translate(32,22)"/>
<path d="M0 0 C3.63 0 7.26 0 11 0 C15.87205746 9.10692431 20.74094118 18.20805384 25.125 27.5625 C25.41963135 28.18648682 25.7142627 28.81047363 26.01782227 29.45336914 C28 33.74637896 28 33.74637896 28 36 C29.98 36 31.96 36 34 36 C34 38.31 34 40.62 34 43 C30.04 43 26.08 43 22 43 C20.19552123 39.4660208 18.39945479 35.92789868 16.6105957 32.38598633 C15.70625859 30.59955578 14.79557724 28.81634135 13.88476562 27.03320312 C10.73053037 20.77759689 7.99103702 14.72064841 6 8 C4.02 8 2.04 8 0 8 C0 5.36 0 2.72 0 0 Z " fill="#F7900A" transform="translate(36,26)"/>
<path d="M0 0 C2.49527243 3.1341223 4.40392194 6.38424782 6.25 9.9375 C6.79140625 10.95714844 7.3328125 11.97679687 7.890625 13.02734375 C9.17413559 16.4666098 9.20525573 17.5731924 8 21 C6.68 23.64 5.36 26.28 4 29 C-2.27 29 -8.54 29 -15 29 C-10.16025516 19.23560252 -5.23677454 9.55711354 0 0 Z " fill="#FEF8F1" transform="translate(37,44)"/>
<path d="M0 0 C4.32258065 5.76344086 4.32258065 5.76344086 5 9 C3.93411707 11.59707516 2.57154308 13.64268537 1 16 C-1.97 16 -4.94 16 -8 16 C-5.36 10.72 -2.72 5.44 0 0 Z " fill="#F7910C" transform="translate(37,53)"/>
</svg>
