<?xml version="1.0" encoding="UTF-8"?>
<svg version="1.1" xmlns="http://www.w3.org/2000/svg" width="96" height="96">
<path d="M0 0 C10.56 0 21.12 0 32 0 C32 18.48 32 36.96 32 56 C21.44 56 10.88 56 0 56 C0 37.52 0 19.04 0 0 Z " fill="#2196F3" transform="translate(8,20)"/>
<path d="M0 0 C5.94 0 11.88 0 18 0 C18 10.56 18 21.12 18 32 C12.06 32 6.12 32 0 32 C0 21.44 0 10.88 0 0 Z " fill="#2196F3" transform="translate(70,54)"/>
<path d="M0 0 C5.94 0 11.88 0 18 0 C18 10.56 18 21.12 18 32 C12.06 32 6.12 32 0 32 C0 21.44 0 10.88 0 0 Z " fill="#2196F3" transform="translate(70,10)"/>
<path d="M0 0 C2.95409701 1.37154504 5.44008376 2.98863724 8 5 C6.61122646 8.35620271 5.08322035 10.07298728 2 12 C1.34 12 0.68 12 0 12 C0 10.68 0 9.36 0 8 C-1.32 8 -2.64 8 -4 8 C-4 21.2 -4 34.4 -4 48 C-2.68 48 -1.36 48 0 48 C0 46.68 0 45.36 0 44 C2.95409701 45.37154504 5.44008376 46.98863724 8 49 C6.61122646 52.35620271 5.08322035 54.07298728 2 56 C1.34 56 0.68 56 0 56 C0 54.68 0 53.36 0 52 C-2.64 52 -5.28 52 -8 52 C-8 44.74 -8 37.48 -8 30 C-9.98 30 -11.96 30 -14 30 C-14 28.68 -14 27.36 -14 26 C-12.02 26 -10.04 26 -8 26 C-8 18.74 -8 11.48 -8 4 C-5.36 4 -2.72 4 0 4 C0 2.68 0 1.36 0 0 Z " fill="#8FA3AE" transform="translate(58,20)"/>
<path d="M0 0 C7.92 0 15.84 0 24 0 C24 2.64 24 5.28 24 8 C16.08 8 8.16 8 0 8 C0 5.36 0 2.72 0 0 Z " fill="#3B524A" transform="translate(12,48)"/>
<path d="M0 0 C7.92 0 15.84 0 24 0 C24 2.64 24 5.28 24 8 C16.08 8 8.16 8 0 8 C0 5.36 0 2.72 0 0 Z " fill="#3B524A" transform="translate(12,36)"/>
<path d="M0 0 C7.92 0 15.84 0 24 0 C24 2.64 24 5.28 24 8 C16.08 8 8.16 8 0 8 C0 5.36 0 2.72 0 0 Z " fill="#3B524A" transform="translate(12,24)"/>
<path d="M0 0 C2.625 0.375 2.625 0.375 5 1 C5.625 3.375 5.625 3.375 6 6 C5.34 6.66 4.68 7.32 4 8 C1.375 7.625 1.375 7.625 -1 7 C-1.625 4.625 -1.625 4.625 -2 2 C-1.34 1.34 -0.68 0.68 0 0 Z " fill="#B1D9FA" transform="translate(22,64)"/>
<path d="M0 0 C3.3 0 6.6 0 10 0 C10 1.32 10 2.64 10 4 C6.7 4 3.4 4 0 4 C0 2.68 0 1.36 0 0 Z " fill="#37474F" transform="translate(74,64)"/>
<path d="M0 0 C3.3 0 6.6 0 10 0 C10 1.32 10 2.64 10 4 C6.7 4 3.4 4 0 4 C0 2.68 0 1.36 0 0 Z " fill="#37474F" transform="translate(74,58)"/>
<path d="M0 0 C3.3 0 6.6 0 10 0 C10 1.32 10 2.64 10 4 C6.7 4 3.4 4 0 4 C0 2.68 0 1.36 0 0 Z " fill="#37474F" transform="translate(74,20)"/>
<path d="M0 0 C3.3 0 6.6 0 10 0 C10 1.32 10 2.64 10 4 C6.7 4 3.4 4 0 4 C0 2.68 0 1.36 0 0 Z " fill="#37474F" transform="translate(74,14)"/>
<path d="M0 0 C1.65 0.33 3.3 0.66 5 1 C4.67 2.65 4.34 4.3 4 6 C2.35 5.67 0.7 5.34 -1 5 C-0.67 3.35 -0.34 1.7 0 0 Z " fill="#A5D3F9" transform="translate(77,76)"/>
<path d="M0 0 C1.65 0.33 3.3 0.66 5 1 C4.67 2.65 4.34 4.3 4 6 C2.35 5.67 0.7 5.34 -1 5 C-0.67 3.35 -0.34 1.7 0 0 Z " fill="#A5D3F9" transform="translate(77,32)"/>
</svg>
