<?xml version="1.0" encoding="UTF-8"?>
<svg version="1.1" xmlns="http://www.w3.org/2000/svg" width="275" height="183">
<path d="M0 0 C90.75 0 181.5 0 275 0 C275 60.39 275 120.78 275 183 C184.25 183 93.5 183 0 183 C0 122.61 0 62.22 0 0 Z " fill="#FDFDFD" transform="translate(0,0)"/>
<path d="M0 0 C40.92 0 81.84 0 124 0 C124 40.92 124 81.84 124 124 C83.08 124 42.16 124 0 124 C0 83.08 0 42.16 0 0 Z " fill="#E4750D" transform="translate(76,20)"/>
<path d="M0 0 C2.72103626 1.24134866 5.37480151 2.56746783 8 4 C8 4.99 8 5.98 8 7 C6.68 7.33 5.36 7.66 4 8 C6.475 8.495 6.475 8.495 9 9 C9.33 8.34 9.66 7.68 10 7 C10 9.97 10 12.94 10 16 C13.96 15.505 13.96 15.505 18 15 C18 12.36 18 9.72 18 7 C25.50769231 6.63076923 25.50769231 6.63076923 28 8.5 C28.495 9.2425 28.495 9.2425 29 10 C29 9.01 29 8.02 29 7 C29.99 7 30.98 7 32 7 C33.0625 8.75 33.0625 8.75 34 11 C33.67 12.32 33.34 13.64 33 15 C35.97 15 38.94 15 42 15 C41.87431641 16.44632813 41.87431641 16.44632813 41.74609375 17.921875 C41.64425781 19.18515625 41.54242188 20.4484375 41.4375 21.75 C41.33308594 23.00296875 41.22867188 24.2559375 41.12109375 25.546875 C41.02123277 28.39452364 41.09415705 30.34286067 42 33 C40.1875 34.0625 40.1875 34.0625 38 35 C35.28368454 34.09456151 32.65228812 33.07525194 30 32 C30 31.34 30 30.68 30 30 C29.01 30.66 28.02 31.32 27 32 C27.33 32.99 27.66 33.98 28 35 C27.34 35 26.68 35 26 35 C25.67 36.32 25.34 37.64 25 39 C24.505 35.04 24.505 35.04 24 31 C23.01 31 22.02 31 21 31 C20.67 40.24 20.34 49.48 20 59 C20.66 59 21.32 59 22 59 C22.495 58.01 22.495 58.01 23 57 C23.33 57.33 23.66 57.66 24 58 C26.15377564 55.37801226 27.40072174 53.35595828 28 50 C29.65 50 31.3 50 33 50 C33 49.01 33 48.02 33 47 C33.66 47.33 34.32 47.66 35 48 C35 53.61 35 59.22 35 65 C30.71 66.65 26.42 68.3 22 70 C21.34 68.35 20.68 66.7 20 65 C19.01 64.505 19.01 64.505 18 64 C18 63.34 18 62.68 18 62 C15.525 62.495 15.525 62.495 13 63 C13 62.01 13 61.02 13 60 C12.08476562 60.5053125 11.16953125 61.010625 10.2265625 61.53125 C9.02616155 62.18771927 7.82563413 62.8439573 6.625 63.5 C6.02171875 63.83386719 5.4184375 64.16773437 4.796875 64.51171875 C0.2265625 67 0.2265625 67 -2 67 C-2 70.63 -2 74.26 -2 78 C-0.88625 77.34 0.2275 76.68 1.375 76 C4.75 74 4.75 74 7 74 C7.33 75.32 7.66 76.64 8 78 C6.4493684 79.03877263 4.88390319 80.05542555 3.3125 81.0625 C2.44238281 81.63097656 1.57226562 82.19945313 0.67578125 82.78515625 C-2.51741813 84.23491538 -3.72551047 84.13347715 -7 83 C-9.23828125 81.80859375 -9.23828125 81.80859375 -11.3125 80.4375 C-12.00988281 79.98246094 -12.70726562 79.52742188 -13.42578125 79.05859375 C-14.20501953 78.53458984 -14.20501953 78.53458984 -15 78 C-14.67 76.68 -14.34 75.36 -14 74 C-11.36 75.32 -8.72 76.64 -6 78 C-6 74.37 -6 70.74 -6 67 C-6.83917969 66.75378906 -7.67835938 66.50757812 -8.54296875 66.25390625 C-12.42016493 64.8476012 -15.7688412 63.02047084 -19.3125 60.9375 C-20.26092773 60.39125977 -20.26092773 60.39125977 -21.22851562 59.83398438 C-25.83996333 57.16003667 -25.83996333 57.16003667 -27 56 C-27.15825258 54.00217874 -27.25119171 51.99911166 -27.31640625 49.99609375 C-27.35830078 48.78115234 -27.40019531 47.56621094 -27.44335938 46.31445312 C-27.48267578 45.03505859 -27.52199219 43.75566406 -27.5625 42.4375 C-27.62727539 40.51260742 -27.62727539 40.51260742 -27.69335938 38.54882812 C-27.799848 35.36600147 -27.90185962 32.18309326 -28 29 C-31.3 27.35 -34.6 25.7 -38 24 C-38.33 26.31 -38.66 28.62 -39 31 C-40.32 31 -41.64 31 -43 31 C-43 26.71 -43 22.42 -43 18 C-41.246875 17.175 -39.49375 16.35 -37.6875 15.5 C-36.70136719 15.0359375 -35.71523437 14.571875 -34.69921875 14.09375 C-32 13 -32 13 -29 13 C-29.1875 14.875 -29.1875 14.875 -30 17 C-32.5625 18.25 -32.5625 18.25 -35 19 C-35 19.66 -35 20.32 -35 21 C-31.31405133 22.62615383 -28.03278043 23.72856286 -24 24 C-20.49296013 22.62170807 -20.49296013 22.62170807 -17.125 20.5625 C-16.53203125 20.22412109 -15.9390625 19.88574219 -15.328125 19.53710938 C-13.87687398 18.70615113 -12.43718266 17.85505971 -11 17 C-13.31 16.01 -15.62 15.02 -18 14 C-17.67 13.34 -17.34 12.68 -17 12 C-16.34 12.33 -15.68 12.66 -15 13 C-14.67 12.01 -14.34 11.02 -14 10 C-13.34 10.33 -12.68 10.66 -12 11 C-12 10.34 -12 9.68 -12 9 C-11.34 9 -10.68 9 -10 9 C-10 8.34 -10 7.68 -10 7 C-11.98 7 -13.96 7 -16 7 C-16 6.01 -16 5.02 -16 4 C-5.46218487 -2.01863354 -5.46218487 -2.01863354 0 0 Z " fill="#ED850D" transform="translate(142,41)"/>
<path d="M0 0 C2.17021532 1.01879968 4.29027664 2.10096494 6.41455078 3.21264648 C8.93080078 4.51202148 11.44705078 5.81139648 14.03955078 7.15014648 C14.03955078 15.73014648 14.03955078 24.31014648 14.03955078 33.15014648 C11.87392578 34.42889648 9.70830078 35.70764648 7.47705078 37.02514648 C6.80988037 37.42459473 6.14270996 37.82404297 5.45532227 38.2355957 C1.42212302 40.57684457 -2.27273493 42.58438786 -6.96044922 43.15014648 C-10.37632616 41.94550815 -13.32366519 40.171233 -16.39794922 38.27514648 C-19.22357422 36.58389648 -22.04919922 34.89264648 -24.96044922 33.15014648 C-24.96044922 24.57014648 -24.96044922 15.99014648 -24.96044922 7.15014648 C-22.27919922 5.64452148 -19.59794922 4.13889648 -16.83544922 2.58764648 C-16.00255371 2.1086792 -15.1696582 1.62971191 -14.31152344 1.13623047 C-8.90097368 -1.81175101 -5.84859675 -2.53536305 0 0 Z " fill="#E07B1A" transform="translate(143.96044921875,61.849853515625)"/>
<path d="M0 0 C-0.1875 1.875 -0.1875 1.875 -1 4 C-3.5625 5.25 -3.5625 5.25 -6 6 C-6 6.66 -6 7.32 -6 8 C0.3250432 10.91081407 0.3250432 10.91081407 6.99707031 10.25073242 C9.23247926 9.11126779 11.39861804 7.89498138 13.5625 6.625 C15.03962466 5.77799542 16.52001862 4.93666222 18.00390625 4.1015625 C18.65174072 3.72338379 19.2995752 3.34520508 19.96704102 2.95556641 C22.37313202 1.82461406 24.34725037 1.24867114 27 1 C29.140625 1.8203125 29.140625 1.8203125 31.25 3.125 C32.41015625 3.81335937 32.41015625 3.81335937 33.59375 4.515625 C35.19791667 5.50520833 36.80208333 6.49479167 38.40625 7.484375 C39.56640625 8.17273438 39.56640625 8.17273438 40.75 8.875 C41.44609375 9.30554687 42.1421875 9.73609375 42.859375 10.1796875 C47.24842856 11.86162408 51.76192947 9.4783967 56 8 C55.10603065 5.74433732 55.10603065 5.74433732 52.4375 4.5625 C51.633125 4.046875 50.82875 3.53125 50 3 C50 2.01 50 1.02 50 0 C55.45987752 0.84371109 59.25820402 3.2398501 64 6 C64 9.96 64 13.92 64 18 C62.68 18 61.36 18 60 18 C59.505 14.535 59.505 14.535 59 11 C55.7 12.65 52.4 14.3 49 16 C49.01160156 16.79172607 49.02320313 17.58345215 49.03515625 18.39916992 C49.06468207 21.99631124 49.032984 25.59041137 49 29.1875 C49.01933594 30.43337891 49.03867188 31.67925781 49.05859375 32.96289062 C48.91382187 41.96287608 48.91382187 41.96287608 46.35888672 44.86254883 C44.28813268 46.16667596 42.2727312 47.10092348 40 48 C38.97132813 48.59425781 37.94265625 49.18851563 36.8828125 49.80078125 C35.97273438 50.29964844 35.06265625 50.79851562 34.125 51.3125 C32.73667969 52.08013672 32.73667969 52.08013672 31.3203125 52.86328125 C29 54 29 54 27 54 C27 57.63 27 61.26 27 65 C28.11375 64.34 29.2275 63.68 30.375 63 C33.75 61 33.75 61 36 61 C36.495 62.98 36.495 62.98 37 65 C35.4493684 66.03877263 33.88390319 67.05542555 32.3125 68.0625 C31.44238281 68.63097656 30.57226562 69.19945313 29.67578125 69.78515625 C26.48258187 71.23491538 25.27448953 71.13347715 22 70 C19.76171875 68.80859375 19.76171875 68.80859375 17.6875 67.4375 C16.99011719 66.98246094 16.29273438 66.52742188 15.57421875 66.05859375 C14.79498047 65.53458984 14.79498047 65.53458984 14 65 C14.33 63.68 14.66 62.36 15 61 C17.64 62.32 20.28 63.64 23 65 C23 61.37 23 57.74 23 54 C22.16082031 53.75378906 21.32164062 53.50757813 20.45703125 53.25390625 C16.57983507 51.8476012 13.2311588 50.02047084 9.6875 47.9375 C8.73907227 47.39125977 8.73907227 47.39125977 7.77148438 46.83398438 C3.16003667 44.16003667 3.16003667 44.16003667 2 43 C1.84174742 41.00217874 1.74880829 38.99911166 1.68359375 36.99609375 C1.64169922 35.78115234 1.59980469 34.56621094 1.55664062 33.31445312 C1.51732422 32.03505859 1.47800781 30.75566406 1.4375 29.4375 C1.37272461 27.51260742 1.37272461 27.51260742 1.30664062 25.54882812 C1.200152 22.36600147 1.09814038 19.18309326 1 16 C-2.3 14.35 -5.6 12.7 -9 11 C-9.33 13.31 -9.66 15.62 -10 18 C-11.32 18 -12.64 18 -14 18 C-14 13.71 -14 9.42 -14 5 C-12.246875 4.175 -10.49375 3.35 -8.6875 2.5 C-7.70136719 2.0359375 -6.71523437 1.571875 -5.69921875 1.09375 C-3 0 -3 0 0 0 Z M14.125 10.4375 C11.44375 11.943125 8.7625 13.44875 6 15 C6 23.58 6 32.16 6 41 C8.825625 42.69125 11.65125 44.3825 14.5625 46.125 C15.43849854 46.66527832 16.31449707 47.20555664 17.21704102 47.76220703 C21.06698244 49.98043415 23.11458299 51.10686067 27.625 50.5625 C31.35610128 48.8351383 34.91210611 46.98572369 38.4375 44.875 C40.603125 43.59625 42.76875 42.3175 45 41 C45 32.42 45 23.84 45 15 C42.48375 13.700625 39.9675 12.40125 37.375 11.0625 C36.20396729 10.44967163 36.20396729 10.44967163 35.00927734 9.82446289 C26.49248691 5.49904038 22.336116 5.71559203 14.125 10.4375 Z " fill="#F9F3E6" transform="translate(113,54)"/>
<path d="M0 0 C0.33 0 0.66 0 1 0 C1 14.19 1 28.38 1 43 C1.99 43 2.98 43 4 43 C4 68.74 4 94.48 4 121 C6.475 120.505 6.475 120.505 9 120 C11.34911415 119.91971054 13.70031669 119.89234177 16.05078125 119.90234375 C16.70958786 119.9037587 17.36839447 119.90517365 18.04716492 119.90663147 C20.13565762 119.912195 22.22404011 119.92474053 24.3125 119.9375 C25.73502449 119.94251972 27.15755066 119.9470818 28.58007812 119.95117188 C32.05342077 119.96215243 35.52669961 119.97939165 39 120 C39 120.66 39 121.32 39 122 C39.76812012 121.74875366 39.76812012 121.74875366 40.55175781 121.49243164 C43.8178215 120.83550599 46.84293326 120.99830492 50.171875 121.12109375 C50.8542926 121.14470474 51.53671021 121.16831573 52.23980713 121.19264221 C54.41010058 121.2689496 56.58000714 121.35311406 58.75 121.4375 C60.22524176 121.49075373 61.70050216 121.54349389 63.17578125 121.59570312 C66.78408912 121.7245195 70.3920921 121.86038194 74 122 C74 122.33 74 122.66 74 123 C49.58 123 25.16 123 0 123 C0 82.41 0 41.82 0 0 Z " fill="#CC5B12" transform="translate(76,21)"/>
<path d="M0 0 C2.47045789 0.42594102 3.71823222 -0.41598027 5.8125 -1.6875 C6.1425 -0.3675 6.4725 0.9525 6.8125 2.3125 C5.8225 2.9725 4.8325 3.6325 3.8125 4.3125 C3.4921478 7.07335062 3.4921478 7.07335062 3.5625 10.1875 C3.26366103 15.89260755 3.26366103 15.89260755 1.234375 17.78125 C-0.56966297 18.63193457 -2.3784281 19.47257376 -4.1875 20.3125 C-5.23925552 23.43938428 -5.23925552 23.43938428 -5.1875 26.3125 C-6.5075 26.3125 -7.8275 26.3125 -9.1875 26.3125 C-9.208125 25.405 -9.22875 24.4975 -9.25 23.5625 C-9.559375 22.49 -9.86875 21.4175 -10.1875 20.3125 C-11.3425 19.77625 -12.4975 19.24 -13.6875 18.6875 C-15.609375 17.78125 -15.609375 17.78125 -17.1875 16.3125 C-17.83103496 13.14700372 -17.93765672 10.21954886 -17.921875 6.9921875 C-18.00953125 6.10789062 -18.0971875 5.22359375 -18.1875 4.3125 C-19.1775 3.6525 -20.1675 2.9925 -21.1875 2.3125 C-21.1875 1.3225 -21.1875 0.3325 -21.1875 -0.6875 C-19.33125 -0.378125 -19.33125 -0.378125 -17.4375 -0.0625 C-11.00029506 0.77174372 -6.95646036 -2.18631611 0 0 Z " fill="#F9F3E6" transform="translate(145.1875,72.6875)"/>
<path d="M0 0 C40.92 0 81.84 0 124 0 C124 1.32 124 2.64 124 4 C123.15697327 3.99777939 122.31394653 3.99555878 121.44537354 3.99327087 C113.4999032 3.97323224 105.55444136 3.95800761 97.60895157 3.94818783 C93.52412081 3.94296968 89.43931093 3.93589139 85.35449219 3.92456055 C81.41228785 3.91369376 77.4701036 3.90771511 73.52788544 3.90512276 C72.0240014 3.90327536 70.52011846 3.89966787 69.01624298 3.89426994 C66.90956752 3.88700922 64.80297503 3.88601119 62.69628906 3.88647461 C61.49715881 3.884254 60.29802856 3.88203339 59.06256104 3.87974548 C56.47787717 3.98123568 54.46933382 4.34318364 52 5 C49.23123519 4.91382359 46.50834926 4.77449327 43.75 4.5625 C42.63238281 4.48418945 42.63238281 4.48418945 41.4921875 4.40429688 C39.66105139 4.2751783 37.83046187 4.13834886 36 4 C36 3.34 36 2.68 36 2 C24.12 1.67 12.24 1.34 0 1 C0 0.67 0 0.34 0 0 Z " fill="#EA902C" transform="translate(76,20)"/>
<path d="M0 0 C3.96 1.98 7.92 3.96 12 6 C11.99097656 7.90265625 11.98195313 9.8053125 11.97265625 11.765625 C12.00079324 14.26043775 12.03084048 16.75522947 12.0625 19.25 C12.05154297 20.50425781 12.04058594 21.75851563 12.02929688 23.05078125 C11.85041331 29.39727833 11.85041331 29.39727833 14.62060547 34.75195312 C16.73010795 36.042128 16.73010795 36.042128 20 37 C19.67 37.99 19.34 38.98 19 40 C18.01 40 17.02 40 16 40 C16.33 42.64 16.66 45.28 17 48 C11.08978493 48.42596145 7.5923042 47.25707786 2.5625 44.5 C1.92634766 44.16613281 1.29019531 43.83226562 0.63476562 43.48828125 C-0.91693107 42.67159878 -2.45947571 41.8375666 -4 41 C-4 36.71 -4 32.42 -4 28 C-2.68 28 -1.36 28 0 28 C0.33 29.32 0.66 30.64 1 32 C1.7425 31.95875 2.485 31.9175 3.25 31.875 C6 32 6 32 10 34 C10 25.09 10 16.18 10 7 C8.02 6.34 6.04 5.68 4 5 C4 5.66 4 6.32 4 7 C4.99 7.33 5.98 7.66 7 8 C4.03 7.505 4.03 7.505 1 7 C1 7.66 1 8.32 1 9 C-0.65 9 -2.3 9 -4 9 C-2.68 8.67 -1.36 8.34 0 8 C0 5.36 0 2.72 0 0 Z " fill="#D96A15" transform="translate(103,64)"/>
<path d="M0 0 C0.33 0 0.66 0 1 0 C1.33 1.65 1.66 3.3 2 5 C2.969375 5.144375 3.93875 5.28875 4.9375 5.4375 C8 6 8 6 9 7 C9.05275361 8.93722983 9.09219784 10.87482965 9.125 12.8125 C9.3048507 17.19449313 9.3048507 17.19449313 11.62109375 20.68359375 C13.749875 21.91733741 13.749875 21.91733741 17 23 C17 25.31 17 27.62 17 30 C17.99 30 18.98 30 20 30 C20.33 31.32 20.66 32.64 21 34 C18 35 18 35 16.00708008 34.19555664 C15.26868896 33.77137451 14.53029785 33.34719238 13.76953125 32.91015625 C13.04612549 32.501604 12.32271973 32.09305176 11.57739258 31.67211914 C10.20877075 30.87535767 10.20877075 30.87535767 8.8125 30.0625 C5.904375 28.391875 2.99625 26.72125 0 25 C0 16.75 0 8.5 0 0 Z " fill="#DC6F10" transform="translate(119,70)"/>
<path d="M0 0 C1.9375 0.75 1.9375 0.75 4 2 C4.75 4.125 4.75 4.125 5 6 C5.66 6 6.32 6 7 6 C6.34 4.35 5.68 2.7 5 1 C6.32 1 7.64 1 9 1 C9.33 1.66 9.66 2.32 10 3 C11.65614657 3.38218767 13.32457024 3.71395102 15 4 C15.66 4.33 16.32 4.66 17 5 C17.99 5.33 18.98 5.66 20 6 C15.32155498 8.99420482 12.68711895 10.40622278 7 10 C5.58422523 11.18424326 5.58422523 11.18424326 5.9375 14.5625 C5.958125 15.696875 5.97875 16.83125 6 18 C7.98 18 9.96 18 12 18 C12 18.99 12 19.98 12 21 C10.35 21.33 8.7 21.66 7 22 C6.896875 22.5775 6.79375 23.155 6.6875 23.75 C5.87465516 26.41021947 4.93155261 27.99690841 3 30 C1.68 30 0.36 30 -1 30 C-1.0246985 26.04900072 -1.04285923 22.09803126 -1.05493164 18.14697266 C-1.06244036 16.14093449 -1.0751447 14.13491798 -1.08789062 12.12890625 C-1.09111328 10.87207031 -1.09433594 9.61523438 -1.09765625 8.3203125 C-1.10289307 7.15773926 -1.10812988 5.99516602 -1.11352539 4.79736328 C-1 2 -1 2 0 0 Z " fill="#EA7C09" transform="translate(163,70)"/>
<path d="M0 0 C0.66 0.33 1.32 0.66 2 1 C2 6.61 2 12.22 2 18 C-4.435 20.475 -4.435 20.475 -11 23 C-11.66 21.35 -12.32 19.7 -13 18 C-13.66 17.67 -14.32 17.34 -15 17 C-15 16.34 -15 15.68 -15 15 C-16.65 15.33 -18.3 15.66 -20 16 C-19.3125 13.5625 -19.3125 13.5625 -18 11 C-15.375 10.1875 -15.375 10.1875 -13 10 C-13 10.66 -13 11.32 -13 12 C-12.34 12 -11.68 12 -11 12 C-10.67 11.34 -10.34 10.68 -10 10 C-9.67 10.33 -9.34 10.66 -9 11 C-6.84622436 8.37801226 -5.59927826 6.35595828 -5 3 C-3.35 3 -1.7 3 0 3 C0 2.01 0 1.02 0 0 Z " fill="#E37608" transform="translate(175,88)"/>
<path d="M0 0 C2.72103626 1.24134866 5.37480151 2.56746783 8 4 C8 4.99 8 5.98 8 7 C5.03 6.505 5.03 6.505 2 6 C2 6.66 2 7.32 2 8 C0.35 8.33 -1.3 8.66 -3 9 C-2.34 9.33 -1.68 9.66 -1 10 C-0.4375 11.9375 -0.4375 11.9375 0 14 C0.33 14.66 0.66 15.32 1 16 C-0.60875 15.690625 -0.60875 15.690625 -2.25 15.375 C-5.8283632 14.64744483 -5.8283632 14.64744483 -7.9375 16.125 C-10.63653171 17.27004375 -11.55561784 16.64424089 -14.25 15.625 C-15.50616116 15.09777907 -16.75835303 14.56054936 -18 14 C-17.67 13.34 -17.34 12.68 -17 12 C-16.34 12.33 -15.68 12.66 -15 13 C-14.67 12.01 -14.34 11.02 -14 10 C-13.34 10.33 -12.68 10.66 -12 11 C-12 10.34 -12 9.68 -12 9 C-11.34 9 -10.68 9 -10 9 C-10 8.34 -10 7.68 -10 7 C-11.98 7 -13.96 7 -16 7 C-16 6.01 -16 5.02 -16 4 C-5.46218487 -2.01863354 -5.46218487 -2.01863354 0 0 Z " fill="#E78013" transform="translate(142,41)"/>
<path d="M0 0 C5.45987752 0.84371109 9.25820402 3.2398501 14 6 C14 9.63 14 13.26 14 17 C11.525 16.01 11.525 16.01 9 15 C8.01 14.67 7.02 14.34 6 14 C5.67 14.99 5.34 15.98 5 17 C3.02 17.33 1.04 17.66 -1 18 C-2.19088986 12.61972975 -3.2919519 7.54708616 -3 2 C-2.01 2 -1.02 2 0 2 C0 1.34 0 0.68 0 0 Z " fill="#D96B12" transform="translate(122,102)"/>
<path d="M0 0 C0.99 0.66 1.98 1.32 3 2 C5.32387947 2.39387788 7.65793749 2.73486085 10 3 C10 3.99 10 4.98 10 6 C8.68 5.34 7.36 4.68 6 4 C6 4.99 6 5.98 6 7 C8.475 7.495 8.475 7.495 11 8 C10.67 9.65 10.34 11.3 10 13 C8.35 13 6.7 13 5 13 C4.67 12.34 4.34 11.68 4 11 C6.475 11.495 6.475 11.495 9 12 C7.36526484 8.87525373 7.36526484 8.87525373 4.875 8.3125 C4.25625 8.209375 3.6375 8.10625 3 8 C2.67 9.65 2.34 11.3 2 13 C1.34 13 0.68 13 0 13 C-0.66 12.34 -1.32 11.68 -2 11 C-2.66 11.66 -3.32 12.32 -4 13 C-4.66 13 -5.32 13 -6 13 C-6.99 13.495 -6.99 13.495 -8 14 C-8 12.68 -8 11.36 -8 10 C-9.65 10 -11.3 10 -13 10 C-12.67 8.02 -12.34 6.04 -12 4 C-11.01 4 -10.02 4 -9 4 C-8.01 5.485 -8.01 5.485 -7 7 C-6.67 5.68 -6.34 4.36 -6 3 C-5.01 3 -4.02 3 -3 3 C-2.67 2.34 -2.34 1.68 -2 1 C-1.34 1.33 -0.68 1.66 0 2 C0 1.34 0 0.68 0 0 Z " fill="#F2F3F2" transform="translate(81,148)"/>
<path d="M0 0 C0 3.3 0 6.6 0 10 C-4.53815546 12.26907773 -6.17169942 12.00210012 -11 11 C-12 10 -12 10 -12.09765625 7.71484375 C-12.08605469 6.79832031 -12.07445312 5.88179688 -12.0625 4.9375 C-12.05347656 4.01839844 -12.04445312 3.09929687 -12.03515625 2.15234375 C-12.02355469 1.44207031 -12.01195312 0.73179688 -12 0 C-7.45950903 -2.20538133 -4.52381649 -2.26190825 0 0 Z " fill="#D98025" transform="translate(144,77)"/>
<path d="M0 0 C5.45987752 0.84371109 9.25820402 3.2398501 14 6 C14 9.96 14 13.92 14 18 C12.68 18 11.36 18 10 18 C9.67 15.69 9.34 13.38 9 11 C7.02 11.66 5.04 12.32 3 13 C2.01 12.01 1.02 11.02 0 10 C1.98 9.34 3.96 8.68 6 8 C5.10603065 5.74433732 5.10603065 5.74433732 2.4375 4.5625 C1.633125 4.046875 0.82875 3.53125 0 3 C0 2.01 0 1.02 0 0 Z " fill="#FAFAEE" transform="translate(163,54)"/>
<path d="M0 0 C5.78268793 0.45652799 11.25759726 2.68656983 16 6 C16.79296875 8.16796875 16.79296875 8.16796875 17 10 C14.37888816 11.40416706 11.96836854 12.6169847 9 13 C8.01 12.34 7.02 11.68 6 11 C4.0103005 10.60986284 2.00980131 10.26797351 0 10 C0 6.7 0 3.4 0 0 Z " fill="#E7790D" transform="translate(136,60)"/>
<path d="M0 0 C3.44165321 0.35299007 5.06872538 1.04581692 8 3 C9.67654729 2.72057545 11.34608154 2.39171753 13 2 C14 3 14 3 14.125 6 C14 9 14 9 13 10 C11.02229366 9.73630582 9.04482618 9.4702167 7.0703125 9.18359375 C4.57290867 8.96212586 2.44018103 9.49760979 0 10 C-2 8 -2 8 -2.25 5 C-2 2 -2 2 0 0 Z " fill="#B6B6B6" transform="translate(150,151)"/>
<path d="M0 0 C-0.639375 0.226875 -1.27875 0.45375 -1.9375 0.6875 C-4.27193661 1.85250896 -4.27193661 1.85250896 -4.75 4.625 C-4.8325 5.40875 -4.915 6.1925 -5 7 C-4.34 7 -3.68 7 -3 7 C-2.67 5.68 -2.34 4.36 -2 3 C-1 4 -1 4 -0.90234375 6.94140625 C-0.91394531 8.13636719 -0.92554688 9.33132812 -0.9375 10.5625 C-0.94652344 11.76003906 -0.95554688 12.95757812 -0.96484375 14.19140625 C-0.97644531 15.11824219 -0.98804688 16.04507813 -1 17 C-1.99 16.67 -2.98 16.34 -4 16 C-4 16.66 -4 17.32 -4 18 C-3.34 18 -2.68 18 -2 18 C-2.33 19.32 -2.66 20.64 -3 22 C-4.65 22.33 -6.3 22.66 -8 23 C-8.33 22.01 -8.66 21.02 -9 20 C-9.66 19.67 -10.32 19.34 -11 19 C-9.35 18.34 -7.7 17.68 -6 17 C-6 11.72 -6 6.44 -6 1 C-6.66 0.67 -7.32 0.34 -8 0 C-4.71023192 -1.09658936 -3.28696233 -0.79953138 0 0 Z " fill="#EC7B0A" transform="translate(184,89)"/>
<path d="M0 0 C0.66 0.99 1.32 1.98 2 3 C3.98 2.67 5.96 2.34 8 2 C8 4.31 8 6.62 8 9 C8.66 9.33 9.32 9.66 10 10 C5 10 0 10 -5 10 C-5.625 7.125 -5.625 7.125 -6 4 C-5.34 3.34 -4.68 2.68 -4 2 C-2.68 2 -1.36 2 0 2 C0 1.34 0 0.68 0 0 Z " fill="#909090" transform="translate(127,151)"/>
<path d="M0 0 C2.6274838 1.28680869 5.25196683 2.57917678 7.875 3.875 C8.62136719 4.23980469 9.36773437 4.60460937 10.13671875 4.98046875 C10.85214844 5.33496094 11.56757813 5.68945312 12.3046875 6.0546875 C12.96452637 6.37937012 13.62436523 6.70405273 14.30419922 7.03857422 C16 8 16 8 18 10 C17.67 10.33 17.34 10.66 17 11 C19.97 11.495 19.97 11.495 23 12 C23 12.33 23 12.66 23 13 C21.35 13 19.7 13 18 13 C18 16.96 18 20.92 18 25 C17.34 24.67 16.68 24.34 16 24 C16.33 20.37 16.66 16.74 17 13 C16.16210938 12.75507812 15.32421875 12.51015625 14.4609375 12.2578125 C10.55573153 10.838539 7.19028729 8.98142234 3.625 6.875 C2.98433594 6.50246094 2.34367187 6.12992187 1.68359375 5.74609375 C0.11951523 4.83565998 -1.44065534 3.91851809 -3 3 C-2.01 2.67 -1.02 2.34 0 2 C0 1.34 0 0.68 0 0 Z " fill="#F7EDDC" transform="translate(119,95)"/>
<path d="M0 0 C1.32 0 2.64 0 4 0 C3.96777344 0.66386719 3.93554688 1.32773438 3.90234375 2.01171875 C3.94044143 4.91137585 4.11214812 7.2307477 5 10 C7.73604033 12.34886481 10.6482468 13.71346847 14 15 C13.67 16.32 13.34 17.64 13 19 C8.49487506 17.31057815 4.2840266 15.17831861 0 13 C0 8.71 0 4.42 0 0 Z " fill="#F7EEE0" transform="translate(99,92)"/>
<path d="M0 0 C1.32 0 2.64 0 4 0 C4 4.62 4 9.24 4 14 C-0.29 15.65 -4.58 17.3 -9 19 C-9.33 17.68 -9.66 16.36 -10 15 C-8.71086513 14.32845067 -7.41859796 13.66291141 -6.125 13 C-5.40570313 12.62875 -4.68640625 12.2575 -3.9453125 11.875 C-2 11 -2 11 0 11 C0 7.37 0 3.74 0 0 Z " fill="#FAF5E3" transform="translate(173,92)"/>
<path d="M0 0 C1.47793555 2.95587111 1.17053651 5.64997645 1.1875 8.9375 C1.20167969 10.18402344 1.21585938 11.43054688 1.23046875 12.71484375 C1 16 1 16 -1 19 C-2.9375 18.1875 -2.9375 18.1875 -5 17 C-6.11707194 13.64878418 -6.00566557 11.44437936 -5.75 7.9375 C-5.68296875 6.87402344 -5.6159375 5.81054688 -5.546875 4.71484375 C-4.86135145 1.31170899 -3.60197643 0 0 0 Z " fill="#E17207" transform="translate(153,77)"/>
<path d="M0 0 C15.84 0 31.68 0 48 0 C48 0.99 48 1.98 48 3 C31.87061839 3.26525232 16.04248887 2.71777754 0 1 C0 0.67 0 0.34 0 0 Z " fill="#F89201" transform="translate(152,21)"/>
<path d="M0 0 C2.72103626 1.24134866 5.37480151 2.56746783 8 4 C8 4.99 8 5.98 8 7 C2.42666667 6.24 2.42666667 6.24 0 4.875 C-2.93496768 3.59095164 -4.9445048 4.2361262 -8 5 C-8.70125 5.350625 -9.4025 5.70125 -10.125 6.0625 C-12 7 -12 7 -16 7 C-16 6.01 -16 5.02 -16 4 C-5.46218487 -2.01863354 -5.46218487 -2.01863354 0 0 Z " fill="#F9F2E3" transform="translate(142,41)"/>
<path d="M0 0 C0.99 0.33 1.98 0.66 3 1 C2.67 1.33 2.34 1.66 2 2 C2.44096109 4.48040613 3.0382454 6.90967454 3.625 9.359375 C4 12 4 12 3 17 C-0.96 17 -4.92 17 -9 17 C-6.49273047 11.98546093 -4.87887159 11.4394358 0 9 C0.66 9 1.32 9 2 9 C1.22520264 6.00847418 1.22520264 6.00847418 0 3 C-0.99 2.67 -1.98 2.34 -3 2 C-2.01 1.34 -1.02 0.68 0 0 Z " fill="#D86B12" transform="translate(148,110)"/>
<path d="M0 0 C0.99 0.33 1.98 0.66 3 1 C3 1.66 3 2.32 3 3 C1.02 3.99 1.02 3.99 -1 5 C-1.33 12.59 -1.66 20.18 -2 28 C-2.99 27.67 -3.98 27.34 -5 27 C-5.19585353 23.02119772 -5.3802867 19.04194844 -5.5625 15.0625 C-5.61857422 13.92619141 -5.67464844 12.78988281 -5.73242188 11.61914062 C-5.78076172 10.53955078 -5.82910156 9.45996094 -5.87890625 8.34765625 C-5.9260376 7.34742432 -5.97316895 6.34719238 -6.02172852 5.31665039 C-6 3 -6 3 -5 2 C-3.33382885 1.95936168 -1.66611905 1.957279 0 2 C0 1.34 0 0.68 0 0 Z " fill="#F7FDFD" transform="translate(163,65)"/>
<path d="M0 0 C0.33 0 0.66 0 1 0 C0.93296875 0.79664062 0.8659375 1.59328125 0.796875 2.4140625 C0.74527599 5.94859473 0.88201163 8.63318444 2 12 C5.68954696 14.87374128 9.5968444 16.48579264 14 18 C14 18.33 14 18.66 14 19 C12.41676312 19.027193 10.83338938 19.04648306 9.25 19.0625 C7.92742187 19.07990234 7.92742187 19.07990234 6.578125 19.09765625 C4 19 4 19 1.796875 18.43359375 C-0.08672935 17.77480505 -0.08672935 17.77480505 -2 19 C-2.05411124 16.58303128 -2.09372278 14.16728213 -2.125 11.75 C-2.14175781 11.06808594 -2.15851563 10.38617188 -2.17578125 9.68359375 C-2.21213482 5.9391765 -2.07944349 3.17647273 0 0 Z " fill="#D06214" transform="translate(98,93)"/>
<path d="M0 0 C2.64 0 5.28 0 8 0 C8 0.99 8 1.98 8 3 C6.68 2.34 5.36 1.68 4 1 C4 1.99 4 2.98 4 4 C5.65 4.33 7.3 4.66 9 5 C8.67 6.65 8.34 8.3 8 10 C6.35 10 4.7 10 3 10 C2.67 9.34 2.34 8.68 2 8 C3.65 8.33 5.3 8.66 7 9 C5.36526484 5.87525373 5.36526484 5.87525373 2.875 5.3125 C2.25625 5.209375 1.6375 5.10625 1 5 C0.67 6.65 0.34 8.3 0 10 C-0.66 10 -1.32 10 -2 10 C-2.66 9.34 -3.32 8.68 -4 8 C-4.66 8.66 -5.32 9.32 -6 10 C-7 9 -7 9 -7.0625 5.9375 C-7.041875 4.968125 -7.02125 3.99875 -7 3 C-6.01 3 -5.02 3 -4 3 C-3.34 3.66 -2.68 4.32 -2 5 C-1.34 3.35 -0.68 1.7 0 0 Z " fill="#686969" transform="translate(83,151)"/>
<path d="M0 0 C3.96 1.98 7.92 3.96 12 6 C12 14.91 12 23.82 12 33 C11.67 33 11.34 33 11 33 C10.67 24.42 10.34 15.84 10 7 C8.02 6.34 6.04 5.68 4 5 C4 5.66 4 6.32 4 7 C4.99 7.33 5.98 7.66 7 8 C4.03 7.505 4.03 7.505 1 7 C1 7.66 1 8.32 1 9 C-0.65 9 -2.3 9 -4 9 C-2.68 8.67 -1.36 8.34 0 8 C0 5.36 0 2.72 0 0 Z " fill="#D98435" transform="translate(103,64)"/>
<path d="M0 0 C1.98 0.66 3.96 1.32 6 2 C6 10.58 6 19.16 6 28 C5.67 28 5.34 28 5 28 C4.67 20.08 4.34 12.16 4 4 C3.34 3.67 2.68 3.34 2 3 C2.33 3.66 2.66 4.32 3 5 C3.13415472 7.6723621 3.04318541 10.32250488 3 13 C2.34 12.67 1.68 12.34 1 12 C1 11.34 1 10.68 1 10 C-0.65 10.66 -2.3 11.32 -4 12 C-3.67 11.01 -3.34 10.02 -3 9 C-2.34 8.67 -1.68 8.34 -1 8 C-1.7763932 4.9254644 -1.7763932 4.9254644 -4 3 C-2.68 2.67 -1.36 2.34 0 2 C0 1.34 0 0.68 0 0 Z " fill="#E2963F" transform="translate(152,67)"/>
<path d="M0 0 C0 0.99 0 1.98 0 3 C-0.99 3.495 -0.99 3.495 -2 4 C-1.34 4.33 -0.68 4.66 0 5 C0 6.32 0 7.64 0 9 C-1.98 8.34 -3.96 7.68 -6 7 C-6 7.66 -6 8.32 -6 9 C-6.99 9 -7.98 9 -9 9 C-9 6.36 -9 3.72 -9 1 C-6.04335481 -0.4783226 -3.25770263 -0.06032783 0 0 Z " fill="#E5740A" transform="translate(142,77)"/>
<path d="M0 0 C0 0.66 0 1.32 0 2 C-0.99 2.66 -1.98 3.32 -3 4 C-2.34 4.66 -1.68 5.32 -1 6 C-2.32 6.33 -3.64 6.66 -5 7 C-4.2236068 10.0745356 -4.2236068 10.0745356 -2 12 C-6.75 15 -6.75 15 -9 15 C-9 11.37 -9 7.74 -9 4 C-2.25 0 -2.25 0 0 0 Z " fill="#D6711A" transform="translate(149,104)"/>
<path d="M0 0 C5.36716665 -0.83861979 8.79627239 2.07929595 13 5 C12.34 5.66 11.68 6.32 11 7 C11.33 7.66 11.66 8.32 12 9 C10 8 8 7 6 6 C6 6.66 6 7.32 6 8 C5.34 8 4.68 8 4 8 C4 7.34 4 6.68 4 6 C2.68 6 1.36 6 0 6 C0 4.02 0 2.04 0 0 Z " fill="#D9660F" transform="translate(104,96)"/>
<path d="M0 0 C10.71600323 -0.12825004 21.312837 0.20414744 32 1 C26.43420469 3.98167606 21.98564516 4.04174128 15.75 3.5625 C15.00492188 3.51029297 14.25984375 3.45808594 13.4921875 3.40429688 C11.66105139 3.2751783 9.83046187 3.13834886 8 3 C8 2.34 8 1.68 8 1 C5.36 1 2.72 1 0 1 C0 0.67 0 0.34 0 0 Z " fill="#EC8006" transform="translate(104,21)"/>
<path d="M0 0 C0.66 0.33 1.32 0.66 2 1 C2 1.99 2 2.98 2 4 C0.68 4 -0.64 4 -2 4 C-2 7.63 -2 11.26 -2 15 C-3.32 15.33 -4.64 15.66 -6 16 C-7.0070238 10.96488101 -6.97387813 7.76052962 -5 3 C-3.35 3 -1.7 3 0 3 C0 2.01 0 1.02 0 0 Z " fill="#E17E15" transform="translate(175,88)"/>
<path d="M0 0 C0.89130413 2.6739124 1.47731534 5.23723823 2 8 C1.34 8 0.68 8 0 8 C-0.33 9.32 -0.66 10.64 -1 12 C-1.33 9.36 -1.66 6.72 -2 4 C-2.99 4 -3.98 4 -5 4 C-5.33 12.58 -5.66 21.16 -6 30 C-6.66 29.67 -7.32 29.34 -8 29 C-7.67 20.09 -7.34 11.18 -7 2 C-4.69 1.34 -2.38 0.68 0 0 Z " fill="#EE9C48" transform="translate(168,68)"/>
<path d="M0 0 C0.33 1.32 0.66 2.64 1 4 C-0.5506316 5.03877263 -2.11609681 6.05542555 -3.6875 7.0625 C-4.55761719 7.63097656 -5.42773438 8.19945313 -6.32421875 8.78515625 C-9.42822437 10.19442012 -10.8040576 10.00772958 -14 9 C-13 7 -13 7 -10 6 C-9.54625 5.54625 -9.0925 5.0925 -8.625 4.625 C-6.20599402 2.20599402 -3.51155992 0 0 0 Z " fill="#F9F1E5" transform="translate(149,115)"/>
<path d="M0 0 C0.33 0 0.66 0 1 0 C1.33 8.91 1.66 17.82 2 27 C1.01 27 0.02 27 -1 27 C-1.02886537 22.68751391 -1.04675255 18.37505238 -1.0625 14.0625 C-1.07087891 12.83080078 -1.07925781 11.59910156 -1.08789062 10.33007812 C-1.09111328 9.16025391 -1.09433594 7.99042969 -1.09765625 6.78515625 C-1.10289307 5.70113525 -1.10812988 4.61711426 -1.11352539 3.50024414 C-1 1 -1 1 0 0 Z " fill="#FAFDFD" transform="translate(117,70)"/>
<path d="M0 0 C0.99 0.33 1.98 0.66 3 1 C3 5.29 3 9.58 3 14 C1.68 14 0.36 14 -1 14 C-1.02685938 11.85423363 -1.04633088 9.70837355 -1.0625 7.5625 C-1.07410156 6.36753906 -1.08570313 5.17257813 -1.09765625 3.94140625 C-1 1 -1 1 0 0 Z " fill="#F9F8F1" transform="translate(145,75)"/>
<path d="M0 0 C1.48643845 0.56454632 2.96406016 1.15234889 4.4375 1.75 C5.67306641 2.23726563 5.67306641 2.23726563 6.93359375 2.734375 C9 4 9 4 10 8 C6.7 8 3.4 8 0 8 C0 5.36 0 2.72 0 0 Z " fill="#D46716" transform="translate(128,120)"/>
<path d="M0 0 C-0.1875 1.875 -0.1875 1.875 -1 4 C-3.5625 5.25 -3.5625 5.25 -6 6 C-6 6.66 -6 7.32 -6 8 C-5.34 8.33 -4.68 8.66 -4 9 C-5.98 9 -7.96 9 -10 9 C-10 7.68 -10 6.36 -10 5 C-10.66 4.67 -11.32 4.34 -12 4 C-10.56570999 3.32645501 -9.12742943 2.66140299 -7.6875 2 C-6.88699219 1.62875 -6.08648437 1.2575 -5.26171875 0.875 C-3 0 -3 0 0 0 Z " fill="#F8EDD9" transform="translate(113,54)"/>
<path d="M0 0 C0 2.31 0 4.62 0 7 C0.66 7.33 1.32 7.66 2 8 C-4.75 8.125 -4.75 8.125 -7 7 C-7.1875 4.625 -7.1875 4.625 -7 2 C-4 0 -4 0 0 0 Z " fill="#B6B6B6" transform="translate(135,153)"/>
<path d="M0 0 C2.625 0.375 2.625 0.375 5 1 C5.04254356 2.99954746 5.04080783 5.00041636 5 7 C4 8 4 8 1.4375 8.0625 C0.633125 8.041875 -0.17125 8.02125 -1 8 C-1.625 5.125 -1.625 5.125 -2 2 C-1.34 1.34 -0.68 0.68 0 0 Z " fill="#494949" transform="translate(159,153)"/>
<path d="M0 0 C0.05410687 1.77049689 0.09284119 3.54146849 0.125 5.3125 C0.14820313 6.29863281 0.17140625 7.28476563 0.1953125 8.30078125 C0 11 0 11 -2 14 C-2.66 13.67 -3.32 13.34 -4 13 C-4 9.04 -4 5.08 -4 1 C-2 0 -2 0 0 0 Z " fill="#E8790D" transform="translate(153,77)"/>
<path d="M0 0 C1.32 0 2.64 0 4 0 C4.05447047 1.41623216 4.09300508 2.83308191 4.125 4.25 C4.14820312 5.03890625 4.17140625 5.8278125 4.1953125 6.640625 C3.9828378 9.20731941 3.28654105 10.7916067 2 13 C1.34 13 0.68 13 0 13 C0 8.71 0 4.42 0 0 Z " fill="#FAF1E3" transform="translate(99,92)"/>
<path d="M0 0 C0.33 0 0.66 0 1 0 C1 4.29 1 8.58 1 13 C2.65 13 4.3 13 6 13 C6 13.66 6 14.32 6 15 C4.68 15 3.36 15 2 15 C2.33 16.32 2.66 17.64 3 19 C1.68 19.33 0.36 19.66 -1 20 C-2.25180279 15.78080897 -1.67252421 12.03911435 -1.0625 7.75 C-0.96259766 7.00492187 -0.86269531 6.25984375 -0.75976562 5.4921875 C-0.51319844 3.66054558 -0.25749609 1.83013749 0 0 Z " fill="#D56B14" transform="translate(98,60)"/>
<path d="M0 0 C0 2.64 0 5.28 0 8 C1.65 8 3.3 8 5 8 C5 8.66 5 9.32 5 10 C3.35 10 1.7 10 0 10 C-0.33 9.01 -0.66 8.02 -1 7 C-1.99 7.33 -2.98 7.66 -4 8 C-4.33 7.01 -4.66 6.02 -5 5 C-7.01508358 4.26676204 -7.01508358 4.26676204 -9 4 C-7.68872739 3.3309224 -6.3759455 2.66480194 -5.0625 2 C-4.33160156 1.62875 -3.60070312 1.2575 -2.84765625 0.875 C-1 0 -1 0 0 0 Z " fill="#E88E1E" transform="translate(173,64)"/>
<path d="M0 0 C0.66 0.33 1.32 0.66 2 1 C2 1.66 2 2.32 2 3 C1.34 3 0.68 3 0 3 C0.33 5.97 0.66 8.94 1 12 C0.01 11.67 -0.98 11.34 -2 11 C-1.67 8.69 -1.34 6.38 -1 4 C-1.66 4 -2.32 4 -3 4 C-3.33 5.98 -3.66 7.96 -4 10 C-4.66 9.67 -5.32 9.34 -6 9 C-5.67 8.01 -5.34 7.02 -5 6 C-6.65 6.33 -8.3 6.66 -10 7 C-10 6.34 -10 5.68 -10 5 C-8.27473958 4.28385417 -6.54947917 3.56770833 -4.82421875 2.8515625 C-2.73466068 1.93193308 -2.73466068 1.93193308 0 0 Z " fill="#E37E1E" transform="translate(118,48)"/>
<path d="M0 0 C0.99 0.33 1.98 0.66 3 1 C2.67 1.33 2.34 1.66 2 2 C2.25245197 3.69752187 2.57645775 5.38471545 2.9375 7.0625 C3.22947266 8.44115234 3.22947266 8.44115234 3.52734375 9.84765625 C3.68332031 10.55792969 3.83929688 11.26820312 4 12 C3.01 12 2.02 12 1 12 C1 12.66 1 13.32 1 14 C-1.97 13.505 -1.97 13.505 -5 13 C-2.82575883 10.49962266 -1.26954202 9.56371414 2 9 C1.22520264 6.00847418 1.22520264 6.00847418 0 3 C-0.99 2.67 -1.98 2.34 -3 2 C-2.01 1.34 -1.02 0.68 0 0 Z " fill="#D7721E" transform="translate(148,110)"/>
<path d="M0 0 C1.32 0 2.64 0 4 0 C4 1.65 4 3.3 4 5 C5.98 5 7.96 5 10 5 C10.33 5.66 10.66 6.32 11 7 C8.36 7 5.72 7 3 7 C2.67 7.99 2.34 8.98 2 10 C1.34 10 0.68 10 0 10 C0 6.7 0 3.4 0 0 Z " fill="#EA7906" transform="translate(136,60)"/>
<path d="M0 0 C4.12751449 0.60698743 7.3321148 2.03810791 11 4 C10.67 4.66 10.34 5.32 10 6 C9.34 6 8.68 6 8 6 C8 6.66 8 7.32 8 8 C7.34 8 6.68 8 6 8 C5.67 7.34 5.34 6.68 5 6 C4.154375 5.525625 3.30875 5.05125 2.4375 4.5625 C1.633125 4.046875 0.82875 3.53125 0 3 C0 2.01 0 1.02 0 0 Z " fill="#F9EED5" transform="translate(163,54)"/>
<path d="M0 0 C0.99 0.33 1.98 0.66 3 1 C3 6.94 3 12.88 3 19 C2.34 19 1.68 19 1 19 C0.67 12.73 0.34 6.46 0 0 Z " fill="#EB7704" transform="translate(154,70)"/>
<path d="M0 0 C0.66 0 1.32 0 2 0 C1.65693431 5.31751825 1.65693431 5.31751825 1 8 C-1.76243059 10.36779765 -4.46456208 10.19641322 -8 10 C-8 9.34 -8 8.68 -8 8 C-5.35261084 6.5393715 -4.10551666 6 -1 6 C-0.67 4.02 -0.34 2.04 0 0 Z " fill="#DF730A" transform="translate(115,52)"/>
<path d="M0 0 C0.66 0.33 1.32 0.66 2 1 C2.07414355 4.85546463 2.09847762 8.29263803 1 12 C1 12.66 1 13.32 1 14 C0.01 13.67 -0.98 13.34 -2 13 C-2 9.04 -2 5.08 -2 1 C-1.34 0.67 -0.68 0.34 0 0 Z " fill="#F7EBDE" transform="translate(130,76)"/>
<path d="M0 0 C0.99 0.33 1.98 0.66 3 1 C3 1.66 3 2.32 3 3 C2.36578125 3.22429687 1.7315625 3.44859375 1.078125 3.6796875 C-1.22016157 4.83785757 -1.22016157 4.83785757 -1.828125 7.3828125 C-1.96734375 8.28773437 -2.1065625 9.19265625 -2.25 10.125 C-2.39953125 11.03507812 -2.5490625 11.94515625 -2.703125 12.8828125 C-2.80109375 13.58148438 -2.8990625 14.28015625 -3 15 C-3.33 15 -3.66 15 -4 15 C-4.36098063 13.02206479 -4.71361348 11.04260427 -5.0625 9.0625 C-5.25972656 7.96035156 -5.45695313 6.85820313 -5.66015625 5.72265625 C-5.77230469 4.82417969 -5.88445312 3.92570312 -6 3 C-5 2 -5 2 -2.4375 1.9375 C-1.2309375 1.9684375 -1.2309375 1.9684375 0 2 C0 1.34 0 0.68 0 0 Z " fill="#FBFAF3" transform="translate(163,65)"/>
<path d="M0 0 C1.4540625 0.0309375 1.4540625 0.0309375 2.9375 0.0625 C3.2675 1.0525 3.5975 2.0425 3.9375 3.0625 C2.125 5.0625 2.125 5.0625 -0.0625 7.0625 C-1.0525 7.0625 -2.0425 7.0625 -3.0625 7.0625 C-3.44383299 5.0710944 -3.77575582 3.06970923 -4.0625 1.0625 C-3.0625 0.0625 -3.0625 0.0625 0 0 Z " fill="#EE860D" transform="translate(140.0625,32.9375)"/>
<path d="M0 0 C1.32 0.33 2.64 0.66 4 1 C2.515 2.485 2.515 2.485 1 4 C1.33 4.66 1.66 5.32 2 6 C0.35 5.67 -1.3 5.34 -3 5 C-3 4.01 -3 3.02 -3 2 C-2.01 2 -1.02 2 0 2 C0 1.34 0 0.68 0 0 Z M-3 6 C-2.34 6.33 -1.68 6.66 -1 7 C-1 8.32 -1 9.64 -1 11 C-2.32 10.67 -3.64 10.34 -5 10 C-5 9.01 -5 8.02 -5 7 C-4.34 6.67 -3.68 6.34 -3 6 Z " fill="#E06C08" transform="translate(149,104)"/>
<path d="M0 0 C0.66 0.66 1.32 1.32 2 2 C-4.75 6 -4.75 6 -7 6 C-7 5.34 -7 4.68 -7 4 C-7.66 4 -8.32 4 -9 4 C-9 3.34 -9 2.68 -9 2 C-5.54754176 -0.30163882 -4.05261287 -0.34490322 0 0 Z " fill="#E07B15" transform="translate(129,57)"/>
<path d="M0 0 C0.66 0 1.32 0 2 0 C2.33 2.31 2.66 4.62 3 7 C0.69 7 -1.62 7 -4 7 C-4 5.68 -4 4.36 -4 3 C-2.68 2.67 -1.36 2.34 0 2 C0 1.34 0 0.68 0 0 Z " fill="#868686" transform="translate(144,154)"/>
<path d="M0 0 C2.625 0.375 2.625 0.375 5 1 C5 1.99 5 2.98 5 4 C3.35 4 1.7 4 0 4 C0 4.99 0 5.98 0 7 C1.65 6.67 3.3 6.34 5 6 C4.67 6.66 4.34 7.32 4 8 C2.35 8 0.7 8 -1 8 C-1.625 5.125 -1.625 5.125 -2 2 C-1.34 1.34 -0.68 0.68 0 0 Z " fill="#737373" transform="translate(114,153)"/>
<path d="M0 0 C2.9375 1.1875 2.9375 1.1875 6 3 C6.875 5.6875 6.875 5.6875 7 8 C1.25 6.25 1.25 6.25 -1 4 C-0.625 1.875 -0.625 1.875 0 0 Z " fill="#F9EEDF" transform="translate(128,115)"/>
<path d="M0 0 C1.32 0 2.64 0 4 0 C4 0.66 4 1.32 4 2 C3.34 2 2.68 2 2 2 C2 2.66 2 3.32 2 4 C3.32 4.33 4.64 4.66 6 5 C4.68 5.33 3.36 5.66 2 6 C2 6.99 2 7.98 2 9 C1.01 9 0.02 9 -1 9 C-0.67 6.03 -0.34 3.06 0 0 Z " fill="#E66F07" transform="translate(141,93)"/>
<path d="M0 0 C2.625 0.375 2.625 0.375 5 1 C5 1.99 5 2.98 5 4 C3.35 4 1.7 4 0 4 C-0.33 4.99 -0.66 5.98 -1 7 C-1.625 4.625 -1.625 4.625 -2 2 C-1.34 1.34 -0.68 0.68 0 0 Z " fill="#787878" transform="translate(186,153)"/>
<path d="M0 0 C2.52259061 1.97420135 2.9929808 2.96745642 3.6875 6.1875 C3.790625 7.115625 3.89375 8.04375 4 9 C3.67 8.34 3.34 7.68 3 7 C1.35 7 -0.3 7 -2 7 C-1.125 1.125 -1.125 1.125 0 0 Z " fill="#6C6C6C" transform="translate(70,151)"/>
<path d="M0 0 C0.66 0.33 1.32 0.66 2 1 C1.67 1.33 1.34 1.66 1 2 C1.99 2.66 2.98 3.32 4 4 C1.36 4.99 -1.28 5.98 -4 7 C-4.33 5.68 -4.66 4.36 -5 3 C-2.625 1.4375 -2.625 1.4375 0 0 Z " fill="#FAEBD6" transform="translate(168,104)"/>
<path d="M0 0 C1.32 0 2.64 0 4 0 C4 0.66 4 1.32 4 2 C4.66 2 5.32 2 6 2 C6 1.34 6 0.68 6 0 C7.32 0.66 8.64 1.32 10 2 C10 3.65 10 5.3 10 7 C9.67 6.34 9.34 5.68 9 5 C8.05125 4.690625 7.1025 4.38125 6.125 4.0625 C3.15310098 3.05205433 1.93911169 2.37002539 0 0 Z " fill="#D47226" transform="translate(104,102)"/>
<path d="M0 0 C4.23429756 1.31061591 8.07407404 2.94356259 12 5 C12 5.33 12 5.66 12 6 C7.66831683 6.26252625 4.1196377 5.29243536 0 4 C0 2.68 0 1.36 0 0 Z " fill="#E0821A" transform="translate(140,61)"/>
<path d="M0 0 C1.67542976 0.28604898 3.34385343 0.61781233 5 1 C5 1.66 5 2.32 5 3 C4.01 3 3.02 3 2 3 C2 4.65 2 6.3 2 8 C2.99 8.33 3.98 8.66 5 9 C3.35 8.67 1.7 8.34 0 8 C-0.38063221 5.6739143 -0.71269945 3.33944736 -1 1 C-0.67 0.67 -0.34 0.34 0 0 Z " fill="#686868" transform="translate(204,152)"/>
<path d="M0 0 C0 0.66 0 1.32 0 2 C-0.99 2.66 -1.98 3.32 -3 4 C-2.34 4.66 -1.68 5.32 -1 6 C-1.639375 6.103125 -2.27875 6.20625 -2.9375 6.3125 C-3.618125 6.539375 -4.29875 6.76625 -5 7 C-5.33 7.99 -5.66 8.98 -6 10 C-6.33 7.69 -6.66 5.38 -7 3 C-2.25 0 -2.25 0 0 0 Z " fill="#DD7D29" transform="translate(149,104)"/>
<path d="M0 0 C5.75 0.875 5.75 0.875 8 2 C8 2.99 8 3.98 8 5 C7.01 5 6.02 5 5 5 C5 4.34 5 3.68 5 3 C3.35 3 1.7 3 0 3 C0 2.01 0 1.02 0 0 Z " fill="#F8FBF4" transform="translate(136,40)"/>
<path d="M0 0 C2.97 0.99 5.94 1.98 9 3 C8.34 3.66 7.68 4.32 7 5 C4.54901444 4.60467975 2.36095721 3.78698574 0 3 C0 2.01 0 1.02 0 0 Z " fill="#E38325" transform="translate(125,69)"/>
<path d="M0 0 C2.4375 0.75 2.4375 0.75 5 2 C5.8125 4.125 5.8125 4.125 6 6 C1.73173127 6 1.06117568 5.62386487 -2 3 C-1.34 3 -0.68 3 0 3 C0 2.01 0 1.02 0 0 Z " fill="#F5ECD5" transform="translate(146,59)"/>
<path d="M0 0 C1.0828125 0.37125 1.0828125 0.37125 2.1875 0.75 C2.1875 1.41 2.1875 2.07 2.1875 2.75 C1.1975 3.08 0.2075 3.41 -0.8125 3.75 C-0.8125 3.09 -0.8125 2.43 -0.8125 1.75 C-1.8025 2.41 -2.7925 3.07 -3.8125 3.75 C-3.4825 4.41 -3.1525 5.07 -2.8125 5.75 C-5.2875 4.76 -5.2875 4.76 -7.8125 3.75 C-3.50480769 -0.31153846 -3.50480769 -0.31153846 0 0 Z " fill="#FAECD6" transform="translate(138.8125,55.25)"/>
<path d="M0 0 C5.75 -0.125 5.75 -0.125 8 1 C7.67 2.98 7.34 4.96 7 7 C6.67 6.34 6.34 5.68 6 5 C5.34 4.67 4.68 4.34 4 4 C2.64691687 2.68671343 1.31129922 1.35500919 0 0 Z " fill="#F28918" transform="translate(144,40)"/>
<path d="M0 0 C0.33 0.66 0.66 1.32 1 2 C0.67 2.99 0.34 3.98 0 5 C-1.65 5 -3.3 5 -5 5 C-5 3.68 -5 2.36 -5 1 C-3.35 0.67 -1.7 0.34 0 0 Z " fill="#BCBCBC" transform="translate(191,156)"/>
<path d="M0 0 C1.32 0.33 2.64 0.66 4 1 C3.67 2.65 3.34 4.3 3 6 C2.01 6 1.02 6 0 6 C0 4.02 0 2.04 0 0 Z " fill="#F3F3F3" transform="translate(159,154)"/>
<path d="M0 0 C2.00720923 0.28674418 4.0085944 0.61866701 6 1 C6.33 1.99 6.66 2.98 7 4 C5.88625 3.79375 4.7725 3.5875 3.625 3.375 C2.42875 3.25125 1.2325 3.1275 0 3 C-0.66 3.66 -1.32 4.32 -2 5 C-1.125 1.125 -1.125 1.125 0 0 Z " fill="#DAD8D6" transform="translate(128,148)"/>
<path d="M0 0 C0.66 0.33 1.32 0.66 2 1 C1.6875 2.9375 1.6875 2.9375 1 5 C0.01 5.33 -0.98 5.66 -2 6 C-2.99 5.01 -3.98 4.02 -5 3 C-2.625 1.4375 -2.625 1.4375 0 0 Z " fill="#F7F0DD" transform="translate(150,71)"/>
<path d="M0 0 C1.65 0 3.3 0 5 0 C5.33 0.99 5.66 1.98 6 3 C4.35 3.66 2.7 4.32 1 5 C0.67 3.35 0.34 1.7 0 0 Z " fill="#E68613" transform="translate(163,59)"/>
<path d="M0 0 C1.98 0.99 1.98 0.99 4 2 C3.67 2.33 3.34 2.66 3 3 C2.76572222 5.01594582 2.58663876 7.038474 2.4375 9.0625 C2.31181641 10.71958984 2.31181641 10.71958984 2.18359375 12.41015625 C2.12300781 13.26480469 2.06242187 14.11945313 2 15 C1.67 15 1.34 15 1 15 C0.67 10.05 0.34 5.1 0 0 Z " fill="#DE6B09" transform="translate(96,57)"/>
<path d="M0 0 C2.9375 0.8125 2.9375 0.8125 6 2 C6.33 2.99 6.66 3.98 7 5 C4.03 4.505 4.03 4.505 1 4 C0.67 2.68 0.34 1.36 0 0 Z " fill="#F0F0F0" transform="translate(83,155)"/>
<path d="M0 0 C0 0.66 0 1.32 0 2 C-0.99 2 -1.98 2 -3 2 C-3 2.66 -3 3.32 -3 4 C-5.97 3.505 -5.97 3.505 -9 3 C-6.38997624 -0.48003168 -4.1689578 -0.27793052 0 0 Z " fill="#DC7925" transform="translate(152,120)"/>
<path d="M0 0 C1.32 0.66 2.64 1.32 4 2 C3.67 3.65 3.34 5.3 3 7 C2.34 7 1.68 7 1 7 C1 6.01 1 5.02 1 4 C-0.65 3.67 -2.3 3.34 -4 3 C-2.68 2.01 -1.36 1.02 0 0 Z " fill="#E07F17" transform="translate(134,61)"/>
<path d="M0 0 C1.65 0.33 3.3 0.66 5 1 C5 1.99 5 2.98 5 4 C3.02 4.33 1.04 4.66 -1 5 C-0.67 3.35 -0.34 1.7 0 0 Z " fill="#D36E21" transform="translate(122,115)"/>
<path d="M0 0 C0 0.66 0 1.32 0 2 C0.99 2.33 1.98 2.66 3 3 C3 3.33 3 3.66 3 4 C0.125 4.1875 0.125 4.1875 -3 4 C-3.66 3.01 -4.32 2.02 -5 1 C-3 0 -3 0 0 0 Z " fill="#DE7816" transform="translate(162,98)"/>
<path d="M0 0 C0.66 0 1.32 0 2 0 C1.71890887 1.64767247 1.42481474 3.29313145 1.125 4.9375 C0.96257812 5.85402344 0.80015625 6.77054688 0.6328125 7.71484375 C0.42398438 8.46894531 0.21515625 9.22304687 0 10 C-0.99 10.495 -0.99 10.495 -2 11 C-2.19622241 6.78121808 -1.80230168 3.82989106 0 0 Z " fill="#BAB9B9" transform="translate(75,151)"/>
<path d="M0 0 C0 0.99 0 1.98 0 3 C-1.8125 3.6875 -1.8125 3.6875 -4 4 C-5.75 2.5625 -5.75 2.5625 -7 1 C-3.375 -1.125 -3.375 -1.125 0 0 Z " fill="#FAEEDA" transform="translate(170,63)"/>
<path d="M0 0 C2.64 0 5.28 0 8 0 C8.66 1.32 9.32 2.64 10 4 C6.58978257 3.21302675 3.31114834 2.12880057 0 1 C0 0.67 0 0.34 0 0 Z " fill="#EE7E03" transform="translate(136,53)"/>
<path d="M0 0 C1.32 0.99 2.64 1.98 4 3 C3.01 4.485 3.01 4.485 2 6 C0.68 5.34 -0.64 4.68 -2 4 C-1.34 2.68 -0.68 1.36 0 0 Z " fill="#F3E3D0" transform="translate(102,101)"/>
<path d="M0 0 C2.475 0.495 2.475 0.495 5 1 C4.34 2.32 3.68 3.64 3 5 C2.01 4.34 1.02 3.68 0 3 C0 2.01 0 1.02 0 0 Z " fill="#D9741D" transform="translate(128,97)"/>
<path d="M0 0 C1.98 0.66 3.96 1.32 6 2 C5.34 2.66 4.68 3.32 4 4 C4.33 4.66 4.66 5.32 5 6 C3.02 5.34 1.04 4.68 -1 4 C-0.67 2.68 -0.34 1.36 0 0 Z " fill="#FCF0D9" transform="translate(109,63)"/>
<path d="M0 0 C0.33 0.99 0.66 1.98 1 3 C2.32 3 3.64 3 5 3 C5.33 3.99 5.66 4.98 6 6 C3.0625 5.625 3.0625 5.625 0 5 C-0.33 4.34 -0.66 3.68 -1 3 C-0.67 2.01 -0.34 1.02 0 0 Z " fill="#F8F9F2" transform="translate(104,60)"/>
<path d="M0 0 C0.33 1.32 0.66 2.64 1 4 C0.01 4.33 -0.98 4.66 -2 5 C-2.99 4.01 -3.98 3.02 -5 2 C-2 0 -2 0 0 0 Z " fill="#F8E5CB" transform="translate(149,115)"/>
<path d="M0 0 C1.88391785 3.26545761 2.49287967 6.28111761 3 10 C2.34 10 1.68 10 1 10 C-0.60725635 6.78548731 -0.05748185 3.56387464 0 0 Z " fill="#F5FCF6" transform="translate(130,80)"/>
<path d="M0 0 C0.66 0.33 1.32 0.66 2 1 C2 2.32 2 3.64 2 5 C-0.31 4.67 -2.62 4.34 -5 4 C-3.35 2.68 -1.7 1.36 0 0 Z " fill="#F4EAD7" transform="translate(125,61)"/>
</svg>
