<?xml version="1.0" encoding="UTF-8"?>
<svg xmlns="http://www.w3.org/2000/svg" xmlns:xlink="http://www.w3.org/1999/xlink" width="96px" height="96px" viewBox="0 0 96 96" version="1.1">
<g id="surface1">
<path style=" stroke:none;fill-rule:nonzero;fill:rgb(99.215686%,99.215686%,99.215686%);fill-opacity:1;" d="M 0 0 C 31.679688 0 63.359375 0 96 0 C 96 31.679688 96 63.359375 96 96 C 64.320312 96 32.640625 96 0 96 C 0 64.320312 0 32.640625 0 0 Z M 0 0 "/>
<path style=" stroke:none;fill-rule:nonzero;fill:rgb(99.215686%,99.215686%,99.215686%);fill-opacity:1;" d="M 26.777344 17.886719 C 26.90625 17.972656 27.03125 18.058594 27.160156 18.144531 C 27.570312 18.40625 28.015625 18.617188 28.453125 18.832031 C 28.550781 18.878906 28.644531 18.929688 28.746094 18.976562 C 29.765625 19.484375 30.8125 19.929688 31.875 20.34375 C 31.980469 20.386719 32.085938 20.425781 32.195312 20.46875 C 33.535156 20.988281 34.886719 21.453125 36.265625 21.867188 C 36.378906 21.902344 36.492188 21.9375 36.613281 21.972656 C 37.554688 22.253906 38.515625 22.453125 39.476562 22.65625 C 39.625 22.6875 39.769531 22.714844 39.914062 22.746094 C 40.265625 22.820312 40.617188 22.894531 40.96875 22.96875 C 40.976562 24.988281 40.980469 27.003906 40.984375 29.023438 C 40.984375 29.960938 40.988281 30.898438 40.988281 31.835938 C 40.992188 32.652344 40.996094 33.46875 40.996094 34.289062 C 40.996094 34.71875 40.996094 35.152344 41 35.582031 C 41.015625 39.28125 40.59375 42.636719 38.8125 45.9375 C 38.765625 46.023438 38.765625 46.023438 38.722656 46.109375 C 37.480469 48.417969 35.683594 50.558594 33.636719 52.195312 C 33.46875 52.332031 33.300781 52.46875 33.132812 52.609375 C 31.371094 54.09375 29.347656 55.242188 27.320312 56.316406 C 27.175781 56.394531 27.03125 56.472656 26.886719 56.554688 C 26.824219 56.585938 26.757812 56.621094 26.691406 56.65625 C 26.640625 56.6875 26.585938 56.71875 26.527344 56.75 C 26.152344 56.878906 25.855469 56.839844 25.488281 56.703125 C 25.386719 56.648438 25.28125 56.597656 25.175781 56.542969 C 25.09375 56.503906 25.09375 56.503906 25.003906 56.460938 C 24.820312 56.367188 24.640625 56.273438 24.457031 56.179688 C 24.394531 56.148438 24.332031 56.117188 24.265625 56.082031 C 22.238281 55.050781 20.308594 53.871094 18.5625 52.40625 C 18.46875 52.328125 18.371094 52.25 18.273438 52.167969 C 16.976562 51.097656 15.730469 49.910156 14.71875 48.5625 C 14.636719 48.457031 14.558594 48.355469 14.476562 48.25 C 13.03125 46.363281 12.027344 44.265625 11.34375 42 C 11.316406 41.90625 11.285156 41.8125 11.257812 41.714844 C 10.683594 39.65625 10.742188 37.523438 10.753906 35.402344 C 10.753906 34.964844 10.753906 34.527344 10.753906 34.089844 C 10.753906 33.261719 10.757812 32.433594 10.761719 31.609375 C 10.765625 30.664062 10.765625 29.722656 10.765625 28.777344 C 10.769531 26.84375 10.773438 24.90625 10.78125 22.96875 C 10.847656 22.957031 10.914062 22.941406 10.984375 22.929688 C 11.292969 22.867188 11.597656 22.804688 11.90625 22.746094 C 12.011719 22.722656 12.117188 22.703125 12.226562 22.679688 C 15.5 22.027344 18.730469 21.019531 21.75 19.59375 C 21.84375 19.550781 21.941406 19.503906 22.039062 19.460938 C 22.339844 19.316406 22.644531 19.175781 22.945312 19.03125 C 23.042969 18.984375 23.140625 18.9375 23.242188 18.890625 C 23.707031 18.667969 24.152344 18.441406 24.585938 18.164062 C 25.386719 17.660156 25.90625 17.355469 26.777344 17.886719 Z M 26.777344 17.886719 "/>
<path style=" stroke:none;fill-rule:nonzero;fill:rgb(97.254902%,55.29412%,12.941177%);fill-opacity:1;" d="M 26.496094 14.902344 C 26.566406 14.945312 26.636719 14.988281 26.707031 15.035156 C 26.796875 15.085938 26.882812 15.140625 26.972656 15.191406 C 27.074219 15.253906 27.175781 15.3125 27.28125 15.375 C 31.550781 17.78125 36.351562 19.503906 41.171875 20.375 C 41.335938 20.402344 41.335938 20.402344 41.5 20.433594 C 41.703125 20.46875 41.90625 20.503906 42.109375 20.535156 C 42.851562 20.667969 42.851562 20.667969 43.136719 20.996094 C 43.402344 21.425781 43.421875 21.761719 43.421875 22.253906 C 43.421875 22.324219 43.421875 22.394531 43.421875 22.464844 C 43.421875 22.703125 43.421875 22.941406 43.421875 23.179688 C 43.421875 23.351562 43.425781 23.523438 43.425781 23.691406 C 43.425781 24.253906 43.425781 24.816406 43.429688 25.375 C 43.429688 25.570312 43.429688 25.765625 43.429688 25.957031 C 43.429688 26.871094 43.433594 27.785156 43.433594 28.699219 C 43.433594 29.75 43.4375 30.796875 43.441406 31.847656 C 43.445312 32.660156 43.445312 33.472656 43.445312 34.289062 C 43.445312 34.773438 43.445312 35.257812 43.449219 35.742188 C 43.460938 38.433594 43.367188 40.996094 42.5625 43.59375 C 42.542969 43.65625 42.523438 43.71875 42.503906 43.785156 C 41.753906 46.246094 40.4375 48.546875 38.8125 50.53125 C 38.773438 50.582031 38.734375 50.628906 38.691406 50.679688 C 37.566406 52.070312 36.292969 53.375 34.875 54.46875 C 34.769531 54.554688 34.664062 54.640625 34.558594 54.730469 C 32.445312 56.472656 30.035156 57.792969 27.621094 59.070312 C 27.535156 59.113281 27.453125 59.15625 27.367188 59.203125 C 27.285156 59.246094 27.207031 59.285156 27.125 59.328125 C 27.058594 59.367188 26.988281 59.402344 26.914062 59.441406 C 26.417969 59.667969 25.84375 59.722656 25.316406 59.574219 C 25.132812 59.496094 24.957031 59.410156 24.78125 59.320312 C 24.679688 59.269531 24.679688 59.269531 24.574219 59.21875 C 24.351562 59.109375 24.128906 58.992188 23.90625 58.875 C 23.824219 58.832031 23.746094 58.789062 23.664062 58.746094 C 20.953125 57.316406 18.3125 55.710938 16.050781 53.628906 C 15.867188 53.457031 15.675781 53.296875 15.484375 53.132812 C 14.582031 52.34375 13.773438 51.476562 13.03125 50.53125 C 12.972656 50.460938 12.914062 50.390625 12.851562 50.316406 C 10.699219 47.730469 9.277344 44.617188 8.601562 41.332031 C 8.585938 41.265625 8.574219 41.195312 8.558594 41.125 C 8.292969 39.75 8.222656 38.371094 8.222656 36.972656 C 8.222656 36.804688 8.222656 36.636719 8.222656 36.472656 C 8.21875 36.023438 8.21875 35.574219 8.21875 35.125 C 8.21875 34.847656 8.21875 34.566406 8.21875 34.285156 C 8.214844 33.304688 8.214844 32.324219 8.214844 31.34375 C 8.214844 30.429688 8.214844 29.519531 8.210938 28.605469 C 8.207031 27.820312 8.207031 27.035156 8.207031 26.25 C 8.207031 25.78125 8.207031 25.3125 8.203125 24.84375 C 8.203125 24.40625 8.203125 23.964844 8.203125 23.527344 C 8.203125 23.363281 8.203125 23.203125 8.203125 23.042969 C 8.191406 21.527344 8.191406 21.527344 8.625 20.90625 C 8.945312 20.648438 9.238281 20.578125 9.640625 20.519531 C 9.746094 20.5 9.851562 20.484375 9.964844 20.46875 C 10.078125 20.449219 10.195312 20.433594 10.3125 20.414062 C 15.019531 19.648438 19.84375 18.082031 23.960938 15.628906 C 24.089844 15.550781 24.089844 15.550781 24.226562 15.472656 C 24.394531 15.371094 24.5625 15.269531 24.726562 15.164062 C 25.324219 14.808594 25.824219 14.65625 26.496094 14.902344 Z M 25.5625 17.628906 C 25.449219 17.6875 25.335938 17.75 25.222656 17.816406 C 25.160156 17.847656 25.097656 17.882812 25.035156 17.917969 C 24.902344 17.988281 24.769531 18.058594 24.640625 18.132812 C 24.363281 18.285156 24.082031 18.433594 23.800781 18.582031 C 23.660156 18.65625 23.519531 18.734375 23.378906 18.808594 C 20.378906 20.414062 17.101562 21.519531 13.8125 22.347656 C 13.691406 22.378906 13.570312 22.40625 13.449219 22.4375 C 12.8125 22.59375 12.179688 22.726562 11.53125 22.839844 C 11.425781 22.855469 11.425781 22.855469 11.3125 22.875 C 11.136719 22.90625 10.957031 22.9375 10.78125 22.96875 C 10.773438 25 10.769531 27.027344 10.765625 29.058594 C 10.765625 30.003906 10.761719 30.945312 10.761719 31.886719 C 10.757812 32.710938 10.753906 33.535156 10.753906 34.355469 C 10.753906 34.789062 10.753906 35.226562 10.75 35.660156 C 10.742188 37.824219 10.734375 39.957031 11.355469 42.054688 C 11.382812 42.148438 11.410156 42.246094 11.441406 42.347656 C 12.648438 46.371094 15.347656 49.941406 18.65625 52.5 C 18.773438 52.59375 18.894531 52.6875 19.011719 52.78125 C 20.480469 53.941406 22.066406 54.90625 23.71875 55.78125 C 23.804688 55.828125 23.894531 55.875 23.984375 55.921875 C 24.261719 56.066406 24.539062 56.210938 24.820312 56.355469 C 24.90625 56.402344 24.996094 56.445312 25.085938 56.492188 C 25.683594 56.804688 25.683594 56.804688 26.34375 56.8125 C 26.574219 56.722656 26.777344 56.628906 26.992188 56.515625 C 27.058594 56.480469 27.121094 56.449219 27.1875 56.414062 C 27.40625 56.296875 27.625 56.179688 27.84375 56.0625 C 27.925781 56.019531 28.007812 55.976562 28.089844 55.929688 C 30.199219 54.792969 32.242188 53.476562 34.007812 51.851562 C 34.199219 51.675781 34.390625 51.507812 34.585938 51.339844 C 38.171875 48.203125 40.644531 43.488281 40.96875 38.71875 C 40.980469 38.203125 40.980469 37.683594 40.980469 37.167969 C 40.980469 37.011719 40.980469 36.855469 40.980469 36.699219 C 40.980469 36.28125 40.980469 35.863281 40.976562 35.441406 C 40.976562 35.003906 40.976562 34.566406 40.976562 34.125 C 40.976562 33.296875 40.976562 32.464844 40.976562 31.636719 C 40.972656 30.691406 40.972656 29.746094 40.972656 28.800781 C 40.972656 26.855469 40.972656 24.914062 40.96875 22.96875 C 40.882812 22.949219 40.796875 22.933594 40.707031 22.914062 C 40.375 22.847656 40.046875 22.777344 39.71875 22.707031 C 39.578125 22.679688 39.4375 22.648438 39.296875 22.621094 C 37.953125 22.34375 36.648438 21.980469 35.34375 21.5625 C 35.25 21.53125 35.152344 21.503906 35.054688 21.472656 C 32.152344 20.554688 29.40625 19.316406 26.695312 17.941406 C 26.609375 17.898438 26.523438 17.855469 26.4375 17.8125 C 26.347656 17.753906 26.257812 17.695312 26.164062 17.636719 C 25.871094 17.496094 25.871094 17.496094 25.5625 17.628906 Z M 25.5625 17.628906 "/>
<path style=" stroke:none;fill-rule:nonzero;fill:rgb(21.960784%,67.058825%,90.980393%);fill-opacity:1;" d="M 26.25 22.59375 C 26.597656 22.785156 26.78125 22.921875 27 23.25 C 27.015625 23.515625 27.023438 23.773438 27.019531 24.039062 C 27.019531 24.121094 27.019531 24.199219 27.019531 24.285156 C 27.019531 24.550781 27.019531 24.816406 27.019531 25.082031 C 27.019531 25.265625 27.019531 25.453125 27.015625 25.636719 C 27.015625 26.121094 27.015625 26.609375 27.011719 27.09375 C 27.011719 27.589844 27.011719 28.085938 27.007812 28.582031 C 27.007812 29.554688 27.003906 30.527344 27 31.5 C 27.074219 31.5 27.148438 31.5 27.226562 31.496094 C 30.015625 31.484375 32.742188 32.289062 35.320312 33.292969 C 35.511719 33.367188 35.699219 33.4375 35.890625 33.507812 C 36.445312 33.714844 36.839844 33.875 37.125 34.40625 C 37.214844 34.855469 37.167969 35.164062 36.960938 35.570312 C 36.652344 35.925781 36.515625 35.988281 36.046875 36.023438 C 35.546875 36.019531 35.136719 35.84375 34.679688 35.65625 C 34.097656 35.417969 33.515625 35.199219 32.917969 35.003906 C 32.855469 34.980469 32.789062 34.960938 32.722656 34.9375 C 32.566406 34.886719 32.40625 34.832031 32.25 34.78125 C 32.25 34.839844 32.25 34.898438 32.25 34.957031 C 32.257812 36.367188 32.265625 37.773438 32.269531 39.183594 C 32.269531 39.867188 32.273438 40.546875 32.277344 41.230469 C 32.28125 41.824219 32.285156 42.417969 32.285156 43.011719 C 32.285156 43.324219 32.285156 43.640625 32.289062 43.953125 C 32.292969 44.304688 32.292969 44.65625 32.292969 45.007812 C 32.292969 45.113281 32.296875 45.214844 32.296875 45.324219 C 32.292969 45.921875 32.238281 46.296875 31.875 46.78125 C 31.476562 47.046875 31.125 47.042969 30.65625 46.96875 C 30.363281 46.8125 30.152344 46.613281 30 46.3125 C 29.992188 46.152344 29.988281 45.992188 29.988281 45.832031 C 29.988281 45.679688 29.988281 45.679688 29.988281 45.523438 C 29.988281 45.410156 29.988281 45.296875 29.988281 45.179688 C 29.988281 45.0625 29.988281 44.945312 29.988281 44.824219 C 29.988281 44.5 29.988281 44.175781 29.992188 43.851562 C 29.992188 43.511719 29.992188 43.175781 29.992188 42.835938 C 29.992188 42.195312 29.992188 41.554688 29.992188 40.914062 C 29.996094 40.183594 29.996094 39.453125 29.996094 38.722656 C 29.996094 37.222656 29.996094 35.71875 30 34.21875 C 29.644531 34.171875 29.289062 34.125 28.933594 34.082031 C 28.785156 34.0625 28.785156 34.0625 28.632812 34.039062 C 27.785156 33.933594 26.949219 33.894531 26.097656 33.902344 C 25.867188 33.902344 25.640625 33.902344 25.414062 33.898438 C 24.550781 33.898438 23.714844 33.960938 22.863281 34.082031 C 22.765625 34.09375 22.664062 34.105469 22.5625 34.121094 C 22.324219 34.152344 22.082031 34.1875 21.84375 34.21875 C 21.84375 34.277344 21.84375 34.339844 21.84375 34.402344 C 21.851562 35.867188 21.859375 37.332031 21.863281 38.800781 C 21.863281 39.507812 21.867188 40.21875 21.871094 40.929688 C 21.875 41.546875 21.878906 42.164062 21.878906 42.78125 C 21.878906 43.109375 21.878906 43.4375 21.882812 43.765625 C 21.886719 44.128906 21.886719 44.496094 21.886719 44.863281 C 21.886719 44.96875 21.890625 45.078125 21.890625 45.1875 C 21.886719 45.773438 21.859375 46.3125 21.46875 46.78125 C 21.070312 47.015625 20.703125 47.035156 20.25 46.96875 C 19.910156 46.765625 19.742188 46.578125 19.59375 46.21875 C 19.570312 45.992188 19.570312 45.992188 19.570312 45.738281 C 19.570312 45.644531 19.570312 45.546875 19.570312 45.445312 C 19.570312 45.339844 19.570312 45.234375 19.574219 45.125 C 19.574219 45.015625 19.574219 44.902344 19.574219 44.789062 C 19.574219 44.480469 19.574219 44.175781 19.574219 43.871094 C 19.574219 43.550781 19.574219 43.230469 19.578125 42.914062 C 19.578125 42.308594 19.578125 41.703125 19.582031 41.097656 C 19.582031 40.410156 19.582031 39.71875 19.585938 39.03125 C 19.585938 37.613281 19.589844 36.199219 19.59375 34.78125 C 19.355469 34.871094 19.113281 34.960938 18.875 35.050781 C 18.804688 35.074219 18.738281 35.101562 18.667969 35.125 C 18.3125 35.257812 17.960938 35.394531 17.609375 35.542969 C 16.152344 36.152344 16.152344 36.152344 15.46875 36 C 15.1875 35.882812 15.054688 35.808594 14.898438 35.550781 C 14.800781 35.316406 14.78125 35.132812 14.777344 34.882812 C 14.773438 34.761719 14.773438 34.761719 14.769531 34.644531 C 14.828125 34.3125 14.945312 34.175781 15.1875 33.9375 C 15.421875 33.792969 15.671875 33.6875 15.925781 33.578125 C 16.035156 33.53125 16.035156 33.53125 16.148438 33.484375 C 18.578125 32.460938 21.121094 31.640625 23.769531 31.539062 C 23.863281 31.535156 23.957031 31.53125 24.054688 31.527344 C 24.285156 31.519531 24.519531 31.507812 24.75 31.5 C 24.75 31.351562 24.75 31.351562 24.75 31.195312 C 24.742188 30.253906 24.738281 29.3125 24.734375 28.371094 C 24.734375 27.886719 24.730469 27.402344 24.730469 26.917969 C 24.726562 26.449219 24.722656 25.984375 24.722656 25.515625 C 24.722656 25.335938 24.722656 25.160156 24.71875 24.980469 C 24.71875 24.730469 24.71875 24.480469 24.71875 24.230469 C 24.71875 24.15625 24.714844 24.082031 24.714844 24.007812 C 24.71875 23.582031 24.765625 23.308594 25.03125 22.96875 C 25.4375 22.625 25.71875 22.519531 26.25 22.59375 Z M 26.25 22.59375 "/>
<path style=" stroke:none;fill-rule:nonzero;fill:rgb(10.980392%,18.82353%,27.450982%);fill-opacity:1;" d="M 10.03125 62.15625 C 17.660156 62.15625 17.660156 62.15625 19.117188 63.441406 C 19.828125 64.167969 20.105469 65.070312 20.109375 66.0625 C 20.085938 67.15625 19.785156 68.082031 19.050781 68.90625 C 18.710938 69.230469 18.359375 69.4375 17.929688 69.628906 C 17.789062 69.6875 17.789062 69.6875 17.648438 69.75 C 17.542969 69.796875 17.542969 69.796875 17.4375 69.84375 C 18.195312 71.222656 18.976562 72.582031 19.800781 73.921875 C 20.152344 74.496094 20.496094 75.066406 20.8125 75.65625 C 20.382812 75.679688 19.953125 75.695312 19.523438 75.707031 C 19.375 75.710938 19.230469 75.71875 19.082031 75.726562 C 17.875 75.792969 17.875 75.792969 17.511719 75.480469 C 17.363281 75.230469 17.257812 74.988281 17.15625 74.71875 C 17.070312 74.554688 16.980469 74.390625 16.886719 74.226562 C 16.796875 74.054688 16.707031 73.882812 16.617188 73.710938 C 16.570312 73.617188 16.519531 73.527344 16.472656 73.433594 C 16.128906 72.765625 15.804688 72.089844 15.492188 71.40625 C 15.453125 71.320312 15.410156 71.230469 15.371094 71.140625 C 15.09375 70.523438 15.09375 70.523438 15.09375 70.3125 C 14.289062 70.3125 13.484375 70.3125 12.65625 70.3125 C 12.65625 72.074219 12.65625 73.839844 12.65625 75.65625 C 11.789062 75.65625 10.921875 75.65625 10.03125 75.65625 C 10.03125 71.203125 10.03125 66.746094 10.03125 62.15625 Z M 10.03125 62.15625 "/>
<path style=" stroke:none;fill-rule:nonzero;fill:rgb(99.215686%,59.607846%,0.784314%);fill-opacity:1;" d="M 47.644531 41.339844 C 48.226562 41.429688 48.742188 41.71875 49.265625 41.976562 C 49.597656 42.140625 49.933594 42.296875 50.269531 42.457031 C 50.335938 42.488281 50.40625 42.519531 50.476562 42.554688 C 54.265625 44.34375 58.253906 45.710938 62.40625 46.328125 C 62.503906 46.34375 62.597656 46.359375 62.695312 46.375 C 64.804688 46.671875 66.933594 46.722656 69.0625 46.71875 C 69.324219 46.714844 69.589844 46.71875 69.851562 46.71875 C 73.398438 46.742188 76.722656 46.199219 80.164062 45.335938 C 80.246094 45.3125 80.328125 45.292969 80.417969 45.269531 C 81.894531 44.902344 83.367188 44.472656 84.753906 43.832031 C 85 43.765625 85.164062 43.800781 85.40625 43.875 C 85.59375 44.0625 85.59375 44.0625 85.628906 44.328125 C 85.585938 44.703125 85.476562 44.816406 85.21875 45.09375 C 84.996094 45.246094 84.78125 45.382812 84.546875 45.515625 C 84.476562 45.554688 84.40625 45.59375 84.335938 45.636719 C 79.84375 48.183594 74.890625 49.964844 69.671875 49.988281 C 69.515625 49.988281 69.515625 49.988281 69.359375 49.988281 C 69.140625 49.992188 68.925781 49.992188 68.707031 49.992188 C 68.382812 49.992188 68.0625 49.996094 67.738281 50 C 61.769531 50.027344 56.078125 47.9375 51 44.90625 C 50.929688 44.867188 50.863281 44.824219 50.792969 44.78125 C 50.011719 44.316406 49.253906 43.808594 48.503906 43.296875 C 48.425781 43.242188 48.347656 43.1875 48.265625 43.132812 C 47.804688 42.8125 47.363281 42.480469 47.0625 42 C 47.0625 41.5625 47.1875 41.347656 47.644531 41.339844 Z M 47.644531 41.339844 "/>
<path style=" stroke:none;fill-rule:nonzero;fill:rgb(10.980392%,18.82353%,27.450982%);fill-opacity:1;" d="M 76.726562 25.375 C 76.882812 25.378906 76.882812 25.378906 77.039062 25.378906 C 77.351562 25.40625 77.613281 25.480469 77.90625 25.59375 C 77.792969 26.226562 77.636719 26.828125 77.429688 27.441406 C 77.402344 27.527344 77.375 27.613281 77.34375 27.699219 C 77.285156 27.886719 77.222656 28.074219 77.160156 28.261719 C 76.992188 28.769531 76.824219 29.277344 76.65625 29.785156 C 76.621094 29.890625 76.585938 30 76.550781 30.109375 C 76.28125 30.929688 76.019531 31.75 75.761719 32.574219 C 75.742188 32.632812 75.722656 32.695312 75.703125 32.753906 C 75.5 33.402344 75.296875 34.046875 75.097656 34.695312 C 74.164062 37.671875 74.164062 37.671875 73.6875 37.96875 C 73.101562 38.183594 72.347656 38.128906 71.753906 37.976562 C 71.183594 37.480469 71.105469 36.386719 70.933594 35.683594 C 70.90625 35.5625 70.875 35.441406 70.84375 35.320312 C 70.765625 35 70.6875 34.679688 70.613281 34.359375 C 70.535156 34.042969 70.457031 33.726562 70.378906 33.40625 C 70.363281 33.347656 70.347656 33.285156 70.332031 33.21875 C 70.304688 33.09375 70.273438 32.96875 70.242188 32.84375 C 70.195312 32.660156 70.152344 32.476562 70.105469 32.289062 C 69.835938 31.183594 69.558594 30.074219 69.28125 28.96875 C 69.074219 29.324219 68.996094 29.703125 68.90625 30.101562 C 68.886719 30.175781 68.867188 30.253906 68.851562 30.332031 C 68.8125 30.496094 68.773438 30.660156 68.734375 30.824219 C 68.675781 31.085938 68.613281 31.347656 68.550781 31.605469 C 68.378906 32.347656 68.203125 33.089844 68.03125 33.832031 C 67.925781 34.285156 67.816406 34.742188 67.710938 35.195312 C 67.671875 35.367188 67.628906 35.539062 67.589844 35.710938 C 67.535156 35.953125 67.476562 36.195312 67.417969 36.4375 C 67.402344 36.507812 67.386719 36.578125 67.371094 36.652344 C 67.132812 37.648438 67.132812 37.648438 66.683594 37.953125 C 66.328125 38.078125 66.046875 38.101562 65.671875 38.097656 C 65.554688 38.097656 65.433594 38.097656 65.3125 38.101562 C 64.9375 38.058594 64.726562 37.980469 64.40625 37.78125 C 64.269531 37.550781 64.269531 37.550781 64.171875 37.269531 C 64.136719 37.160156 64.097656 37.050781 64.058594 36.9375 C 64.015625 36.8125 63.976562 36.6875 63.9375 36.5625 C 63.917969 36.496094 63.894531 36.429688 63.871094 36.363281 C 63.722656 35.902344 63.578125 35.4375 63.4375 34.972656 C 63.296875 34.511719 63.152344 34.050781 63.011719 33.589844 C 62.980469 33.492188 62.949219 33.394531 62.917969 33.292969 C 62.488281 31.898438 62.046875 30.507812 61.605469 29.113281 C 61.53125 28.886719 61.460938 28.660156 61.390625 28.433594 C 61.324219 28.226562 61.257812 28.019531 61.191406 27.8125 C 61.136719 27.628906 61.078125 27.445312 61.019531 27.261719 C 60.964844 27.085938 60.910156 26.914062 60.851562 26.738281 C 60.828125 26.65625 60.800781 26.574219 60.773438 26.492188 C 60.753906 26.417969 60.730469 26.347656 60.707031 26.273438 C 60.652344 26.042969 60.648438 25.832031 60.65625 25.59375 C 60.984375 25.429688 61.355469 25.480469 61.71875 25.476562 C 61.835938 25.472656 61.835938 25.472656 61.960938 25.46875 C 62.039062 25.46875 62.117188 25.46875 62.195312 25.46875 C 62.265625 25.46875 62.339844 25.46875 62.410156 25.464844 C 62.695312 25.511719 62.859375 25.617188 63.09375 25.78125 C 63.203125 25.96875 63.203125 25.96875 63.277344 26.195312 C 63.308594 26.289062 63.339844 26.378906 63.367188 26.476562 C 63.589844 27.21875 63.796875 27.96875 63.996094 28.71875 C 64.046875 28.902344 64.097656 29.085938 64.148438 29.269531 C 64.277344 29.746094 64.40625 30.226562 64.539062 30.707031 C 64.671875 31.199219 64.804688 31.6875 64.9375 32.179688 C 65.199219 33.140625 65.457031 34.101562 65.71875 35.0625 C 65.738281 34.984375 65.738281 34.984375 65.753906 34.902344 C 66.0625 33.59375 66.367188 32.28125 66.675781 30.972656 C 66.75 30.660156 66.824219 30.347656 66.894531 30.035156 C 67.011719 29.539062 67.128906 29.042969 67.246094 28.546875 C 67.289062 28.359375 67.335938 28.171875 67.378906 27.984375 C 67.441406 27.722656 67.5 27.460938 67.5625 27.195312 C 67.582031 27.121094 67.601562 27.042969 67.617188 26.964844 C 67.898438 25.796875 67.898438 25.796875 68.34375 25.5 C 68.671875 25.457031 69 25.464844 69.328125 25.464844 C 69.417969 25.460938 69.507812 25.460938 69.601562 25.457031 C 69.6875 25.457031 69.773438 25.457031 69.863281 25.457031 C 69.984375 25.457031 69.984375 25.457031 70.105469 25.453125 C 70.3125 25.5 70.3125 25.5 70.457031 25.660156 C 70.605469 25.890625 70.667969 26.082031 70.730469 26.347656 C 70.753906 26.441406 70.777344 26.535156 70.800781 26.632812 C 70.824219 26.738281 70.851562 26.839844 70.875 26.945312 C 70.902344 27.054688 70.929688 27.160156 70.953125 27.273438 C 71.039062 27.625 71.125 27.976562 71.210938 28.328125 C 71.265625 28.570312 71.324219 28.8125 71.382812 29.054688 C 71.503906 29.542969 71.621094 30.03125 71.738281 30.519531 C 71.953125 31.421875 72.175781 32.324219 72.394531 33.222656 C 72.492188 33.621094 72.589844 34.015625 72.683594 34.410156 C 72.699219 34.476562 72.71875 34.542969 72.734375 34.613281 C 72.769531 34.761719 72.808594 34.914062 72.84375 35.0625 C 72.871094 34.960938 72.871094 34.960938 72.898438 34.859375 C 73.074219 34.207031 73.25 33.554688 73.421875 32.902344 C 73.511719 32.566406 73.601562 32.234375 73.691406 31.898438 C 73.9375 30.984375 74.1875 30.070312 74.4375 29.15625 C 74.457031 29.089844 74.476562 29.019531 74.492188 28.949219 C 74.605469 28.542969 74.71875 28.140625 74.835938 27.734375 C 74.871094 27.609375 74.90625 27.480469 74.941406 27.355469 C 75.332031 25.941406 75.332031 25.941406 75.875 25.511719 C 76.175781 25.382812 76.402344 25.371094 76.726562 25.375 Z M 76.726562 25.375 "/>
<path style=" stroke:none;fill-rule:nonzero;fill:rgb(10.980392%,18.82353%,27.450982%);fill-opacity:1;" d="M 58.050781 26.039062 C 58.976562 26.890625 59.207031 27.910156 59.269531 29.136719 C 59.273438 29.453125 59.277344 29.769531 59.277344 30.089844 C 59.277344 30.296875 59.28125 30.507812 59.28125 30.71875 C 59.289062 31.3125 59.289062 31.910156 59.292969 32.503906 C 59.292969 32.871094 59.296875 33.238281 59.300781 33.605469 C 59.300781 33.742188 59.300781 33.882812 59.300781 34.019531 C 59.300781 34.214844 59.304688 34.40625 59.304688 34.601562 C 59.308594 34.710938 59.308594 34.820312 59.308594 34.933594 C 59.363281 35.421875 59.53125 35.851562 59.882812 36.203125 C 60.09375 36.46875 60.09375 36.46875 60.085938 36.640625 C 59.964844 36.929688 59.785156 37.136719 59.585938 37.375 C 59.507812 37.46875 59.433594 37.558594 59.355469 37.652344 C 59.113281 37.925781 59.035156 37.960938 58.675781 38.007812 C 58.179688 37.953125 57.910156 37.75 57.5625 37.40625 C 57.289062 37.058594 57.132812 36.734375 57.1875 36.28125 C 57.125 36.28125 57.0625 36.28125 57 36.28125 C 56.984375 36.34375 56.964844 36.410156 56.945312 36.476562 C 56.53125 37.328125 55.6875 37.714844 54.84375 38.0625 C 53.566406 38.480469 52.214844 38.335938 51.023438 37.746094 C 50.242188 37.316406 49.726562 36.742188 49.40625 35.90625 C 49.128906 34.886719 49.175781 33.550781 49.6875 32.625 C 50.320312 31.582031 51.253906 30.972656 52.429688 30.671875 C 53.746094 30.421875 55.574219 30.320312 56.8125 30.9375 C 56.804688 30.59375 56.792969 30.253906 56.78125 29.914062 C 56.78125 29.816406 56.777344 29.71875 56.777344 29.621094 C 56.75 28.871094 56.699219 28.15625 56.132812 27.617188 C 55.597656 27.167969 54.929688 27.15625 54.265625 27.164062 C 54.144531 27.164062 54.144531 27.164062 54.023438 27.167969 C 53.023438 27.183594 52.171875 27.363281 51.246094 27.738281 C 50.882812 27.882812 50.546875 27.992188 50.15625 28.03125 C 49.964844 27.839844 50.007812 27.472656 49.984375 27.210938 C 49.980469 27.144531 49.972656 27.078125 49.964844 27.007812 C 49.9375 26.667969 49.953125 26.46875 50.125 26.171875 C 51.8125 24.625 56.257812 24.617188 58.050781 26.039062 Z M 58.050781 26.039062 "/>
<path style=" stroke:none;fill-rule:nonzero;fill:rgb(10.588235%,18.82353%,27.450982%);fill-opacity:1;" d="M 29.503906 66.210938 C 30.484375 66.964844 31.09375 67.902344 31.363281 69.113281 C 31.589844 70.96875 31.476562 72.757812 30.296875 74.28125 C 29.351562 75.304688 28.082031 75.757812 26.726562 75.875 C 25.238281 75.914062 23.96875 75.484375 22.875 74.457031 C 21.863281 73.347656 21.636719 71.988281 21.625 70.546875 C 21.625 70.433594 21.621094 70.320312 21.617188 70.203125 C 21.609375 68.882812 21.976562 67.753906 22.851562 66.75 C 24.542969 65.117188 27.5625 64.917969 29.503906 66.210938 Z M 29.503906 66.210938 "/>
<path style=" stroke:none;fill-rule:nonzero;fill:rgb(10.980392%,18.82353%,27.450982%);fill-opacity:1;" d="M 59.34375 66.28125 C 60.082031 66.917969 60.496094 67.859375 60.65625 68.8125 C 60.679688 69.164062 60.683594 69.515625 60.679688 69.867188 C 60.679688 70.003906 60.679688 70.003906 60.683594 70.144531 C 60.683594 70.234375 60.679688 70.324219 60.679688 70.414062 C 60.679688 70.492188 60.679688 70.574219 60.679688 70.65625 C 60.65625 70.875 60.65625 70.875 60.46875 71.25 C 58.425781 71.25 56.386719 71.25 54.28125 71.25 C 54.554688 72.503906 54.554688 72.503906 55.347656 73.359375 C 56.59375 74.015625 57.902344 73.808594 59.238281 73.546875 C 59.417969 73.511719 59.417969 73.511719 59.601562 73.480469 C 59.890625 73.425781 60.179688 73.367188 60.46875 73.3125 C 60.46875 73.898438 60.46875 74.488281 60.46875 75.09375 C 59.34375 75.65625 58.195312 75.796875 56.945312 75.789062 C 56.777344 75.792969 56.777344 75.792969 56.601562 75.796875 C 55.203125 75.796875 54.042969 75.355469 52.992188 74.429688 C 51.914062 73.265625 51.679688 71.625 51.730469 70.101562 C 51.8125 68.695312 52.21875 67.441406 53.261719 66.457031 C 54.964844 65.078125 57.554688 65.039062 59.34375 66.28125 Z M 59.34375 66.28125 "/>
<path style=" stroke:none;fill-rule:nonzero;fill:rgb(10.980392%,18.431373%,27.058825%);fill-opacity:1;" d="M 68.0625 62.25 C 70.382812 62.25 72.703125 62.25 75.09375 62.25 C 75.09375 62.929688 75.09375 63.609375 75.09375 64.3125 C 73.390625 64.3125 71.691406 64.3125 69.9375 64.3125 C 69.875 65.242188 69.8125 66.167969 69.75 67.125 C 70.058594 67.117188 70.367188 67.109375 70.6875 67.101562 C 72.234375 67.089844 73.730469 67.398438 74.894531 68.484375 C 75.761719 69.511719 75.933594 70.695312 75.84375 72 C 75.660156 73.183594 75.179688 74.128906 74.234375 74.878906 C 73.996094 75.035156 73.757812 75.160156 73.5 75.28125 C 73.402344 75.328125 73.304688 75.371094 73.207031 75.417969 C 71.476562 76.089844 69.230469 75.996094 67.535156 75.269531 C 67.089844 75.058594 67.089844 75.058594 66.9375 74.90625 C 66.929688 74.644531 66.925781 74.382812 66.925781 74.121094 C 66.925781 74.046875 66.925781 73.976562 66.925781 73.898438 C 66.925781 73.585938 66.933594 73.328125 67.03125 73.03125 C 67.082031 73.046875 67.132812 73.0625 67.183594 73.078125 C 67.445312 73.160156 67.707031 73.238281 67.96875 73.3125 C 68.082031 73.347656 68.191406 73.378906 68.308594 73.414062 C 69.652344 73.800781 71.035156 73.914062 72.3125 73.242188 C 72.695312 72.921875 72.964844 72.570312 73.125 72.09375 C 73.21875 71 73.21875 71 72.878906 69.988281 C 72.394531 69.445312 71.769531 69.253906 71.0625 69.1875 C 70.25 69.148438 69.480469 69.179688 68.679688 69.332031 C 68.222656 69.414062 67.898438 69.453125 67.5 69.1875 C 67.464844 68.996094 67.464844 68.996094 67.464844 68.761719 C 67.464844 68.671875 67.464844 68.582031 67.464844 68.492188 C 67.464844 68.394531 67.464844 68.300781 67.46875 68.199219 C 67.46875 68.097656 67.46875 68 67.472656 67.894531 C 67.488281 66.875 67.582031 65.867188 67.695312 64.855469 C 67.730469 64.550781 67.761719 64.246094 67.792969 63.945312 C 67.816406 63.75 67.835938 63.554688 67.855469 63.359375 C 67.867188 63.269531 67.875 63.179688 67.886719 63.085938 C 67.894531 63.003906 67.90625 62.921875 67.914062 62.835938 C 67.921875 62.761719 67.929688 62.691406 67.941406 62.617188 C 67.96875 62.4375 67.96875 62.4375 68.0625 62.25 Z M 68.0625 62.25 "/>
<path style=" stroke:none;fill-rule:nonzero;fill:rgb(10.588235%,18.431373%,27.058825%);fill-opacity:1;" d="M 82.117188 62.023438 C 82.230469 62.019531 82.339844 62.019531 82.453125 62.015625 C 83.671875 62.015625 84.753906 62.320312 85.664062 63.148438 C 86.304688 63.828125 86.5 64.609375 86.488281 65.527344 C 86.441406 66.507812 86.066406 67.222656 85.351562 67.882812 C 85.019531 68.148438 84.664062 68.351562 84.28125 68.53125 C 84.429688 68.601562 84.429688 68.601562 84.582031 68.671875 C 86.503906 69.589844 86.503906 69.589844 86.90625 70.6875 C 87.183594 71.523438 87.089844 72.671875 86.742188 73.464844 C 86.195312 74.496094 85.410156 75.058594 84.328125 75.464844 C 82.300781 76.070312 80.0625 75.925781 78.195312 74.921875 C 78.128906 74.886719 78.066406 74.851562 78 74.8125 C 77.996094 74.535156 77.996094 74.257812 77.992188 73.980469 C 77.992188 73.902344 77.992188 73.824219 77.992188 73.742188 C 77.992188 73.664062 77.992188 73.589844 77.992188 73.511719 C 77.992188 73.441406 77.988281 73.371094 77.988281 73.300781 C 78 73.125 78 73.125 78.09375 72.9375 C 78.199219 72.972656 78.304688 73.011719 78.414062 73.046875 C 78.859375 73.195312 79.304688 73.332031 79.75 73.464844 C 79.820312 73.484375 79.886719 73.503906 79.957031 73.527344 C 81.074219 73.855469 82.144531 73.90625 83.25 73.5 C 83.523438 73.355469 83.523438 73.355469 83.71875 73.21875 C 83.78125 73.21875 83.84375 73.21875 83.90625 73.21875 C 84.269531 72.570312 84.394531 71.867188 84.238281 71.140625 C 84.085938 70.660156 83.863281 70.40625 83.4375 70.125 C 82.65625 69.738281 81.804688 69.734375 80.953125 69.695312 C 80.660156 69.683594 80.367188 69.671875 80.0625 69.65625 C 80.0625 68.976562 80.0625 68.296875 80.0625 67.59375 C 80.417969 67.601562 80.417969 67.601562 80.777344 67.609375 C 81.707031 67.621094 82.722656 67.605469 83.4375 66.9375 C 83.796875 66.355469 83.796875 65.730469 83.71875 65.0625 C 83.519531 64.636719 83.300781 64.417969 82.875 64.21875 C 81.234375 63.804688 79.800781 64.394531 78.375 65.15625 C 78.199219 64.578125 78.082031 63.980469 78.1875 63.375 C 78.429688 62.996094 78.679688 62.808594 79.078125 62.613281 C 79.167969 62.570312 79.253906 62.523438 79.34375 62.476562 C 80.265625 62.117188 81.136719 62.015625 82.117188 62.023438 Z M 82.117188 62.023438 "/>
<path style=" stroke:none;fill-rule:nonzero;fill:rgb(10.588235%,18.431373%,27.450982%);fill-opacity:1;" d="M 83.726562 25.089844 C 83.90625 25.089844 83.90625 25.089844 84.089844 25.089844 C 85.261719 25.105469 86.40625 25.1875 87.28125 26.0625 C 87.292969 26.320312 87.296875 26.566406 87.292969 26.824219 C 87.292969 26.894531 87.292969 26.964844 87.289062 27.039062 C 87.289062 27.214844 87.285156 27.386719 87.28125 27.5625 C 86.828125 27.515625 86.40625 27.441406 85.964844 27.328125 C 85.242188 27.140625 84.550781 27.054688 83.804688 27.054688 C 83.726562 27.050781 83.644531 27.050781 83.5625 27.050781 C 82.886719 27.058594 82.285156 27.175781 81.742188 27.597656 C 81.421875 28.046875 81.484375 28.636719 81.5625 29.15625 C 82 30.050781 83.359375 30.332031 84.238281 30.636719 C 84.464844 30.710938 84.6875 30.789062 84.910156 30.863281 C 86.125 31.285156 87.1875 31.738281 87.789062 32.929688 C 88.132812 33.886719 88.101562 35.238281 87.6875 36.164062 C 87.085938 37.1875 86.152344 37.742188 85.03125 38.0625 C 83.289062 38.511719 80.894531 38.429688 79.3125 37.5 C 79.050781 37.304688 78.867188 37.167969 78.808594 36.835938 C 78.796875 36.609375 78.804688 36.386719 78.8125 36.15625 C 78.816406 36.078125 78.820312 36 78.820312 35.921875 C 78.828125 35.726562 78.835938 35.535156 78.84375 35.34375 C 78.894531 35.359375 78.945312 35.378906 78.996094 35.398438 C 79.523438 35.574219 80.050781 35.730469 80.589844 35.871094 C 80.664062 35.890625 80.742188 35.910156 80.820312 35.933594 C 82.078125 36.265625 83.617188 36.457031 84.796875 35.78125 C 85.109375 35.589844 85.207031 35.410156 85.3125 35.0625 C 85.34375 34.808594 85.34375 34.808594 85.34375 34.554688 C 85.34375 34.425781 85.34375 34.425781 85.347656 34.296875 C 85.304688 33.964844 85.203125 33.753906 85.03125 33.46875 C 84.226562 32.898438 83.175781 32.636719 82.25 32.324219 C 80.964844 31.882812 79.769531 31.351562 79.117188 30.105469 C 78.78125 29.328125 78.824219 28.261719 79.089844 27.46875 C 79.523438 26.460938 80.191406 25.894531 81.195312 25.476562 C 82.042969 25.144531 82.816406 25.089844 83.726562 25.089844 Z M 83.726562 25.089844 "/>
<path style=" stroke:none;fill-rule:nonzero;fill:rgb(11.372549%,19.215687%,27.843139%);fill-opacity:1;" d="M 33.46875 65.625 C 33.871094 65.621094 34.277344 65.621094 34.679688 65.617188 C 34.796875 65.617188 34.914062 65.617188 35.03125 65.617188 C 35.140625 65.617188 35.25 65.617188 35.363281 65.617188 C 35.515625 65.613281 35.515625 65.613281 35.671875 65.613281 C 35.90625 65.625 35.90625 65.625 36 65.71875 C 36.007812 65.9375 36.011719 66.152344 36.011719 66.371094 C 36.015625 66.476562 36.015625 66.476562 36.015625 66.582031 C 36.015625 66.730469 36.015625 66.878906 36.015625 67.027344 C 36.015625 67.265625 36.019531 67.5 36.019531 67.738281 C 36.023438 68.410156 36.027344 69.082031 36.03125 69.753906 C 36.03125 70.167969 36.035156 70.578125 36.039062 70.988281 C 36.039062 71.144531 36.039062 71.300781 36.039062 71.457031 C 36.039062 71.675781 36.042969 71.898438 36.042969 72.117188 C 36.042969 72.179688 36.042969 72.246094 36.042969 72.3125 C 36.050781 72.8125 36.195312 73.09375 36.46875 73.5 C 36.921875 73.847656 37.617188 73.734375 38.15625 73.6875 C 38.730469 73.542969 39.222656 73.296875 39.75 73.03125 C 39.78125 70.585938 39.8125 68.144531 39.84375 65.625 C 40.679688 65.625 41.515625 65.625 42.375 65.625 C 42.375 68.933594 42.375 72.246094 42.375 75.65625 C 41.695312 75.65625 41.015625 75.65625 40.3125 75.65625 C 40.15625 75.5 40.160156 75.300781 40.117188 75.085938 C 40.09375 74.957031 40.09375 74.957031 40.070312 74.828125 C 40.054688 74.761719 40.042969 74.695312 40.03125 74.625 C 39.984375 74.660156 39.933594 74.695312 39.886719 74.730469 C 38.636719 75.613281 37.335938 75.96875 35.8125 75.84375 C 35.027344 75.679688 34.363281 75.304688 33.910156 74.628906 C 33.550781 73.960938 33.441406 73.273438 33.449219 72.523438 C 33.449219 72.445312 33.449219 72.371094 33.449219 72.292969 C 33.449219 72.046875 33.449219 71.804688 33.449219 71.558594 C 33.449219 71.386719 33.449219 71.214844 33.453125 71.042969 C 33.453125 70.59375 33.453125 70.144531 33.457031 69.699219 C 33.457031 69.238281 33.457031 68.78125 33.460938 68.320312 C 33.460938 67.421875 33.464844 66.523438 33.46875 65.625 Z M 33.46875 65.625 "/>
<path style=" stroke:none;fill-rule:nonzero;fill:rgb(11.764706%,19.607843%,27.843139%);fill-opacity:1;" d="M 45.75 62.71875 C 46.105469 62.714844 46.464844 62.714844 46.820312 62.710938 C 46.925781 62.710938 47.027344 62.710938 47.132812 62.710938 C 47.226562 62.710938 47.324219 62.710938 47.425781 62.710938 C 47.515625 62.710938 47.605469 62.707031 47.699219 62.707031 C 47.90625 62.71875 47.90625 62.71875 48 62.8125 C 48.007812 63.019531 48.011719 63.230469 48.007812 63.4375 C 48.007812 63.5 48.007812 63.5625 48.007812 63.625 C 48.007812 63.824219 48.007812 64.023438 48.007812 64.226562 C 48.003906 64.359375 48.003906 64.496094 48.003906 64.628906 C 48.003906 64.960938 48 65.292969 48 65.625 C 48.804688 65.625 49.609375 65.625 50.4375 65.625 C 50.4375 66.273438 50.4375 66.925781 50.4375 67.59375 C 49.632812 67.59375 48.828125 67.59375 48 67.59375 C 48.007812 68.28125 48.011719 68.96875 48.023438 69.65625 C 48.027344 69.976562 48.03125 70.296875 48.03125 70.617188 C 48.035156 70.988281 48.039062 71.355469 48.046875 71.722656 C 48.046875 71.835938 48.046875 71.953125 48.046875 72.070312 C 48.050781 72.175781 48.050781 72.285156 48.054688 72.394531 C 48.054688 72.535156 48.054688 72.535156 48.054688 72.679688 C 48.105469 73.007812 48.230469 73.261719 48.46875 73.5 C 48.6875 73.507812 48.910156 73.511719 49.132812 73.511719 C 49.3125 73.511719 49.3125 73.511719 49.496094 73.511719 C 49.875 73.5 50.25 73.453125 50.625 73.40625 C 50.625 74.054688 50.625 74.707031 50.625 75.375 C 49.371094 75.726562 47.980469 76.070312 46.746094 75.453125 C 46.035156 75.019531 45.699219 74.476562 45.46875 73.6875 C 45.445312 73.386719 45.445312 73.386719 45.449219 73.054688 C 45.449219 72.996094 45.449219 72.933594 45.449219 72.871094 C 45.449219 72.675781 45.449219 72.476562 45.449219 72.277344 C 45.449219 72.140625 45.449219 72.003906 45.453125 71.867188 C 45.453125 71.503906 45.453125 71.140625 45.457031 70.78125 C 45.457031 70.410156 45.457031 70.042969 45.460938 69.671875 C 45.460938 68.949219 45.464844 68.222656 45.46875 67.5 C 45.003906 67.5 44.539062 67.5 44.0625 67.5 C 44.0625 66.882812 44.0625 66.261719 44.0625 65.625 C 44.527344 65.625 44.992188 65.625 45.46875 65.625 C 45.480469 65.425781 45.492188 65.222656 45.503906 65.015625 C 45.550781 64.246094 45.648438 63.484375 45.75 62.71875 Z M 45.75 62.71875 "/>
<path style=" stroke:none;fill-rule:nonzero;fill:rgb(98.431373%,98.431373%,98.823529%);fill-opacity:1;" d="M 27.78125 67.5625 C 28.199219 67.898438 28.542969 68.289062 28.6875 68.8125 C 28.703125 68.875 28.722656 68.933594 28.738281 68.996094 C 29.039062 70.230469 29.003906 71.746094 28.429688 72.890625 C 27.84375 73.542969 27.355469 73.859375 26.453125 73.914062 C 25.78125 73.902344 25.261719 73.609375 24.761719 73.171875 C 24.015625 72.109375 24.042969 70.597656 24.214844 69.363281 C 24.351562 68.640625 24.652344 68.066406 25.21875 67.59375 C 25.929688 67.128906 27.050781 67.121094 27.78125 67.5625 Z M 27.78125 67.5625 "/>
<path style=" stroke:none;fill-rule:nonzero;fill:rgb(99.215686%,59.607846%,1.176471%);fill-opacity:1;" d="M 89.15625 40.6875 C 89.59375 41.144531 89.652344 41.445312 89.644531 42.058594 C 89.496094 44.410156 88.460938 46.335938 86.847656 48.007812 C 86.609375 48.199219 86.460938 48.257812 86.15625 48.28125 C 86.125 48.25 86.09375 48.21875 86.0625 48.1875 C 86.09375 47.566406 86.28125 47.121094 86.5625 46.578125 C 87.128906 45.414062 87.609375 44.253906 87.375 42.9375 C 87.082031 42.550781 86.8125 42.386719 86.34375 42.28125 C 84.734375 42.105469 82.84375 42.421875 81.28125 42.84375 C 81.863281 41.738281 83.253906 41.136719 84.394531 40.773438 C 85.722656 40.371094 87.921875 39.789062 89.15625 40.6875 Z M 89.15625 40.6875 "/>
<path style=" stroke:none;fill-rule:nonzero;fill:rgb(98.823529%,98.823529%,98.823529%);fill-opacity:1;" d="M 12.65625 64.21875 C 13.394531 64.210938 13.394531 64.210938 14.148438 64.203125 C 14.304688 64.199219 14.457031 64.195312 14.617188 64.195312 C 15.449219 64.1875 16.203125 64.195312 16.910156 64.703125 C 17.425781 65.257812 17.488281 65.828125 17.464844 66.570312 C 17.398438 67.230469 17.199219 67.617188 16.6875 68.042969 C 16.203125 68.335938 15.722656 68.371094 15.164062 68.363281 C 15.101562 68.363281 15.035156 68.363281 14.972656 68.363281 C 14.734375 68.359375 14.5 68.359375 14.261719 68.355469 C 13.46875 68.351562 13.46875 68.351562 12.65625 68.34375 C 12.65625 66.984375 12.65625 65.621094 12.65625 64.21875 Z M 12.65625 64.21875 "/>
<path style=" stroke:none;fill-rule:nonzero;fill:rgb(98.431373%,98.431373%,98.823529%);fill-opacity:1;" d="M 54.679688 32.3125 C 54.769531 32.3125 54.863281 32.3125 54.957031 32.308594 C 55.613281 32.308594 56.1875 32.421875 56.8125 32.625 C 56.894531 33.65625 56.855469 34.332031 56.15625 35.15625 C 56.101562 35.222656 56.050781 35.285156 55.996094 35.351562 C 55.414062 35.996094 54.679688 36.25 53.828125 36.304688 C 53.140625 36.292969 52.601562 36.019531 52.125 35.53125 C 51.800781 34.992188 51.765625 34.464844 51.84375 33.84375 C 51.992188 33.292969 52.304688 32.976562 52.753906 32.644531 C 53.378906 32.3125 53.988281 32.3125 54.679688 32.3125 Z M 54.679688 32.3125 "/>
<path style=" stroke:none;fill-rule:nonzero;fill:rgb(98.431373%,98.823529%,98.823529%);fill-opacity:1;" d="M 57.429688 67.371094 C 57.851562 67.625 58.042969 67.976562 58.242188 68.421875 C 58.3125 68.71875 58.3125 68.71875 58.3125 69.5625 C 56.980469 69.5625 55.652344 69.5625 54.28125 69.5625 C 54.464844 68.550781 54.585938 68.054688 55.34375 67.421875 C 55.890625 67.042969 56.839844 67.105469 57.429688 67.371094 Z M 57.429688 67.371094 "/>
<path style=" stroke:none;fill-rule:nonzero;fill:rgb(1.568628%,5.490196%,12.941177%);fill-opacity:1;" d="M 39.84375 65.625 C 40.679688 65.625 41.515625 65.625 42.375 65.625 C 42.375 68.933594 42.375 72.246094 42.375 75.65625 C 41.695312 75.65625 41.015625 75.65625 40.3125 75.65625 C 40.21875 75.5625 40.21875 75.5625 40.210938 75.328125 C 40.210938 75.234375 40.210938 75.136719 40.210938 75.039062 C 40.214844 74.945312 40.214844 74.851562 40.214844 74.753906 C 40.214844 74.679688 40.21875 74.605469 40.21875 74.53125 C 40.25 74.53125 40.28125 74.53125 40.3125 74.53125 C 40.34375 74.839844 40.375 75.148438 40.40625 75.46875 C 41.023438 75.5 41.644531 75.53125 42.28125 75.5625 C 42.28125 72.34375 42.28125 69.128906 42.28125 65.8125 C 41.539062 65.8125 40.796875 65.8125 40.03125 65.8125 C 40.035156 66.027344 40.035156 66.238281 40.039062 66.460938 C 40.046875 67.164062 40.050781 67.871094 40.054688 68.574219 C 40.058594 69.003906 40.0625 69.429688 40.066406 69.859375 C 40.070312 70.269531 40.074219 70.683594 40.074219 71.097656 C 40.078125 71.253906 40.078125 71.410156 40.082031 71.570312 C 40.085938 71.789062 40.085938 72.007812 40.085938 72.230469 C 40.085938 72.296875 40.085938 72.359375 40.089844 72.425781 C 40.085938 72.796875 40.039062 72.929688 39.792969 73.214844 C 39.679688 73.308594 39.679688 73.308594 39.5625 73.40625 C 39.5625 73.3125 39.5625 73.21875 39.5625 73.125 C 39.65625 73.078125 39.65625 73.078125 39.75 73.03125 C 39.78125 70.585938 39.8125 68.144531 39.84375 65.625 Z M 39.84375 65.625 "/>
<path style=" stroke:none;fill-rule:nonzero;fill:rgb(5.882353%,11.372549%,20.392157%);fill-opacity:1;" d="M 50.625 73.40625 C 50.625 73.992188 50.625 74.582031 50.625 75.1875 C 50.5625 75.1875 50.5 75.1875 50.4375 75.1875 C 50.4375 74.660156 50.4375 74.136719 50.4375 73.59375 C 50.34375 73.5625 50.25 73.53125 50.15625 73.5 C 50.4375 73.40625 50.4375 73.40625 50.625 73.40625 Z M 50.625 73.40625 "/>
<path style=" stroke:none;fill-rule:nonzero;fill:rgb(4.705882%,7.058824%,12.156863%);fill-opacity:1;" d="M 78.84375 35.34375 C 79.664062 35.601562 79.664062 35.601562 79.875 35.8125 C 79.597656 35.78125 79.316406 35.75 79.03125 35.71875 C 79 36.121094 78.96875 36.523438 78.9375 36.9375 C 78.90625 36.9375 78.875 36.9375 78.84375 36.9375 C 78.84375 36.410156 78.84375 35.886719 78.84375 35.34375 Z M 78.84375 35.34375 "/>
<path style=" stroke:none;fill-rule:nonzero;fill:rgb(14.509805%,22.745098%,30.980393%);fill-opacity:1;" d="M 75.5625 70.40625 C 75.65625 70.4375 75.75 70.46875 75.84375 70.5 C 75.855469 71.132812 75.855469 71.132812 75.75 71.34375 C 75.730469 71.488281 75.710938 71.632812 75.695312 71.777344 C 75.6875 71.855469 75.679688 71.929688 75.671875 72.007812 C 75.667969 72.066406 75.660156 72.128906 75.65625 72.1875 C 75.625 72.1875 75.59375 72.1875 75.5625 72.1875 C 75.5625 71.601562 75.5625 71.011719 75.5625 70.40625 Z M 75.5625 70.40625 "/>
<path style=" stroke:none;fill-rule:nonzero;fill:rgb(5.098039%,8.627451%,14.901961%);fill-opacity:1;" d="M 85.5 25.3125 C 86.054688 25.351562 86.542969 25.445312 87 25.78125 C 87.113281 25.980469 87.113281 25.980469 87.1875 26.15625 C 87.140625 26.125 87.09375 26.089844 87.046875 26.058594 C 86.613281 25.769531 86.300781 25.625 85.78125 25.59375 C 85.78125 25.53125 85.78125 25.46875 85.78125 25.40625 C 85.6875 25.375 85.59375 25.34375 85.5 25.3125 Z M 85.5 25.3125 "/>
<path style=" stroke:none;fill-rule:nonzero;fill:rgb(5.098039%,7.843138%,14.509805%);fill-opacity:1;" d="M 78.09375 72.9375 C 78.230469 72.980469 78.367188 73.023438 78.503906 73.066406 C 78.578125 73.089844 78.65625 73.113281 78.734375 73.140625 C 78.9375 73.21875 78.9375 73.21875 79.125 73.40625 C 78.511719 73.441406 78.511719 73.441406 78.289062 73.265625 C 78.253906 73.21875 78.222656 73.171875 78.1875 73.125 C 78.15625 73.25 78.125 73.371094 78.09375 73.5 C 78.09375 73.3125 78.09375 73.128906 78.09375 72.9375 Z M 78.09375 72.9375 "/>
<path style=" stroke:none;fill-rule:nonzero;fill:rgb(12.941177%,62.352943%,90.196079%);fill-opacity:1;" d="M 31.78125 46.40625 C 31.8125 46.53125 31.84375 46.652344 31.875 46.78125 C 31.5625 46.988281 31.46875 46.988281 31.109375 46.980469 C 31.023438 46.980469 30.9375 46.976562 30.851562 46.976562 C 30.785156 46.972656 30.722656 46.972656 30.65625 46.96875 C 30.65625 46.9375 30.65625 46.90625 30.65625 46.875 C 30.714844 46.871094 30.773438 46.871094 30.832031 46.867188 C 31.3125 46.847656 31.3125 46.847656 31.695312 46.585938 C 31.722656 46.527344 31.75 46.46875 31.78125 46.40625 Z M 31.78125 46.40625 "/>
<path style=" stroke:none;fill-rule:nonzero;fill:rgb(14.117648%,62.7451%,90.196079%);fill-opacity:1;" d="M 27 31.5 C 27.246094 31.5 27.496094 31.5 27.75 31.5 C 27.65625 31.640625 27.65625 31.640625 27.5625 31.78125 C 27.316406 31.796875 27.316406 31.796875 27.09375 31.78125 C 27.0625 31.6875 27.03125 31.59375 27 31.5 Z M 27 31.5 "/>
<path style=" stroke:none;fill-rule:nonzero;fill:rgb(96.862745%,51.372552%,9.019608%);fill-opacity:1;" d="M 20.15625 17.625 C 20.15625 17.75 20.15625 17.871094 20.15625 18 C 19.878906 17.953125 19.878906 17.953125 19.59375 17.90625 C 19.839844 17.625 19.839844 17.625 20.15625 17.625 Z M 20.15625 17.625 "/>
<path style=" stroke:none;fill-rule:nonzero;fill:rgb(98.039216%,53.725493%,8.627451%);fill-opacity:1;" d="M 81.65625 42.28125 C 81.71875 42.3125 81.78125 42.34375 81.84375 42.375 C 81.8125 42.40625 81.78125 42.4375 81.75 42.46875 C 81.84375 42.53125 81.9375 42.59375 82.03125 42.65625 C 81.785156 42.71875 81.535156 42.78125 81.28125 42.84375 C 81.40625 42.65625 81.527344 42.472656 81.65625 42.28125 Z M 81.65625 42.28125 "/>
</g>
</svg>
