<?xml version="1.0" encoding="UTF-8"?>
<svg version="1.1" xmlns="http://www.w3.org/2000/svg" width="225" height="225">
<path d="M0 0 C74.25 0 148.5 0 225 0 C225 74.25 225 148.5 225 225 C150.75 225 76.5 225 0 225 C0 150.75 0 76.5 0 0 Z " fill="#FEFEFE" transform="translate(0,0)"/>
<path d="M0 0 C4.53319308 2.589199 7.76387635 5.21774523 9.92578125 10.08203125 C10.78948377 16.10995512 10.71743365 20.33193924 7.18861008 25.43614531 C4.88819278 28.4343541 2.22779264 31.05415202 -0.45068359 33.71246338 C-1.0883132 34.35321296 -1.7259428 34.99396255 -2.38289452 35.65412879 C-4.51225729 37.79144372 -6.64866699 39.92156841 -8.78515625 42.05175781 C-10.31659738 43.58590998 -11.84761292 45.12048708 -13.37823486 46.65545654 C-17.53048493 50.81681788 -21.68902878 54.97183576 -25.84900665 59.12547016 C-30.20099819 63.47239705 -34.54810667 67.82420276 -38.89599609 72.17523193 C-46.19594921 79.47882255 -53.50010703 86.77818824 -60.80664062 94.07519531 C-69.25828523 102.51594766 -77.70268968 110.9638919 -86.14338493 119.41559243 C-93.38904623 126.67032301 -100.63858946 133.92115711 -107.89140511 141.16873527 C-112.22401177 145.49822131 -116.55524963 149.82905346 -120.88299561 154.16339874 C-124.94960537 158.23577637 -129.02105842 162.3032483 -133.09633636 166.36695099 C-134.59285774 167.86082315 -136.08767105 169.35640861 -137.58066559 170.85380554 C-139.61511427 172.89370042 -141.65559233 174.92736461 -143.69775391 176.95953369 C-144.290362 177.55660322 -144.88297009 178.15367276 -145.493536 178.76883531 C-150.08432835 183.31600779 -152.98186725 185.3664521 -159.44921875 185.45703125 C-164.4934766 185.33629104 -167.31383672 184.66334747 -171.07421875 181.08203125 C-174.07067958 177.408179 -175.87912645 174.29593888 -176.63671875 169.58203125 C-175.39877521 161.87927148 -171.19376944 156.61094713 -165.76263428 151.26251221 C-164.81654859 150.30706658 -164.81654859 150.30706658 -163.85135007 149.33231902 C-161.74979999 147.21490095 -159.63434784 145.11196765 -157.51855469 143.00878906 C-156.00304081 141.48785137 -154.4883784 139.96606484 -152.97450256 138.4434967 C-148.87001935 134.32080857 -144.75302036 130.21083731 -140.6330862 126.10359669 C-136.3186678 121.79932045 -132.01403458 117.48527599 -127.70782471 113.17279053 C-120.47532075 105.93301376 -113.23443391 98.70170159 -105.98876953 91.47509766 C-97.61747451 83.12557049 -89.26068678 74.76173114 -80.91128898 66.39031148 C-73.73634322 59.19720146 -66.55361615 52.01193142 -59.36435342 44.8331306 C-55.07313582 40.54814221 -50.78465021 36.26051348 -46.5031662 31.96579742 C-42.47715705 27.92821569 -38.44145393 23.90057898 -34.39813042 19.88033867 C-32.91768037 18.40516806 -31.4406059 16.92660066 -29.9672184 15.44437599 C-27.95185419 13.41804337 -25.92450805 11.40449171 -23.89373779 9.39361572 C-23.31667202 8.80762706 -22.73960624 8.2216384 -22.14505363 7.6178925 C-16.26090057 1.84465177 -8.43980629 -3.73513084 0 0 Z " fill="#020202" transform="translate(187.07421875,11.91796875)"/>
<path d="M0 0 C4.45146251 2.18526342 7.18885145 4.9394521 10 9 C11.48132108 13.44396323 11.64593652 17.26844881 9.99411011 21.69647217 C7.21784503 26.29575127 3.64414913 29.7734107 -0.15576172 33.54394531 C-0.9869754 34.38041595 -1.81818909 35.2168866 -2.67459106 36.07870483 C-4.94593549 38.36096038 -7.22386113 40.63637141 -9.50542593 42.90840244 C-11.89656117 45.29191732 -14.28033987 47.68277175 -16.66531372 50.07244873 C-20.66977143 54.08235602 -24.68049428 58.08591507 -28.69482422 62.0859375 C-33.33170174 66.7064789 -37.95765797 71.33774344 -42.57811153 75.97470403 C-46.55146294 79.96167974 -50.53064376 83.94276649 -54.51473439 87.91901088 C-56.89167467 90.29128128 -59.26655853 92.66551504 -61.63619614 95.04508209 C-64.27876062 97.6952557 -66.93073488 100.33563755 -69.58544922 102.97363281 C-70.36692322 103.7611795 -71.14839722 104.5487262 -71.95355225 105.36013794 C-72.67970734 106.07783356 -73.40586243 106.79552917 -74.15402222 107.53497314 C-74.77971037 108.15953022 -75.40539852 108.7840873 -76.05004692 109.42757034 C-80.38327364 112.92185658 -84.53945605 113.47899508 -90 113 C-95.67549553 110.95682161 -99.29873721 107.40252559 -102 102 C-102.23828125 99.609375 -102.23828125 99.609375 -102.3125 96.75 C-102.34988281 95.81671875 -102.38726562 94.8834375 -102.42578125 93.921875 C-101.37774507 86.7298469 -94.90611814 81.62098468 -89.99023438 76.73144531 C-89.18652908 75.92423538 -88.38282379 75.11702545 -87.55476379 74.28535461 C-84.90608994 71.62790305 -82.25019696 68.97780472 -79.59375 66.328125 C-77.74787618 64.48090367 -75.90229932 62.63338555 -74.05700684 60.7855835 C-70.19377384 56.91871958 -66.32636008 53.05607475 -62.45654297 49.19580078 C-57.98569294 44.73584904 -53.52211406 40.26871737 -49.06221342 35.79781842 C-44.76430366 31.48973573 -40.46078742 27.18729991 -36.15486145 22.88722992 C-34.32572032 21.0594241 -32.49806686 19.23012829 -30.67192078 17.39933014 C-28.12267221 14.84501262 -25.56711788 12.29717723 -23.00976562 9.75097656 C-21.8765966 8.61173485 -21.8765966 8.61173485 -20.72053528 7.44947815 C-20.02244247 6.75702499 -19.32434967 6.06457184 -18.60510254 5.35113525 C-17.7003204 4.44748419 -17.7003204 4.44748419 -16.77725983 3.52557755 C-11.7390772 -0.79913523 -6.37731307 -0.74972766 0 0 Z " fill="#000000" transform="translate(203,101)"/>
</svg>
