<?xml version="1.0" encoding="UTF-8"?>
<svg version="1.1" xmlns="http://www.w3.org/2000/svg" width="1024" height="1024">
<path d="M0 0 C337.92 0 675.84 0 1024 0 C1024 337.92 1024 675.84 1024 1024 C686.08 1024 348.16 1024 0 1024 C0 686.08 0 348.16 0 0 Z " fill="#FCFBFC" transform="translate(0,0)"/>
<path d="M0 0 C0.73605469 0.32597168 1.47210938 0.65194336 2.23046875 0.98779297 C4.61074206 2.07960951 6.96179804 3.22094748 9.3125 4.375 C11.16469141 5.27092426 13.01759489 6.16537749 14.87109375 7.05859375 C15.85706543 7.53409668 16.84303711 8.00959961 17.85888672 8.49951172 C23.50673602 11.19745061 29.19293179 13.8126125 34.875 16.4375 C61.69928703 28.84964351 61.69928703 28.84964351 74 35 C74.66 60.08 75.32 85.16 76 111 C96.88672217 106.12643149 117.69292101 101.14758692 138.3989563 95.56486511 C144.4558364 93.93291138 150.51945873 92.33603846 156.6015625 90.80078125 C157.87596191 90.47891846 159.15036133 90.15705566 160.46337891 89.82543945 C162.21400635 89.41684692 162.21400635 89.41684692 164 89 C164.96953613 88.72462402 165.93907227 88.44924805 166.93798828 88.16552734 C171.39306279 87.9246933 174.45229524 89.60453454 178.390625 91.55078125 C179.17644958 91.92478561 179.96227417 92.29878998 180.77191162 92.68412781 C182.42598886 93.47475715 184.07651968 94.27284385 185.72363281 95.07788086 C188.24858845 96.31181018 190.7830792 97.52396997 193.3203125 98.73242188 C194.927679 99.5039686 196.53447072 100.27671417 198.140625 101.05078125 C198.89893616 101.41544998 199.65724731 101.78011871 200.4385376 102.15583801 C205.76399823 104.76399823 205.76399823 104.76399823 208 107 C208.24839699 109.15918171 208.24839699 109.15918171 208.24609566 111.9000721 C208.25007775 112.94210608 208.25405985 113.98414006 208.25816262 115.05775082 C208.25233693 116.21142773 208.24651125 117.36510464 208.24050903 118.55374146 C208.24307231 120.38165263 208.24307231 120.38165263 208.24568737 122.24649131 C208.24842095 125.63972697 208.24213677 129.03273407 208.23213124 132.42594218 C208.22352062 136.08101962 208.2264152 139.73608959 208.22793579 143.39117432 C208.22898616 149.72741506 208.22269373 156.06361472 208.21146011 162.39984512 C208.1952286 171.56104428 208.18999952 180.7222235 208.18748413 189.88343547 C208.18310333 204.74570654 208.1697838 219.60795568 208.15087891 234.47021484 C208.13253006 248.91031789 208.11836869 263.350415 208.10986328 277.79052734 C208.10933783 278.68012658 208.10881239 279.56972581 208.10827102 280.4862826 C208.105661 284.94899453 208.10313357 289.4117065 208.10064721 293.8744185 C208.07990272 330.91629447 208.04466674 367.95814553 208 405 C207.33926483 405.34387756 206.67852966 405.68775513 205.99777222 406.04205322 C202.9747181 407.61588826 199.95219904 409.19074823 196.9296875 410.765625 C195.89030029 411.30654785 194.85091309 411.8474707 193.7800293 412.40478516 C187.71014792 415.56853927 181.66904426 418.76715852 175.6953125 422.109375 C168.69414505 424.42280424 161.72304922 422.71093171 154.859375 420.69140625 C153.068752 420.18989923 151.27797341 419.68894749 149.48706055 419.18847656 C148.55195648 418.92296997 147.61685242 418.65746338 146.65341187 418.38391113 C122.67935059 411.60135263 98.48184468 406.55524999 74 402 C74.0199855 403.37729279 74.0199855 403.37729279 74.04037476 404.78240967 C74.16058038 413.43413788 74.25193841 422.08558583 74.31087303 430.737957 C74.34219098 435.186344 74.38467083 439.63404126 74.45263672 444.08203125 C74.51781494 448.37443061 74.55370255 452.66616652 74.56926346 456.95902252 C74.5803528 458.59698179 74.60200856 460.23490459 74.63438034 461.87258148 C74.67792812 464.16682963 74.68393553 466.45833496 74.68115234 468.75292969 C74.70113785 470.71150909 74.70113785 470.71150909 74.7215271 472.70965576 C74 476 74 476 71.08442688 478.3875885 C66.14112358 480.97174413 66.14112358 480.97174413 64.14453125 481.82421875 C63.44900146 482.12618164 62.75347168 482.42814453 62.03686523 482.73925781 C61.30282471 483.05217773 60.56878418 483.36509766 59.8125 483.6875 C52.34787237 486.93346205 44.97389152 490.3356281 37.6340332 493.85424805 C33.19248854 495.97905658 28.72544408 498.02540282 24.22094727 500.01318359 C20.62648593 501.61028294 17.06121132 503.26781059 13.5 504.9375 C12.76096436 505.28232422 12.02192871 505.62714844 11.26049805 505.98242188 C6.6672178 508.14682124 2.23973965 510.44656663 -2.04296875 513.1875 C-6.09499143 514.86977688 -9.4076176 514.23316864 -13.40893555 512.65820312 C-14.65741505 512.04437986 -15.89977125 511.41799245 -17.13671875 510.78125 C-17.80938278 510.44766983 -18.48204681 510.11408966 -19.1750946 509.770401 C-20.60923965 509.05825438 -22.04087482 508.34103429 -23.47015381 507.61917114 C-27.19279774 505.74022428 -30.93442394 503.89992311 -34.67578125 502.05859375 C-35.4068811 501.69789291 -36.13798096 501.33719208 -36.89123535 500.96556091 C-43.01870693 497.95665582 -49.2332356 495.24208178 -55.55859375 492.67700195 C-61.99865671 490.05264692 -68.26072684 487.10137904 -74.51123047 484.05493164 C-75.2435791 483.70035889 -75.97592773 483.34578613 -76.73046875 482.98046875 C-77.68022583 482.51483521 -77.68022583 482.51483521 -78.64916992 482.03979492 C-82.03637424 480.54160163 -85.53207432 479.30047213 -89 478 C-89 452.92 -89 427.84 -89 402 C-116.51167491 408.26671323 -116.51167491 408.26671323 -143.98046875 414.71118164 C-146.59054171 415.33410894 -149.20149614 415.95325289 -151.8125 416.57226562 C-153.53134155 416.98138639 -155.25009402 417.39088163 -156.96875 417.80078125 C-158.18014648 418.08902267 -158.18014648 418.08902267 -159.41601562 418.38308716 C-164.49306678 419.60289384 -169.51436352 420.94393739 -174.49804688 422.50854492 C-181.28743122 423.84217399 -186.2190475 422.98641935 -192.38671875 420.0078125 C-193.05161819 419.70181122 -193.71651764 419.39580994 -194.40156555 419.08053589 C-196.50376669 418.10942908 -198.59554138 417.11794952 -200.6875 416.125 C-202.10155237 415.46602728 -203.51626169 414.80846236 -204.93164062 414.15234375 C-206.92766051 413.2270054 -208.92253848 412.29988843 -210.91227722 411.3611145 C-214.24668502 409.78973179 -217.57145111 408.37141956 -221 407 C-221 307.67 -221 208.34 -221 106 C-215.72 103.36 -210.44 100.72 -205 98 C-203.02386719 96.91332031 -201.04773438 95.82664062 -199.01171875 94.70703125 C-198.12033203 94.22298828 -197.22894531 93.73894531 -196.31054688 93.24023438 C-194.52856439 92.27029454 -192.7605144 91.27440275 -191.00585938 90.25585938 C-186.08007698 87.64049494 -182.96780962 86.53754804 -177.484375 88.01953125 C-175.6490066 88.65927349 -173.82051363 89.3191348 -172 90 C-170.36068489 90.47414986 -168.71597245 90.93003369 -167.06640625 91.3671875 C-166.1952417 91.60679199 -165.32407715 91.84639648 -164.42651367 92.09326172 C-149.23572249 96.23961867 -133.96359855 100.05724604 -118.6875 103.875 C-117.51019318 104.16953064 -116.33288635 104.46406128 -115.11990356 104.76751709 C-111.7300877 105.61490467 -108.33977594 106.46027147 -104.94921875 107.3046875 C-103.4053801 107.69019775 -103.4053801 107.69019775 -101.83035278 108.08349609 C-100.87273041 108.32132812 -99.91510803 108.55916016 -98.9284668 108.80419922 C-98.09421677 109.01180878 -97.25996674 109.21941833 -96.4004364 109.43331909 C-93.94640772 110.01265175 -91.47251879 110.50549624 -89 111 C-89 86.25 -89 61.5 -89 36 C-83.72 33.36 -78.44 30.72 -73 28 C-71.01871094 27.00355469 -69.03742188 26.00710937 -66.99609375 24.98046875 C-55.18465241 19.04088202 -43.33321247 13.2010712 -31.37109375 7.5703125 C-27.90232118 5.93161009 -24.48772993 4.22528616 -21.09765625 2.4296875 C-19.95768188 1.8433252 -19.95768188 1.8433252 -18.79467773 1.24511719 C-17.40513881 0.52775423 -16.02678865 -0.21198271 -14.66430664 -0.97949219 C-8.96855251 -3.86555847 -5.44761763 -2.46917186 0 0 Z " fill="#A32D23" transform="translate(290,177)"/>
<path d="M0 0 C0.96162552 0.29179642 1.92325104 0.58359283 2.91401672 0.88423157 C3.9024205 1.19184921 4.89082428 1.49946686 5.90917969 1.81640625 C7.8202214 2.34709632 9.73360387 2.86942519 11.64916992 3.38354492 C13.13079369 3.78625359 13.13079369 3.78625359 14.64234924 4.19709778 C25.21903694 7.06135699 35.81472945 9.83084978 46.44433594 12.4921875 C48.23972305 12.94257889 48.23972305 12.94257889 50.07138062 13.40206909 C54.9675252 14.62914521 59.86407019 15.85441079 64.76342773 17.06860352 C68.40893687 17.97332325 72.05179191 18.88811428 75.69433594 19.8046875 C76.8106691 20.07863846 77.92700226 20.35258942 79.0771637 20.63484192 C80.60288246 21.02116035 80.60288246 21.02116035 82.15942383 21.4152832 C83.05585098 21.63843704 83.95227814 21.86159088 84.87586975 22.09150696 C86.90917969 22.81640625 86.90917969 22.81640625 87.90917969 24.81640625 C87.9956742 27.29740359 88.02483022 29.74985553 88.00683594 32.23046875 C88.00471352 33.32492813 88.00471352 33.32492813 88.00254822 34.4414978 C87.99694499 36.7748421 87.98439203 39.10809089 87.97167969 41.44140625 C87.9666651 43.02213403 87.96210212 44.60286332 87.95800781 46.18359375 C87.94697453 50.06123479 87.9297078 53.93880432 87.90917969 57.81640625 C88.46033447 57.85016357 89.01148926 57.8839209 89.5793457 57.91870117 C98.80530015 58.6164324 107.89052345 60.16084844 117.01196289 61.6628418 C119.8082093 62.12258122 122.60564494 62.57443898 125.40332031 63.02539062 C135.38524502 64.64925545 145.31844544 66.41813357 155.2172699 68.49372864 C155.9799971 68.65201645 156.7427243 68.81030426 157.52856445 68.97338867 C158.18413834 69.11225998 158.83971222 69.25113129 159.51515198 69.39421082 C162.95896787 70.00154019 166.4392254 70.38266196 169.90917969 70.81640625 C169.57917969 76.42640625 169.24917969 82.03640625 168.90917969 87.81640625 C155.23864081 90.67713651 141.58623764 93.25741579 127.7668457 95.28710938 C118.48802488 96.67181974 109.29331498 98.40132155 100.0949707 100.2421875 C99.06557373 100.44714844 98.03617676 100.65210938 96.97558594 100.86328125 C96.06752197 101.04729492 95.15945801 101.23130859 94.22387695 101.42089844 C91.90917969 101.81640625 91.90917969 101.81640625 88.90917969 101.81640625 C88.90917969 145.37640625 88.90917969 188.93640625 88.90917969 233.81640625 C93.19917969 233.81640625 97.48917969 233.81640625 101.90917969 233.81640625 C105.77734375 234.24365234 105.77734375 234.24365234 108.92480469 234.83984375 C110.10429687 235.05527832 111.28378906 235.27071289 112.49902344 235.49267578 C113.706875 235.72325684 114.91472656 235.95383789 116.15917969 236.19140625 C127.99048536 238.35900463 127.99048536 238.35900463 139.90917969 239.94140625 C146.42817686 240.63703095 152.91681828 241.46591793 159.40917969 242.37890625 C160.33730469 242.50604004 161.26542969 242.63317383 162.22167969 242.76416016 C163.07761719 242.88581543 163.93355469 243.0074707 164.81542969 243.1328125 C165.58177734 243.24052979 166.348125 243.34824707 167.13769531 243.45922852 C168.90917969 243.81640625 168.90917969 243.81640625 169.90917969 244.81640625 C170.00924977 247.63897116 170.04793567 250.43163815 170.03417969 253.25390625 C170.03804687 254.04345703 170.04191406 254.83300781 170.04589844 255.64648438 C170.03581035 261.56314492 170.03581035 261.56314492 168.90917969 263.81640625 C170.13121094 263.7817627 171.35324219 263.74711914 172.61230469 263.71142578 C178.71127376 263.71632801 184.63536693 264.61004916 190.65917969 265.49609375 C191.87130127 265.66891876 193.08342285 265.84174377 194.33227539 266.01980591 C198.1921166 266.57110993 202.05067804 267.13081053 205.90917969 267.69140625 C210.97125244 268.42096475 216.03382775 269.14696347 221.09667969 269.87109375 C222.30509521 270.04437195 223.51351074 270.21765015 224.75854492 270.3961792 C233.79369506 271.68227567 242.83623546 272.83328512 251.90917969 273.81640625 C252.08620394 300.29923477 251.77097934 326.77408281 251.40917969 353.25390625 C251.39722187 354.12931564 251.38526405 355.00472504 251.37294388 355.90666199 C251.22269426 366.87663918 251.06796241 377.84654932 250.90917969 388.81640625 C242.2588804 393.165007 233.56748349 397.36854165 224.78417969 401.44140625 C223.57450241 402.00642079 222.36486687 402.57152473 221.15527344 403.13671875 C215.98075328 405.53978178 210.81853963 407.89745989 205.50292969 409.97265625 C201.33376627 411.60207241 197.44504525 413.52223698 193.53417969 415.69140625 C192.24688384 416.38757847 190.95911654 417.08287958 189.67089844 417.77734375 C188.41687162 418.45680878 187.16296173 419.13648966 185.90917969 419.81640625 C183.72931183 420.99727181 181.54242987 422.16534218 179.34667969 423.31640625 C178.43789063 423.80109375 177.52910156 424.28578125 176.59277344 424.78515625 C172.1218773 426.50322987 168.95229221 426.22698753 164.50024414 424.47460938 C163.25176464 423.86078611 162.00940844 423.2343987 160.77246094 422.59765625 C160.09979691 422.26407608 159.42713287 421.93049591 158.73408508 421.58680725 C157.29994003 420.87466063 155.86830487 420.15744054 154.43902588 419.43557739 C150.71638195 417.55663053 146.97475574 415.71632936 143.23339844 413.875 C142.50229858 413.51429916 141.77119873 413.15359833 141.01794434 412.78196716 C134.89047276 409.77306207 128.67594408 407.05848803 122.35058594 404.4934082 C115.91052298 401.86905317 109.64845285 398.91778529 103.39794922 395.87133789 C102.66560059 395.51676514 101.93325195 395.16219238 101.17871094 394.796875 C100.22895386 394.33124146 100.22895386 394.33124146 99.26000977 393.85620117 C95.87280544 392.35800788 92.37710536 391.11687838 88.90917969 389.81640625 C88.90917969 364.73640625 88.90917969 339.65640625 88.90917969 313.81640625 C61.39750478 320.08311948 61.39750478 320.08311948 33.92871094 326.52758789 C31.31863797 327.15051519 28.70768354 327.76965914 26.09667969 328.38867188 C24.37783814 328.79779264 22.65908567 329.20728788 20.94042969 329.6171875 C19.7290332 329.90542892 19.7290332 329.90542892 18.49316406 330.19949341 C13.41611291 331.41930009 8.39481617 332.76034364 3.41113281 334.32495117 C-3.37825153 335.65858024 -8.30986781 334.8028256 -14.47753906 331.82421875 C-15.14243851 331.51821747 -15.80733795 331.21221619 -16.49238586 330.89694214 C-18.594587 329.92583533 -20.68636169 328.93435577 -22.77832031 327.94140625 C-24.19237268 327.28243353 -25.60708201 326.62486861 -27.02246094 325.96875 C-29.01848082 325.04341165 -31.01335879 324.11629468 -33.00309753 323.17752075 C-36.33750533 321.60613804 -39.66227142 320.18782581 -43.09082031 318.81640625 C-43.09082031 219.48640625 -43.09082031 120.15640625 -43.09082031 17.81640625 C-37.81082031 15.17640625 -32.53082031 12.53640625 -27.09082031 9.81640625 C-24.12662109 8.18638672 -24.12662109 8.18638672 -21.10253906 6.5234375 C-20.21115234 6.03939453 -19.31976563 5.55535156 -18.40136719 5.05664062 C-16.61938471 4.08670079 -14.85133471 3.090809 -13.09667969 2.07226562 C-8.31403605 -0.46709869 -5.27521653 -1.6749807 0 0 Z " fill="#E9463D" transform="translate(112.0908203125,265.18359375)"/>
<path d="M0 0 C0.79152126 29.31365315 1.11115032 58.61564816 1.12338257 87.93874741 C1.125004 90.50633877 1.12856785 93.07392134 1.13256836 95.64151001 C1.13840752 99.71567781 1.13865687 103.78980805 1.13431931 107.86397743 C1.13332068 109.38316134 1.13391438 110.90234719 1.13615799 112.42152977 C1.13869355 114.50827185 1.1349268 116.59490654 1.12939453 118.68164062 C1.12859894 119.8587561 1.12780334 121.03587158 1.12698364 122.24865723 C1 125 1 125 0 127 C1.01715088 127.0839502 2.03430176 127.16790039 3.08227539 127.25439453 C9.77305243 128.09814438 16.20602456 130.11254368 22.68359375 131.9296875 C24.10779681 132.3250627 25.53212057 132.72000333 26.95655823 133.11453247 C29.93205875 133.93991333 32.90648994 134.76900511 35.88012695 135.60107422 C39.66873259 136.66109544 43.45922867 137.714149 47.25047207 138.76469231 C50.18946228 139.57948718 53.1277394 140.39682803 56.06578255 141.21503067 C57.46211977 141.60380932 58.8585948 141.99209336 60.2552166 142.37984848 C67.56701672 144.41237345 74.82662294 146.51560751 82 149 C82 149.33 82 149.66 82 150 C80.8754541 150.15033691 79.7509082 150.30067383 78.59228516 150.45556641 C73.26866256 151.17000984 67.94658886 151.89557446 62.625 152.625 C61.65737732 152.75739075 60.68975464 152.88978149 59.69281006 153.02618408 C45.07201716 155.03737089 30.53777006 157.33535639 16.05322266 160.17041016 C2.29930368 162.76591619 -9.07646551 162.02103752 -22.62060547 159.11816406 C-28.04678497 157.96366833 -33.49618972 157.02951341 -38.97265625 156.1484375 C-39.88485931 156.00118225 -40.79706238 155.853927 -41.73690796 155.70220947 C-44.51164735 155.25688357 -47.28701513 154.81565352 -50.0625 154.375 C-52.88229579 153.9242601 -55.70190665 153.47239731 -58.52134705 153.0194397 C-60.25089524 152.7418843 -61.98066333 152.46569359 -63.71070862 152.19125366 C-69.82764946 151.21406401 -75.90123063 150.10886716 -82 149 C-82.495 131.675 -82.495 131.675 -83 114 C-82.34 114 -81.68 114 -81 114 C-81 89.25 -81 64.5 -81 39 C-75.72 36.36 -70.44 33.72 -65 31 C-63.01871094 30.00355469 -61.03742188 29.00710937 -58.99609375 27.98046875 C-45.41034812 21.14864254 -31.74324283 14.50863501 -18 8 C-16.27210175 7.17845623 -14.54423599 6.35684411 -12.81640625 5.53515625 C-11.25276709 4.79392704 -9.68897449 4.0530214 -8.125 3.3125 C-7.41093994 2.9731543 -6.69687988 2.63380859 -5.96118164 2.28417969 C-1.11608045 0 -1.11608045 0 0 0 Z " fill="#A22D22" transform="translate(282,174)"/>
<path d="M0 0 C11.25679632 2.25135926 11.25679632 2.25135926 16.8125 4.96875 C18.57787109 5.82533203 18.57787109 5.82533203 20.37890625 6.69921875 C20.9733252 6.99489746 21.56774414 7.29057617 22.18017578 7.59521484 C24.01921461 8.50955317 25.86604798 9.40635989 27.71484375 10.30078125 C36.69811959 14.69811959 36.69811959 14.69811959 39 17 C39.24839699 19.15918171 39.24839699 19.15918171 39.24609566 21.9000721 C39.25007775 22.94210608 39.25405985 23.98414006 39.25816262 25.05775082 C39.24942409 26.78826618 39.24942409 26.78826618 39.24050903 28.55374146 C39.24221788 29.77234891 39.24392673 30.99095636 39.24568737 32.24649131 C39.24842095 35.63972697 39.24213677 39.03273407 39.23213124 42.42594218 C39.22352062 46.08101962 39.2264152 49.73608959 39.22793579 53.39117432 C39.22898616 59.72741506 39.22269373 66.06361472 39.21146011 72.39984512 C39.1952286 81.56104428 39.18999952 90.7222235 39.18748413 99.88343547 C39.18310333 114.74570654 39.1697838 129.60795568 39.15087891 144.47021484 C39.13253006 158.91031789 39.11836869 173.350415 39.10986328 187.79052734 C39.10907511 189.1249262 39.10907511 189.1249262 39.10827102 190.4862826 C39.105661 194.94899453 39.10313357 199.4117065 39.10064721 203.8744185 C39.07990272 240.91629447 39.04466674 277.95814553 39 315 C35.08758545 317.04125977 35.08758545 317.04125977 31.1751709 319.08251953 C30.11060669 319.63794434 29.04604248 320.19336914 27.94921875 320.765625 C4.5 333 4.5 333 0 333 C0 223.11 0 113.22 0 0 Z " fill="#E94239" transform="translate(459,267)"/>
<path d="M0 0 C1.21212158 0.17282501 2.42424316 0.34565002 3.6730957 0.52371216 C7.53293691 1.07501618 11.39149835 1.63471678 15.25 2.1953125 C20.31207275 2.924871 25.37464806 3.65086972 30.4375 4.375 C31.64591553 4.5482782 32.85433105 4.7215564 34.09936523 4.90008545 C43.13451537 6.18618192 52.17705577 7.33719137 61.25 8.3203125 C61.42702425 34.80314102 61.11179966 61.27798906 60.75 87.7578125 C60.73206327 89.07092659 60.73206327 89.07092659 60.71376419 90.41056824 C60.56351458 101.38054543 60.40878273 112.35045557 60.25 123.3203125 C51.59970072 127.66891325 42.9083038 131.8724479 34.125 135.9453125 C32.91532272 136.51032704 31.70568718 137.07543098 30.49609375 137.640625 C25.3215736 140.04368803 20.15935994 142.40136614 14.84375 144.4765625 C10.6747002 146.10593426 6.78543301 148.02548591 2.875 150.1953125 C1.59172945 150.89170153 0.3078661 151.58699921 -0.9765625 152.28125 C-1.60594727 152.6225293 -2.23533203 152.96380859 -2.88378906 153.31542969 C-5.73817491 154.85240668 -8.61310642 156.34541045 -11.5 157.8203125 C-12.91539062 158.54734375 -12.91539062 158.54734375 -14.359375 159.2890625 C-16.75 160.3203125 -16.75 160.3203125 -19.75 160.3203125 C-19.75 116.1003125 -19.75 71.8803125 -19.75 26.3203125 C-22.06 26.3203125 -24.37 26.3203125 -26.75 26.3203125 C-28.65045484 26.00952891 -30.54125482 25.63249025 -32.41552734 25.19042969 C-33.48128998 24.94307068 -34.54705261 24.69571167 -35.64511108 24.44085693 C-36.7805838 24.16904602 -37.91605652 23.89723511 -39.0859375 23.6171875 C-40.27869293 23.33812561 -41.47144836 23.05906372 -42.7003479 22.77154541 C-46.51031068 21.87837802 -50.31764605 20.97452892 -54.125 20.0703125 C-56.64696882 19.4771558 -59.16910282 18.88470094 -61.69140625 18.29296875 C-67.65467536 16.89236413 -73.61599789 15.48370078 -79.57653809 14.0715332 C-84.06302676 13.0094933 -88.55090756 11.95340979 -93.0390625 10.8984375 C-94.37190831 10.58496415 -95.70475346 10.27148801 -97.03759766 9.95800781 C-97.93269043 9.74756836 -98.8277832 9.53712891 -99.75 9.3203125 C-99.75 8.9903125 -99.75 8.6603125 -99.75 8.3203125 C-79.85782581 5.4586375 -59.96306805 2.7863793 -39.98706055 0.57714844 C-39.28343384 0.49924072 -38.57980713 0.42133301 -37.8548584 0.34106445 C-35.96553349 0.13276738 -34.07591736 -0.07288352 -32.1862793 -0.27832031 C-29.90778041 -0.54445546 -27.63458425 -0.86114501 -25.37036133 -1.22949219 C-16.72312246 -2.30478442 -8.58525012 -1.26280726 0 0 Z " fill="#EA5046" transform="translate(302.75,530.6796875)"/>
<path d="M0 0 C0.88171875 0.26683594 1.7634375 0.53367187 2.671875 0.80859375 C13.87733276 4.72354406 24.14832186 12.72460796 29.72265625 23.25390625 C34.01441498 32.33457779 35 37.41899723 35 48 C24.77 48 14.54 48 4 48 C2.02 44.04 0.04 40.08 -2 36 C-9.92049428 27.696256 -17.90308418 25.11602954 -29.25 24.75 C-37.56096711 24.86292075 -44.5541416 26.61743678 -50.66015625 32.46484375 C-53.43839663 35.64807544 -53.92866926 38.22962806 -54.3125 42.375 C-53.8655618 47.55948315 -52.66261848 51.46179888 -48.78149414 55.05249023 C-39.16106039 61.78839825 -25.31905505 63.97599403 -14.03442383 66.97680664 C3.77631547 71.7339256 21.58339538 76.95975261 32.33984375 93.10546875 C39.2786012 105.20339644 39.77355857 119.03124881 36.875 132.5 C33.15360752 145.03157281 24.91914216 154.32925832 13.63671875 160.6875 C1.70061699 166.62902621 -10.02855828 168.37740189 -23.25 168.3125 C-24.44786133 168.30686035 -25.64572266 168.3012207 -26.87988281 168.29541016 C-35.31394418 168.17951353 -42.94443877 167.6751302 -51 165 C-51.61762207 164.79600586 -52.23524414 164.59201172 -52.87158203 164.38183594 C-61.21647191 161.54865613 -68.55546214 158.16274248 -75 152 C-75.78117188 151.25878906 -76.56234375 150.51757812 -77.3671875 149.75390625 C-87.81235164 139.05189382 -91 126.66139256 -91 112 C-80.77 112 -70.54 112 -60 112 C-58.68 116.29 -57.36 120.58 -56 125 C-49.934035 133.51568164 -43.24953001 137.13685673 -33 139 C-29.82695291 139.26377409 -26.68243329 139.28064944 -23.5 139.25 C-22.69691406 139.25773438 -21.89382813 139.26546875 -21.06640625 139.2734375 C-13.33156595 139.24836508 -5.10141801 138.17462033 1 133 C5.00417395 128.00364135 5.55629244 122.74322565 5.33984375 116.4921875 C4.9223418 113.43050653 3.88344603 111.43278445 2 109 C2 108.34 2 107.68 2 107 C1.26064209 106.70706055 0.52128418 106.41412109 -0.24047852 106.11230469 C-1.84296127 105.46637782 -3.44045962 104.80716936 -5.02319336 104.11425781 C-10.46735564 101.78452342 -15.99747965 100.07040223 -21.69140625 98.484375 C-22.48574066 98.2625354 -23.28007507 98.0406958 -24.09848022 97.81213379 C-27.40682538 96.89260367 -30.71639577 95.97840547 -34.03149414 95.08349609 C-43.1037303 92.62393212 -51.8267835 89.91377473 -60.35546875 85.921875 C-61.38686729 85.4397757 -61.38686729 85.4397757 -62.43910217 84.94793701 C-72.90385876 79.82934408 -80.65098297 71.88483829 -84.59765625 60.890625 C-86.23643921 55.81822622 -86.53907213 51.05452967 -86.5 45.75 C-86.49033203 44.37074341 -86.49033203 44.37074341 -86.48046875 42.96362305 C-86.14685521 30.46738174 -81.71628641 20.94437615 -73 12 C-54.33160221 -5.34329231 -23.47912311 -7.40939541 0 0 Z " fill="#1E2E3D" transform="translate(708,577)"/>
<path d="M0 0 C0 110.22 0 220.44 0 334 C2.64 333.67 5.28 333.34 8 333 C6 335 6 335 2.33666992 335.31201172 C-1.99442703 335.19579059 -5.51902362 333.87567198 -9.38671875 332.0078125 C-10.05161819 331.70181122 -10.71651764 331.39580994 -11.40156555 331.08053589 C-13.50376669 330.10942908 -15.59554138 329.11794952 -17.6875 328.125 C-19.10155237 327.46602728 -20.51626169 326.80846236 -21.93164062 326.15234375 C-23.92766051 325.2270054 -25.92253848 324.29988843 -27.91227722 323.3611145 C-31.24668502 321.78973179 -34.57145111 320.37141956 -38 319 C-38 219.67 -38 120.34 -38 18 C-32.72 15.36 -27.44 12.72 -22 10 C-20.06382813 9.0203125 -18.12765625 8.040625 -16.1328125 7.03125 C-15.29105469 6.60585938 -14.44929688 6.18046875 -13.58203125 5.7421875 C-11.88787017 4.88567999 -10.19525063 4.0261188 -8.50390625 3.1640625 C-7.68019531 2.74898438 -6.85648438 2.33390625 -6.0078125 1.90625 C-5.28223145 1.53822266 -4.55665039 1.17019531 -3.80908203 0.79101562 C-2 0 -2 0 0 0 Z " fill="#A32D23" transform="translate(107,265)"/>
<path d="M0 0 C8.58602351 0.66046335 16.46976228 1.50159367 24.8125 3.1875 C38.77395897 5.90267909 52.80943342 7.9889838 66.88208008 10.03198242 C67.7290596 10.15576767 68.57603912 10.27955292 69.44868469 10.40708923 C71.04912116 10.64057793 72.64992713 10.87155211 74.25114441 11.09962463 C77.28467788 11.54160022 80.08453661 12.02817887 83 13 C83 56.23 83 99.46 83 144 C80.09001059 145.4549947 77.28340215 145.47137376 74.046875 145.796875 C72.56256475 145.94995275 71.07827194 146.10319973 69.59399414 146.2565918 C68.80509796 146.33678558 68.01620178 146.41697937 67.20339966 146.49960327 C52.4591195 148.00442109 37.75400878 149.73450905 23.0625 151.6875 C22.24463013 151.79582153 21.42676025 151.90414307 20.58410645 152.01574707 C18.25502531 152.32496706 15.92625058 152.63635539 13.59765625 152.94921875 C12.57337273 153.08649635 12.57337273 153.08649635 11.52839661 153.22654724 C7.66942453 153.75086591 3.8438115 154.35936475 0 155 C0 103.85 0 52.7 0 0 Z " fill="#EA5046" transform="translate(282,354)"/>
<path d="M0 0 C0 50.82 0 101.64 0 154 C-7.86948227 155.12421175 -7.86948227 155.12421175 -11.4609375 154.51171875 C-12.64876831 154.31944702 -12.64876831 154.31944702 -13.8605957 154.12329102 C-14.69034912 153.97947998 -15.52010254 153.83566895 -16.375 153.6875 C-18.16758831 153.39608756 -19.96056574 153.10705959 -21.75390625 152.8203125 C-22.64223145 152.67754883 -23.53055664 152.53478516 -24.44580078 152.38769531 C-28.057966 151.83941407 -31.67981677 151.44581741 -35.3125 151.0625 C-43.12374048 150.21773715 -50.82612386 148.8697883 -58.54418945 147.40844727 C-65.78381821 146.07738293 -72.54350972 145.57357618 -80 145 C-80 101.44 -80 57.88 -80 13 C-35.87825829 4.17565166 -35.87825829 4.17565166 -24.33984375 2.5078125 C-21.65626837 2.0997835 -18.98876261 1.65313436 -16.31640625 1.1796875 C-15.49938232 1.03668213 -14.6823584 0.89367676 -13.84057617 0.74633789 C-12.22641702 0.46231365 -10.61323731 0.17265156 -9.0012207 -0.12329102 C-3.3341429 -1.11138097 -3.3341429 -1.11138097 0 0 Z " fill="#A32D23" transform="translate(281,354)"/>
<path d="M0 0 C16.00008171 2.69711242 31.70891384 6.66231704 47.47509766 10.4597168 C51.1023962 11.33196269 54.73084507 12.19929962 58.359375 13.06640625 C59.45030457 13.33103165 60.54123413 13.59565704 61.66522217 13.86830139 C63.23811005 14.24395485 63.23811005 14.24395485 64.84277344 14.62719727 C65.74493591 14.84465103 66.64709839 15.0621048 67.57659912 15.28614807 C72.68679641 16.35173294 77.85091153 17.14181859 83 18 C83 62.22 83 106.44 83 152 C78.45713275 151.09142655 75.49269594 149.93686996 71.3984375 147.90234375 C70.09995006 147.26315278 68.80144685 146.62399386 67.50292969 145.98486328 C66.49184143 145.48312592 66.49184143 145.48312592 65.46032715 144.97125244 C55.27303441 139.92113896 45.0799567 135.01264474 34.54321289 130.72753906 C28.07120051 128.08257593 21.77336872 125.11798646 15.48925781 122.05517578 C14.75674805 121.70052246 14.02423828 121.34586914 13.26953125 120.98046875 C12.63635986 120.67004639 12.00318848 120.35962402 11.35083008 120.03979492 C7.95567684 118.53808575 4.48318916 117.2840715 1 116 C0.82827936 104.16673612 0.66179879 92.3334037 0.5 80.5 C0.48812275 79.63156967 0.4762455 78.76313934 0.46400833 77.86839294 C0.11056144 51.9114463 -0.16706795 25.95978921 0 0 Z " fill="#A32D22" transform="translate(200,539)"/>
<path d="M0 0 C3.34211512 3.2349111 4.26734671 6.22549187 5.57756042 10.60777283 C5.82838977 11.40362761 6.07921911 12.1994824 6.33764935 13.019454 C8.93558059 21.39938287 11.1347988 29.87922554 13.26628113 38.38731384 C13.68061343 40.01846342 14.09564176 41.64943633 14.51132202 43.28024292 C15.58670219 47.50489526 16.65481992 51.73134339 17.72062683 55.9584198 C19.44174525 62.78142495 21.17182457 69.60214722 22.90654564 76.42170525 C23.50863711 78.79468702 24.10604716 81.16881265 24.70300293 83.54309082 C25.06743898 84.98087108 25.43202882 86.41861238 25.79679871 87.85630798 C26.11401382 89.11439774 26.43122894 90.37248749 26.75805664 91.66870117 C27.27972643 94.35963243 27.27972643 94.35963243 28.55924988 95.47715759 C28.91938171 94.14152771 28.91938171 94.14152771 29.28678894 92.77891541 C30.90540158 86.77801945 32.52421151 80.77718672 34.14982605 74.77818298 C34.61834881 73.04893952 35.08685427 71.31969136 35.55534363 69.59043884 C35.79637314 68.7008699 36.03740265 67.81130096 36.28573608 66.89477539 C37.84300731 61.14123037 39.38729034 55.38434601 40.92347717 49.62513733 C41.97661315 45.68212614 43.03651165 41.74094954 44.09745789 37.80003357 C44.60894277 35.89400042 45.11754358 33.98719071 45.62309265 32.07957458 C52.9810878 4.33301303 52.9810878 4.33301303 58.00968933 0.71324158 C63.35504139 -1.87830467 70.65895126 -2.4389701 76.55924988 -1.52284241 C79.68373862 0.05373448 80.46254063 1.23318653 81.76237488 4.51231384 C82.12828308 5.85024116 82.47548558 7.19335164 82.80924988 8.53965759 C83.01340515 9.31510925 83.21756042 10.09056091 83.42790222 10.88951111 C85.6690602 19.56604076 87.65341459 28.30934815 89.67655945 37.03889465 C94.28943203 56.93872353 99.43666348 76.70363411 104.55924988 96.47715759 C107.23492745 89.79908704 109.0968812 83.03312519 110.88737488 76.07090759 C111.35551605 74.27550537 111.35551605 74.27550537 111.83311462 72.4438324 C112.82919915 68.62264448 113.81980718 64.80007028 114.80924988 60.97715759 C118.52860202 46.61782154 122.25286399 32.26380857 126.35612488 18.00840759 C126.63490479 17.02779358 126.91368469 16.04717957 127.20091248 15.03684998 C130.8486528 2.55089569 130.8486528 2.55089569 134.73112488 0.11387634 C138.44047415 -0.72123958 142.03054758 -0.77490657 145.80924988 -0.71034241 C146.54143738 -0.70969788 147.27362488 -0.70905334 148.02799988 -0.70838928 C153.41862488 -0.66346741 153.41862488 -0.66346741 154.55924988 0.47715759 C154.08043611 6.27277409 152.85394446 11.6007449 151.21159363 17.16465759 C150.82728432 18.48723572 150.82728432 18.48723572 150.43521118 19.83653259 C146.09999372 34.61046803 141.47381162 49.29941927 136.89335632 63.99864197 C136.12229103 66.47541935 135.35300588 68.9527421 134.58439636 71.43028259 C131.90369321 80.0709015 129.2114993 88.70761417 126.48815346 97.3348999 C125.11787446 101.68085948 123.77767092 106.0348985 122.45329285 110.39512634 C121.85282242 112.31859379 121.25151052 114.24179888 120.64909363 116.16465759 C120.27766991 117.42922791 120.27766991 117.42922791 119.89874268 118.71934509 C118.17834266 124.0940729 118.17834266 124.0940729 115.13395691 125.97789001 C111.20969866 126.73885229 107.48488821 126.80575177 103.49674988 126.78965759 C102.69430847 126.80577087 101.89186707 126.82188416 101.06510925 126.83848572 C99.90011902 126.83945251 99.90011902 126.83945251 98.71159363 126.84043884 C97.65959778 126.84491028 97.65959778 126.84491028 96.58634949 126.84947205 C93.84087618 126.34521493 92.55585748 125.42310853 90.55924988 123.47715759 C89.50114441 121.0877533 89.50114441 121.0877533 88.69206238 118.15293884 C88.20963074 116.43131531 88.20963074 116.43131531 87.717453 114.6749115 C87.37242898 113.37999269 87.02805141 112.08490151 86.68424988 110.78965759 C86.31177941 109.42931084 85.93871099 108.06912769 85.56510925 106.70909119 C80.80516867 89.2009278 76.51391383 71.56172512 72.16911316 53.9471283 C71.72264938 52.14063057 71.72264938 52.14063057 71.26716614 50.29763794 C70.7016273 48.00701292 70.13820861 45.71586316 69.5771637 43.4241333 C69.32568573 42.4053862 69.07420776 41.3866391 68.81510925 40.33702087 C68.48609619 38.99620956 68.48609619 38.99620956 68.1504364 37.62831116 C67.62677329 35.45036776 67.62677329 35.45036776 66.55924988 33.47715759 C66.37974792 34.18058289 66.20024597 34.88400818 66.01530457 35.60874939 C61.5411934 53.11099308 56.96001078 70.58352676 52.30924988 88.03965759 C52.05349182 89.00124786 51.79773376 89.96283813 51.53422546 90.9535675 C50.10082523 96.34031317 48.65405634 101.72316967 47.19474792 107.10295105 C46.59648143 109.33806134 46.02099375 111.57775287 45.451828 113.82041931 C45.12118347 115.07741638 44.79053894 116.33441345 44.44987488 117.62950134 C44.17691589 118.70063171 43.90395691 119.77176208 43.62272644 120.87535095 C42.38142522 123.91220749 41.44284047 124.94827831 38.55924988 126.47715759 C36.22502136 126.86534119 36.22502136 126.86534119 33.68034363 126.87559509 C32.29879089 126.88139587 32.29879089 126.88139587 30.889328 126.88731384 C29.93477722 126.87571228 28.98022644 126.86411072 27.99674988 126.85215759 C26.55912292 126.86955994 26.55912292 126.86955994 25.092453 126.88731384 C24.17270691 126.88344666 23.25296082 126.87957947 22.30534363 126.87559509 C21.46672791 126.8722113 20.62811218 126.86882751 19.76408386 126.86534119 C16.94770775 126.36948934 16.34095242 125.70429482 14.55924988 123.47715759 C13.41952515 120.60987854 13.41952515 120.60987854 12.32951355 117.057724 C12.12697936 116.4069863 11.92444517 115.75624861 11.71577358 115.08579159 C11.04396244 112.91942241 10.38565441 110.74918837 9.72721863 108.57872009 C9.2542934 107.04468306 8.780511 105.51091005 8.30592346 103.97738647 C7.03739953 99.87044901 5.78027319 95.76010537 4.52536392 91.64899063 C3.23120232 87.41581046 1.92704708 83.18571395 0.62345886 78.95542908 C-0.93578423 73.89343314 -2.49407224 68.831153 -4.04748535 63.7673645 C-7.02693763 54.05581532 -10.03004081 44.3524545 -13.07356262 34.66075134 C-13.40859299 33.59252136 -13.74362335 32.52429138 -14.08880615 31.4236908 C-15.31358737 27.51955977 -16.53867196 23.61554028 -17.77024841 19.71354675 C-18.57955175 17.14763407 -19.38378626 14.58018671 -20.18684387 12.01231384 C-20.42005341 11.27838913 -20.65326294 10.54446442 -20.89353943 9.78829956 C-21.79348615 6.89773481 -22.44075012 4.52526837 -22.44075012 1.47715759 C-5.93816431 -3.70496281 -5.93816431 -3.70496281 0 0 Z " fill="#1E2E3C" transform="translate(692.4407501220703,279.52284240722656)"/>
<path d="M0 0 C8.08509556 7.48676781 13.29692292 17.39291167 13.931427 28.44778442 C13.99332377 31.67793288 14.02369683 34.90576936 14.02048874 38.1364994 C14.01951216 40.31206345 14.03259806 42.48714848 14.04946899 44.66264343 C14.09539638 50.84268529 14.12032061 57.02267383 14.12695312 63.20288086 C14.13200631 66.99895097 14.15644238 70.79451595 14.19227982 74.59041405 C14.20198633 76.0242832 14.20446052 77.45822263 14.19910812 78.89211464 C14.16876684 87.41994025 14.37081875 95.6518516 18.74609375 103.21875 C20.7770182 104.99861789 20.7770182 104.99861789 22.74609375 106.21875 C21.06019152 112.21306905 16.56668925 117.48299892 11.30859375 120.71875 C6.59868368 121.63775684 2.52391623 121.90563596 -2.00390625 120.15625 C-5.13121821 117.46328692 -6.47997068 114.96372509 -8.25390625 111.21875 C-8.25390625 109.89875 -8.25390625 108.57875 -8.25390625 107.21875 C-9.02992188 107.85941406 -9.8059375 108.50007813 -10.60546875 109.16015625 C-25.88785604 121.5081337 -42.12995907 129.1921112 -62.25390625 127.21875 C-73.82619474 124.45331341 -82.32959739 118.04537498 -88.65234375 107.99609375 C-91.63938071 101.48181103 -91.65980828 94.70127511 -91.75390625 87.65625 C-91.77259766 86.68671387 -91.79128906 85.71717773 -91.81054688 84.71826172 C-91.71357557 73.72507193 -88.11081981 66.25103946 -80.5234375 58.40625 C-79.40001953 57.3234375 -79.40001953 57.3234375 -78.25390625 56.21875 C-77.72152344 55.703125 -77.18914063 55.1875 -76.640625 54.65625 C-64.63954181 44.73287372 -47.86569393 45.08130545 -33.25390625 46.21875 C-25.17518662 47.13379375 -17.79832377 49.28800239 -10.25390625 52.21875 C-10.0326888 33.01307977 -10.0326888 33.01307977 -18.640625 16.62109375 C-27.2457882 9.14106085 -39.64961664 10.67327521 -50.25390625 11.21875 C-58.7069149 12.19372216 -65.98952045 15.74925241 -73.46948242 19.61328125 C-78.79494048 22.30174162 -78.79494048 22.30174162 -81.484375 21.81542969 C-82.06832031 21.61852539 -82.65226563 21.42162109 -83.25390625 21.21875 C-84.00638601 17.56384829 -84.6609469 13.90287447 -85.25390625 10.21875 C-85.39054688 9.44789063 -85.5271875 8.67703125 -85.66796875 7.8828125 C-85.87890625 5.84375 -85.87890625 5.84375 -85.25390625 2.21875 C-80.5518053 -1.95877424 -74.40962403 -4.09847837 -68.50390625 -5.96875 C-67.3123291 -6.34990967 -67.3123291 -6.34990967 -66.09667969 -6.73876953 C-44.6286417 -13.42846468 -18.48490741 -14.60852302 0 0 Z " fill="#1D2D3C" transform="translate(643.25390625,284.78125)"/>
<path d="M0 0 C4.08828203 1.49650137 7.66500012 3.48508278 11.40625 5.703125 C18.56003454 9.8643084 25.93649894 13.39173946 33.5 16.75 C34.16262848 17.04614197 34.82525696 17.34228394 35.50796509 17.6473999 C56.30441104 26.93049762 77.33684709 35.28606126 98.9375 42.5 C99.6841391 42.74993713 100.4307782 42.99987427 101.20004272 43.25738525 C115.20806465 47.92446603 129.15623941 52.02963306 143.8125 54.125 C144.93342041 54.29040283 146.05434082 54.45580566 147.20922852 54.6262207 C227.78624872 66.32688837 312.52939924 54.98377974 389.18652344 27.87304688 C392 27 392 27 396 27 C396.35817714 30.2467025 396.21975718 31.66983341 394.3828125 34.4296875 C389.04607188 40.20961765 383.69507392 44.87121326 377 49 C375.99582031 49.62390625 374.99164062 50.2478125 373.95703125 50.890625 C336.40171381 73.25651159 292.05840352 84.11254669 249 89 C248.2751944 89.08773682 247.55038879 89.17547363 246.80361938 89.26586914 C239.86280672 90.04672329 232.98382939 90.16125802 226.00390625 90.16796875 C224.77574692 90.17129715 223.54758759 90.17462555 222.2822113 90.17805481 C219.69115572 90.18309623 217.10009369 90.185464 214.5090332 90.18530273 C210.60551836 90.18747605 206.70229261 90.20562581 202.79882812 90.22460938 C184.91978414 90.26609985 167.58253405 89.5858115 150.0625 85.75 C149.05799805 85.53384033 148.05349609 85.31768066 147.01855469 85.0949707 C95.66102047 73.72317693 39.81884343 46.82180037 1 11 C-0.20272819 8.59454362 -0.10071472 7.05003047 -0.0625 4.375 C-0.05347656 3.55773437 -0.04445313 2.74046875 -0.03515625 1.8984375 C-0.02355469 1.27195312 -0.01195312 0.64546875 0 0 Z " fill="#FBA821" transform="translate(534,441)"/>
<path d="M0 0 C6.26293834 2.50517534 12.32834326 5.01235821 18.375 7.9375 C26.47085977 11.81408894 34.60291405 15.60733358 42.75 19.375 C69.77762431 31.88881215 69.77762431 31.88881215 82 38 C82.78033854 65.12714119 83.0942066 92.23811293 83.0625 119.375 C83.06164398 120.11288128 83.06078796 120.85076256 83.05990601 121.61100388 C83.04852666 130.74069199 83.02846682 139.87034826 83 149 C73.86341086 147.41105082 64.98176473 144.89819865 56.0546875 142.4296875 C54.61540196 142.03427268 53.17603032 141.63917112 51.73657227 141.24438477 C46.44834147 139.79170397 41.16176675 138.33299991 35.875 136.875 C24.03625 133.61625 12.1975 130.3575 0 127 C0 85.09 0 43.18 0 0 Z " fill="#E9463D" transform="translate(282,174)"/>
<path d="M0 0 C1.25103516 -0.02449219 2.50207031 -0.04898438 3.79101562 -0.07421875 C18.05606517 -0.11877382 30.32866052 4.28922864 41 13.875 C49.71453543 23.03234719 53.24574483 34.52250691 53.078125 46.8984375 C52.25663373 57.65030858 47.89287986 65.33120674 39.8125 72.375 C36.58897031 74.61667572 33.30399842 76.58187137 29.8125 78.375 C30.97265625 78.90287109 30.97265625 78.90287109 32.15625 79.44140625 C44.31960301 85.206956 50.66342585 90.74284232 55.8125 103.375 C58.9832278 114.30398048 57.85738184 128.30016201 52.8125 138.375 C45.23734037 151.77871509 33.71492361 159.98900328 19 164.1875 C0.32012797 168.96607191 -18.74301691 167.08932413 -35.70703125 157.86328125 C-46.61792485 151.31674509 -52.922754 140.5187623 -56.1875 128.375 C-56.81254307 123.70338176 -57.10980815 119.08595156 -57.1875 114.375 C-47.17233586 114.24714684 -37.15542507 114.26896996 -27.1875 115.375 C-25.52147218 117.04102782 -25.70443247 119.28110316 -25.375 121.5625 C-24.2988698 127.67112145 -22.34366819 131.33231435 -17.8125 135.625 C-10.25508889 140.66327407 -0.93007219 140.25854634 7.8125 139.375 C15.11632312 137.57578925 20.11919266 133.39111923 24.125 127.0625 C27.28488181 120.29132469 27.02833953 110.82224193 25.08203125 103.703125 C22.49993267 98.09628236 18.70527728 94.9762856 13.125 92.6875 C5.69805519 90.35549003 -2.50227762 90.65963787 -10.1875 90.375 C-10.1875 82.455 -10.1875 74.535 -10.1875 66.375 C-7.5475 66.1275 -4.9075 65.88 -2.1875 65.625 C5.80878927 64.74223385 12.14589993 63.638697 17.75 57.3125 C21.82439483 51.50957403 21.51857284 45.24094967 20.8125 38.375 C19.13941532 33.58832725 16.5167109 30.52951162 12.1875 27.9375 C5.13739324 24.67356168 -3.26904628 23.6328912 -10.74609375 26.28125 C-15.07960109 28.83711822 -18.01866835 31.78708689 -20.1875 36.375 C-21.0736127 40.35232193 -21.69029464 44.33193538 -22.1875 48.375 C-25.42615635 49.45455212 -27.97905838 49.57941741 -31.38671875 49.69140625 C-33.19946289 49.75424805 -33.19946289 49.75424805 -35.04882812 49.81835938 C-36.31146484 49.85767578 -37.57410156 49.89699219 -38.875 49.9375 C-40.78635742 50.00227539 -40.78635742 50.00227539 -42.73632812 50.06835938 C-45.88660852 50.1745486 -49.03696839 50.27659533 -52.1875 50.375 C-52.52703505 35.58938025 -49.57653231 24.47066786 -39.37890625 13.4140625 C-28.03997031 2.617321 -15.04139894 0.01526271 0 0 Z " fill="#1E2E3C" transform="translate(819.1875,578.625)"/>
<path d="M0 0 C1.24652344 -0.01611328 2.49304688 -0.03222656 3.77734375 -0.04882812 C15.55418187 -0.05498112 25.8129686 1.7507548 35.75 8.3125 C37.77692129 10.33942129 36.93507217 14.34998608 36.9375 17.125 C36.94974609 17.85009766 36.96199219 18.57519531 36.97460938 19.32226562 C36.98509474 23.14243278 36.89860342 26.07685611 34.75 29.3125 C30.90904305 28.90818874 27.70885458 27.94254878 24.1875 26.4375 C12.05798385 21.47707101 -2.21648789 18.46643839 -14.9375 22.9375 C-19.12450476 24.92301807 -21.37312164 26.96155471 -23.25 31.3125 C-23.94002318 36.73411068 -22.96323654 40.58621699 -20.25 45.3125 C-14.61548551 50.03699869 -8.63022013 52.31120865 -1.75 54.75 C0.39873526 55.53694786 2.54717344 56.32470738 4.6953125 57.11328125 C6.71343113 57.84665842 8.73165135 58.57975611 10.75 59.3125 C23.88668577 64.09743827 36.45637413 69.14154046 42.77734375 82.48046875 C46.00627831 91.36375875 46.41244894 102.89924932 43.125 111.8125 C37.11728597 124.26599055 27.89753103 130.50074638 15.12109375 135.26953125 C7.06390526 137.76231147 -0.37037912 138.70102037 -8.8125 138.6875 C-9.86373047 138.68588867 -10.91496094 138.68427734 -11.99804688 138.68261719 C-23.67725307 138.50046443 -38.55419153 137.00830847 -47.25 128.3125 C-48.56208567 124.72502525 -48.38301192 121.09412658 -48.375 117.3125 C-48.37886719 115.4871875 -48.37886719 115.4871875 -48.3828125 113.625 C-48.27616155 110.96499989 -48.04307874 108.83021029 -47.25 106.3125 C-41.48655475 108.19095623 -35.78977363 110.19925246 -30.12109375 112.34765625 C-22.52638553 114.89989153 -15.86115517 115.67704692 -7.875 115.6875 C-6.89789062 115.71199219 -5.92078125 115.73648438 -4.9140625 115.76171875 C2.35266097 115.79070834 9.77430531 114.80322774 15.43920898 109.8293457 C19.10492756 105.61360642 20.11896136 101.91904894 20.02734375 96.37109375 C19.55992079 92.90163034 18.00326797 90.92154712 15.75 88.3125 C11.47025016 85.11265416 7.18908555 83.1847229 2.1484375 81.54296875 C0.67310834 81.04121772 -0.80214978 80.53925775 -2.27734375 80.03710938 C-4.56610072 79.26955925 -6.85615505 78.50623644 -9.14794922 77.74780273 C-23.29282137 73.04356813 -36.87148335 68.19828479 -44.78125 54.69921875 C-49.57181074 44.86526213 -50.00445563 33.79509561 -46.75 23.375 C-41.86664837 12.14329126 -33.29967458 6.68632952 -22.25 2.3125 C-14.88803906 -0.11986595 -7.70648468 -0.01967948 0 0 Z " fill="#1D2D3C" transform="translate(907.25,274.6875)"/>
<path d="M0 0 C1.13671143 0.29245605 2.27342285 0.58491211 3.44458008 0.88623047 C4.71068115 1.22154785 5.97678223 1.55686523 7.28125 1.90234375 C8.61417164 2.25148314 9.94709822 2.60060365 11.2800293 2.94970703 C23.93786038 6.28508239 36.55773829 9.76574341 49.17089844 13.26559448 C51.45535753 13.89913674 53.74035384 14.53074502 56.02587891 15.16043091 C59.26532823 16.05443135 62.50211085 16.95749332 65.73828125 17.86328125 C66.72339188 18.13384842 67.7085025 18.40441559 68.72346497 18.68318176 C69.62530014 18.93774643 70.52713531 19.1923111 71.45629883 19.45458984 C72.64175041 19.7847963 72.64175041 19.7847963 73.85115051 20.12167358 C75.78125 20.83984375 75.78125 20.83984375 77.78125 22.83984375 C76.09443115 23.06534912 76.09443115 23.06534912 74.37353516 23.29541016 C69.04991256 24.00985359 63.72783886 24.73541821 58.40625 25.46484375 C57.43862732 25.5972345 56.47100464 25.72962524 55.47406006 25.86602783 C40.85326716 27.87721464 26.31902006 30.17520014 11.83447266 33.01025391 C-1.91762133 35.60541555 -13.28866035 34.86009828 -26.83056641 31.95800781 C-32.28260681 30.79901544 -37.75847169 29.86770497 -43.26171875 28.98828125 C-44.17865509 28.841026 -45.09559143 28.69377075 -46.04031372 28.54205322 C-48.82849383 28.09666134 -51.61727777 27.65524616 -54.40625 27.21484375 C-57.2467558 26.76490104 -60.0870452 26.31372993 -62.92683411 25.85928345 C-64.66947533 25.58051188 -66.41251968 25.30424269 -68.15605164 25.03109741 C-73.56179492 24.1676865 -78.88850248 23.08674298 -84.21875 21.83984375 C-81.5396428 20.41675587 -79.01073662 19.404924 -76.078125 18.63818359 C-75.26695724 18.42364029 -74.45578949 18.20909698 -73.62004089 17.98805237 C-72.7451149 17.7612529 -71.8701889 17.53445343 -70.96875 17.30078125 C-70.0501973 17.05863388 -69.13164459 16.81648651 -68.18525696 16.56700134 C-66.21687184 16.04825374 -64.2480084 15.53131833 -62.27871704 15.01602173 C-57.16610983 13.67740982 -52.05753902 12.32361551 -46.94921875 10.96875 C-45.4347541 10.56728004 -45.4347541 10.56728004 -43.88969421 10.15769958 C-35.41299129 7.90449372 -26.96305876 5.56777681 -18.53125 3.15234375 C-17.38849609 2.8260498 -16.24574219 2.49975586 -15.06835938 2.16357422 C-3.99016276 -1.03366426 -3.99016276 -1.03366426 0 0 Z " fill="#5B1715" transform="translate(286.21875,301.16015625)"/>
<path d="M0 0 C1.21449326 0.17282501 2.42898651 0.34565002 3.68028259 0.52371216 C7.5468382 1.07503422 11.41210707 1.63482542 15.27734375 2.1953125 C20.35124039 2.92413125 25.42560272 3.64967629 30.5 4.375 C31.70782135 4.5482782 32.9156427 4.7215564 34.1600647 4.90008545 C42.83397393 6.13941855 51.51294533 7.29515031 60.21484375 8.3203125 C60.21484375 8.6503125 60.21484375 8.9803125 60.21484375 9.3203125 C59.20921387 9.53647217 58.20358398 9.75263184 57.16748047 9.9753418 C52.47459347 10.98458262 47.78213629 11.9958117 43.08984375 13.0078125 C41.81900436 13.28183899 41.81900436 13.28183899 40.52249146 13.56140137 C30.71957512 15.67676201 20.92423102 17.81512067 11.15234375 20.0703125 C4.22845777 21.65764315 -2.70397634 23.19293908 -9.66015625 24.6328125 C-10.46332275 24.80458008 -11.26648926 24.97634766 -12.09399414 25.15332031 C-12.85574951 25.30768555 -13.61750488 25.46205078 -14.40234375 25.62109375 C-15.05831543 25.75684814 -15.71428711 25.89260254 -16.39013672 26.0324707 C-24.45773555 27.00206286 -31.38624458 25.50070419 -39.21875 23.6171875 C-40.41009048 23.33812561 -41.60143097 23.05906372 -42.82887268 22.77154541 C-46.62880867 21.87942229 -50.4257163 20.97509262 -54.22265625 20.0703125 C-56.74004308 19.47705228 -59.25761968 18.88459668 -61.77539062 18.29296875 C-67.72495509 16.89314016 -73.67229571 15.48414852 -79.61883545 14.0715332 C-84.10130393 13.00805185 -88.58557754 11.95231368 -93.0703125 10.8984375 C-93.77151718 10.73357849 -94.47272186 10.56871948 -95.19517517 10.39886475 C-96.72513608 10.03920785 -98.25513992 9.67973355 -99.78515625 9.3203125 C-99.78515625 8.9903125 -99.78515625 8.6603125 -99.78515625 8.3203125 C-79.89298206 5.4586375 -59.9982243 2.7863793 -40.0222168 0.57714844 C-39.31859009 0.49924072 -38.61496338 0.42133301 -37.89001465 0.34106445 C-36.00068974 0.13276738 -34.11107361 -0.07288352 -32.22143555 -0.27832031 C-29.94293666 -0.54445546 -27.6697405 -0.86114501 -25.40551758 -1.22949219 C-16.74783888 -2.30608262 -8.59613582 -1.26095977 0 0 Z " fill="#FBACB0" transform="translate(302.78515625,530.6796875)"/>
<path d="M0 0 C1.06081787 -0.02215576 2.12163574 -0.04431152 3.21459961 -0.06713867 C12.12902675 -0.04279562 20.35132736 1.46983636 27.7109375 6.734375 C31.60212252 12.61363271 30.35110394 20.86918142 29.10009766 27.58398438 C27.93339514 32.66270946 26.30425322 37.55333901 24.5 42.4375 C24.24831055 43.12376465 23.99662109 43.8100293 23.73730469 44.51708984 C18.75047678 57.73061562 10.95971203 71.75514176 -0.5 80.4375 C-1.82453537 80.80423552 -3.15771309 81.14228019 -4.5 81.4375 C-2.96422151 75.44239451 -1.24301172 69.55143381 0.76171875 63.6953125 C1.15810547 62.52613281 1.55449219 61.35695313 1.96289062 60.15234375 C2.77814301 57.76249705 3.60625607 55.37699833 4.44726562 52.99609375 C7.54188221 43.75797725 9.34432733 34.33986622 6.3125 24.8125 C4.26404657 20.99813844 3.51729492 19.94398559 -0.5 18.4375 C-11.1162781 15.46124858 -22.27704744 16.21558322 -33.1875 16.3125 C-35.16080276 16.32254885 -37.13411046 16.33167133 -39.10742188 16.33984375 C-43.90507165 16.36170866 -48.70248036 16.39613384 -53.5 16.4375 C-52.74609375 12.63720703 -52.74609375 12.63720703 -50.53125 10.83984375 C-49.6959375 10.35644531 -48.860625 9.87304688 -48 9.375 C-47.1853125 8.88902344 -46.370625 8.40304687 -45.53125 7.90234375 C-31.44882002 1.09704576 -15.39864856 0.17137865 0 0 Z " fill="#FBC127" transform="translate(939.5,433.5625)"/>
<path d="M0 0 C2.66674184 2.66674184 1.49335718 9.7735262 1.5234375 13.34619141 C1.34965215 22.01528718 1.34965215 22.01528718 -2 25.875 C-3.9453125 27.5390625 -3.9453125 27.5390625 -6 29 C-6.95519531 29.81597656 -6.95519531 29.81597656 -7.9296875 30.6484375 C-15.84237842 37.16290191 -24.2154104 40.12832827 -34.375 40.25 C-35.66148437 40.27578125 -36.94796875 40.3015625 -38.2734375 40.328125 C-44.83121651 39.7507105 -48.72860942 36.84860552 -53 32 C-56.87430553 26.49736316 -56.75668948 21.53188279 -56 15 C-55.15516234 12.15730726 -53.9314685 10.23498498 -52 8 C-51.48695313 7.40574219 -50.97390625 6.81148438 -50.4453125 6.19921875 C-36.74336371 -7.53213337 -16.8772873 -5.75677334 0 0 Z " fill="#FAFAFA" transform="translate(632,352)"/>
<path d="M0 0 C0.94875 0.350625 1.8975 0.70125 2.875 1.0625 C1.885 1.7225 0.895 2.3825 -0.125 3.0625 C-0.125 2.4025 -0.125 1.7425 -0.125 1.0625 C-0.785 1.0625 -1.445 1.0625 -2.125 1.0625 C-2.125 110.9525 -2.125 220.8425 -2.125 334.0625 C-2.785 333.7325 -3.445 333.4025 -4.125 333.0625 C-3.795 223.5025 -3.465 113.9425 -3.125 1.0625 C-3.785 0.7325 -4.445 0.4025 -5.125 0.0625 C-3.125 -0.9375 -3.125 -0.9375 0 0 Z " fill="#7A271D" transform="translate(461.125,265.9375)"/>
<path d="M0 0 C0.33 0 0.66 0 1 0 C1.33 26.07 1.66 52.14 2 79 C4.64 78.67 7.28 78.34 10 78 C8 80 8 80 4.3125 80.375 C-0.36534669 80.28948178 -3.15791692 78.56138872 -7 76 C-6.01 75.505 -6.01 75.505 -5 75 C-3.35 75.66 -1.7 76.32 0 77 C0 51.59 0 26.18 0 0 Z " fill="#982B20" transform="translate(105,520)"/>
<path d="M0 0 C0.33 0.99 0.66 1.98 1 3 C2.10903687 2.99214478 2.10903687 2.99214478 3.24047852 2.98413086 C40.51018213 2.75509106 40.51018213 2.75509106 47 6 C30.17 6 13.34 6 -4 6 C-3 2 -3 2 0 0 Z " fill="#FCA40D" transform="translate(890,444)"/>
<path d="M0 0 C5.28 0 10.56 0 16 0 C16 0.66 16 1.32 16 2 C17.32 2.33 18.64 2.66 20 3 C12.41 3 4.82 3 -3 3 C-2.01 2.67 -1.02 2.34 0 2 C0 1.34 0 0.68 0 0 Z " fill="#28333F" transform="translate(595,292)"/>
<path d="M0 0 C7.26 0 14.52 0 22 0 C22.33 0.99 22.66 1.98 23 3 C15.41 3 7.82 3 0 3 C0 2.01 0 1.02 0 0 Z " fill="#2B3C4A" transform="translate(596,274)"/>
<path d="M0 0 C0.33 0 0.66 0 1 0 C1.33 5.61 1.66 11.22 2 17 C5.96 16.505 5.96 16.505 10 16 C8 18 8 18 4.3125 18.375 C-0.36534669 18.28948178 -3.15791692 16.56138872 -7 14 C-6.34 13.67 -5.68 13.34 -5 13 C-2.525 13.99 -2.525 13.99 0 15 C0 10.05 0 5.1 0 0 Z " fill="#A02119" transform="translate(105,582)"/>
<path d="M0 0 C0 0.99 0 1.98 0 3 C-0.80824219 2.98839844 -1.61648438 2.97679687 -2.44921875 2.96484375 C-4.05216797 2.95130859 -4.05216797 2.95130859 -5.6875 2.9375 C-6.74324219 2.92589844 -7.79898438 2.91429687 -8.88671875 2.90234375 C-11.72410262 2.99134575 -14.2438919 3.35060162 -17 4 C-16.67 3.01 -16.34 2.02 -16 1 C-10.61509359 0.08342019 -5.45769811 -0.11138159 0 0 Z " fill="#2A3642" transform="translate(769,278)"/>
<path d="M0 0 C0.68707555 2.49064888 1 4.37886292 1 7 C2.98 5.35 4.96 3.7 7 2 C5.63088196 5.1489715 4.1247864 7.0478487 1.5 9.25 C0.8915625 9.77078125 0.283125 10.2915625 -0.34375 10.828125 C-2 12 -2 12 -4 12 C-3.52494322 10.18641846 -3.04483958 8.37415821 -2.5625 6.5625 C-2.29566406 5.55316406 -2.02882813 4.54382813 -1.75390625 3.50390625 C-1 1 -1 1 0 0 Z " fill="#FBAD11" transform="translate(939,503)"/>
<path d="M0 0 C2.125 0.375 2.125 0.375 4 1 C3.34 1 2.68 1 2 1 C0.47700477 3.93720508 -0.80100302 6.9168649 -2 10 C-2.66 10 -3.32 10 -4 10 C-4.33 11.65 -4.66 13.3 -5 15 C-5.89234179 12.51053693 -6.08442558 11.27333365 -5.29296875 8.7109375 C-4.92816406 7.94007813 -4.56335938 7.16921875 -4.1875 6.375 C-3.83042969 5.59898437 -3.47335937 4.82296875 -3.10546875 4.0234375 C-2 2 -2 2 0 0 Z " fill="#141F2B" transform="translate(750,280)"/>
<path d="M0 0 C0.73605469 0.00451172 1.47210937 0.00902344 2.23046875 0.01367188 C4.02868158 0.02534858 5.82685197 0.04327989 7.625 0.0625 C7.625 0.3925 7.625 0.7225 7.625 1.0625 C6.93792969 1.12308594 6.25085938 1.18367188 5.54296875 1.24609375 C4.19138672 1.37177734 4.19138672 1.37177734 2.8125 1.5 C1.47251953 1.62181641 1.47251953 1.62181641 0.10546875 1.74609375 C-2.50243559 1.99739767 -2.50243559 1.99739767 -5.375 3.0625 C-7.43645107 3.131491 -9.50001401 3.14717727 -11.5625 3.125 C-13.19251953 3.11146484 -13.19251953 3.11146484 -14.85546875 3.09765625 C-15.68691406 3.08605469 -16.51835938 3.07445312 -17.375 3.0625 C-12.04271274 -0.49235817 -6.19582164 -0.07282611 0 0 Z " fill="#FBB513" transform="translate(926.375,434.9375)"/>
<path d="M0 0 C0.94875 0.350625 1.8975 0.70125 2.875 1.0625 C1.885 1.7225 0.895 2.3825 -0.125 3.0625 C-0.125 2.4025 -0.125 1.7425 -0.125 1.0625 C-0.785 1.0625 -1.445 1.0625 -2.125 1.0625 C-2.125 9.3125 -2.125 17.5625 -2.125 26.0625 C-2.455 26.0625 -2.785 26.0625 -3.125 26.0625 C-3.125 17.8125 -3.125 9.5625 -3.125 1.0625 C-3.785 0.7325 -4.445 0.4025 -5.125 0.0625 C-3.125 -0.9375 -3.125 -0.9375 0 0 Z " fill="#93241C" transform="translate(461.125,265.9375)"/>
<path d="M0 0 C5.78591511 -0.10477512 11.29309366 0.00749455 17 1 C17 1.33 17 1.66 17 2 C7.58997722 4.29612756 7.58997722 4.29612756 3 4 C3.66 3.67 4.32 3.34 5 3 C5 2.34 5 1.68 5 1 C3.35 1 1.7 1 0 1 C0 0.67 0 0.34 0 0 Z " fill="#FBC5C9" transform="translate(346,538)"/>
<path d="M0 0 C-0.66 1.32 -1.32 2.64 -2 4 C-9.42857143 4.28571429 -9.42857143 4.28571429 -13 2 C-4.57142857 -0.28571429 -4.57142857 -0.28571429 0 0 Z " fill="#4D1512" transform="translate(215,320)"/>
<path d="M0 0 C0.33 0.99 0.66 1.98 1 3 C3.50447516 4.21869929 3.50447516 4.21869929 6 5 C6 5.33 6 5.66 6 6 C2.7 6 -0.6 6 -4 6 C-3 2 -3 2 0 0 Z " fill="#FBA920" transform="translate(890,444)"/>
<path d="M0 0 C2.97 0.33 5.94 0.66 9 1 C9.33 1.99 9.66 2.98 10 4 C12.00016466 5.20882096 12.00016466 5.20882096 14 6 C8.93001981 5.34580901 4.58009223 3.1453591 0 1 C0 0.67 0 0.34 0 0 Z " fill="#FA9314" transform="translate(628,507)"/>
<path d="M0 0 C6.75 0.75 6.75 0.75 9 3 C1.08 3.495 1.08 3.495 -7 4 C-7 3.67 -7 3.34 -7 3 C-3.535 2.505 -3.535 2.505 0 2 C0 1.34 0 0.68 0 0 Z " fill="#431311" transform="translate(355,321)"/>
<path d="M0 0 C5.42039575 -0.40652968 9.07015675 0.96006486 14 3 C14 3.66 14 4.32 14 5 C11.8520106 4.55187982 9.70663439 4.09121652 7.5625 3.625 C5.77005859 3.24214844 5.77005859 3.24214844 3.94140625 2.8515625 C2.48541016 2.43003906 2.48541016 2.43003906 1 2 C0.67 1.34 0.34 0.68 0 0 Z " fill="#EB5045" transform="translate(347,317)"/>
<path d="M0 0 C0 0.33 0 0.66 0 1 C-1.65 1.33 -3.3 1.66 -5 2 C-5 2.33 -5 2.66 -5 3 C-8.3 2.67 -11.6 2.34 -15 2 C-15 1.67 -15 1.34 -15 1 C-9.94997778 -0.03590199 -5.12583611 -0.10251672 0 0 Z " fill="#F8C2C7" transform="translate(218,538)"/>
<path d="M0 0 C0.99 0 1.98 0 3 0 C3 3.63 3 7.26 3 11 C0 8 0 8 -0.29296875 5.95703125 C-0.1953125 3.97135417 -0.09765625 1.98567708 0 0 Z " fill="#263543" transform="translate(558,287)"/>
<path d="M0 0 C0 0.99 0 1.98 0 3 C-6.0546875 3.9765625 -6.0546875 3.9765625 -8 4 C-8.66 3.34 -9.32 2.68 -10 2 C-8.7090864 1.66376204 -7.41723903 1.33110751 -6.125 1 C-5.40570312 0.814375 -4.68640625 0.62875 -3.9453125 0.4375 C-2 0 -2 0 0 0 Z " fill="#FCB727" transform="translate(882,481)"/>
<path d="M0 0 C-2.55068845 2.35448165 -3.71017358 2.98327924 -7.25 3.1875 C-8.1575 3.125625 -9.065 3.06375 -10 3 C-6.88378718 -0.11621282 -4.21175599 -0.11383124 0 0 Z " fill="#FDB214" transform="translate(908,438)"/>
</svg>
